SplineFontDB: 3.1
FontName: Solitus
FullName: Solitus
FamilyName: Solitus
Weight: Regular

StartChar: A
Encoding: 65 65 0
Width: 1258
VWidth: 0
Flags: W
HStem: 0 21G<28 300.584 957.752 1230> 298 248<499 767> 1246 20G<505 759.551>
LayerCount: 2
UndoRedoHistory
Layer: 1
Undoes
UndoOperation
Index: 0
Type: 1
WasModified: 0
WasOrder2: 0
Layer: 2
Width: 1258
VWidth: 0
LBearingChange: 0
UnicodeEnc: 0
InstructionsLength: 0
SplineSet
505 1264 m 1
 506 1266 l 1
 752 1266 l 1
 1230 0 l 1
 965 0 l 1
 857 298 l 1
 406 298 l 1
 293 0 l 1
 28 0 l 1
 505 1264 l 1
635 907 m 1
 499 546 l 1
 767 546 l 1
 635 907 l 1
EndSplineSet
EndUndoOperation
EndUndoes
Redoes
EndRedoes
EndUndoRedoHistory
Fore
SplineSet
505 1264 m 1
 506 1266 l 1
 752 1266 l 1
 1230 0 l 1
 965 0 l 1
 857 298 l 1
 406 298 l 1
 293 0 l 1
 28 0 l 1
 505 1264 l 1
635 907 m 1
 499 546 l 1
 767 546 l 1
 635 907 l 1
EndSplineSet
Validated: 1
EndChar

StartChar: B
Encoding: 66 66 1
Width: 976
VWidth: 0
Flags: W
HStem: -0 248<320 631.066> 546 248<320 619.849> 1018 248<320 618.055>
VStem: 72 248<248 546 794 1018> 643 248<816.35 995.595> 677 248<290.914 501.859>
LayerCount: 2
UndoRedoHistory
Layer: 1
Undoes
UndoOperation
Index: 0
Type: 1
WasModified: 0
WasOrder2: 0
Layer: 2
Width: 976
VWidth: 0
LBearingChange: 0
UnicodeEnc: 0
InstructionsLength: 0
SplineSet
72 1266 m 1
 519 1266 l 2
 628 1266 707 1230 797 1149 c 1
 855 1085 891 999 891 907 c 0
 891 820 860 740 808 678 c 1
 880 606 925 506 925 397 c 0
 925 295 886 201 822 130 c 0
 758 61 638 0 525 -0 c 2
 72 0 l 1
 72 1266 l 1
320 1018 m 1
 320 794 l 1
 532 794 l 2
 595 794 643 844 643 907 c 0
 643 968 598 1015 538 1018 c 1
 320 1018 l 1
320 546 m 1
 320 248 l 1
 528 248 l 2
 612 248 677 313 677 397 c 0
 677 481 612 546 528 546 c 2
 320 546 l 1
EndSplineSet
EndUndoOperation
EndUndoes
Redoes
EndRedoes
EndUndoRedoHistory
Fore
SplineSet
72 1266 m 1xf4
 519 1266 l 2
 628 1266 707 1230 797 1149 c 1
 855 1085 891 999 891 907 c 0xf8
 891 820 860 740 808 678 c 1
 880 606 925 506 925 397 c 0
 925 295 886 201 822 130 c 0
 758 61 638 0 525 -0 c 2
 72 0 l 1
 72 1266 l 1xf4
320 1018 m 1
 320 794 l 1
 532 794 l 2
 595 794 643 844 643 907 c 0
 643 968 598 1015 538 1018 c 1
 320 1018 l 1
320 546 m 1
 320 248 l 1
 528 248 l 2
 612 248 677 313 677 397 c 0xf4
 677 481 612 546 528 546 c 2
 320 546 l 1
EndSplineSet
Validated: 1
EndChar

StartChar: C
Encoding: 67 67 2
Width: 1035
VWidth: 0
Flags: W
HStem: -22 248<466.165 735.934> 1040 248<464.065 732.143>
VStem: 46 255<418.118 842.014>
LayerCount: 2
UndoRedoHistory
Layer: 1
Undoes
UndoOperation
Index: 0
Type: 1
WasModified: 1
WasOrder2: 0
Layer: 2
Width: 1035
VWidth: 0
LBearingChange: 0
UnicodeEnc: 0
InstructionsLength: 0
SplineSet
46 625 m 4
 46 951 269 1289 597 1289 c 4
 745 1289 873 1226 974 1113 c 5
 789 947 l 5
 729 1014 665 1041 601 1041 c 4
 520 1041 448 1004 385 917 c 4
 328 838 301 733 301 628 c 4
 301 511 335 409 402 329 c 4
 464 255 533 227 599 227 c 4
 673 227 744 260 807 342 c 5
 1004 191 l 5
 901 57 757 -21 600 -21 c 4
 457 -21 315 48 212 170 c 4
 101 302 46 455 46 625 c 4
EndSplineSet
EndUndoOperation
EndUndoes
Redoes
EndRedoes
EndUndoRedoHistory
Fore
SplineSet
46 624 m 4
 46 950 269 1288 597 1288 c 4
 745 1288 873 1225 974 1112 c 5
 789 946 l 5
 729 1013 665 1040 601 1040 c 4
 520 1040 448 1003 385 916 c 4
 328 837 301 732 301 627 c 4
 301 510 335 408 402 328 c 4
 464 254 533 226 599 226 c 4
 673 226 744 259 807 341 c 5
 1004 190 l 5
 901 56 757 -22 600 -22 c 4
 457 -22 315 47 212 169 c 4
 101 301 46 454 46 624 c 4
EndSplineSet
Validated: 1
EndChar

StartChar: D
Encoding: 68 68 3
Width: 1098
VWidth: 0
Flags: W
HStem: 0 248<320 615.253> 1018 248<320 613.793>
VStem: 72 248<248 1018> 793 248<441.517 821.173>
LayerCount: 2
UndoRedoHistory
Layer: 1
Undoes
UndoOperation
Index: 0
Type: 1
WasModified: 0
WasOrder2: 0
Layer: 2
Width: 1098
VWidth: 0
LBearingChange: 0
UnicodeEnc: 0
InstructionsLength: 0
SplineSet
72 1266 m 5
 470 1266 l 6
 793 1266 1041 970 1041 631 c 4
 1041 292 793 0 470 0 c 6
 72 0 l 5
 72 1266 l 5
320 1018 m 5
 320 248 l 5
 470 248 l 6
 641 248 793 410 793 631 c 4
 793 852 641 1018 470 1018 c 6
 320 1018 l 5
EndSplineSet
EndUndoOperation
EndUndoes
Redoes
EndRedoes
EndUndoRedoHistory
Fore
SplineSet
72 1266 m 1
 470 1266 l 2
 793 1266 1041 970 1041 631 c 0
 1041 292 793 0 470 0 c 2
 72 0 l 1
 72 1266 l 1
320 1018 m 1
 320 248 l 1
 470 248 l 2
 641 248 793 410 793 631 c 0
 793 852 641 1018 470 1018 c 2
 320 1018 l 1
EndSplineSet
Validated: 1
EndChar

StartChar: E
Encoding: 69 69 4
Width: 971
VWidth: 0
Flags: W
HStem: 0 248<320 916> 519 248<320 753> 1018 248<320 916>
VStem: 72 248<248 519 767 1018>
LayerCount: 2
UndoRedoHistory
Layer: 1
Undoes
UndoOperation
Index: 0
Type: 1
WasModified: 0
WasOrder2: 0
Layer: 2
Width: 971
VWidth: 0
LBearingChange: 0
UnicodeEnc: 0
InstructionsLength: 0
SplineSet
72 1266 m 5
 916 1266 l 5
 916 1018 l 5
 320 1018 l 5
 320 767 l 5
 753 767 l 5
 753 519 l 5
 320 519 l 5
 320 248 l 5
 916 248 l 5
 916 0 l 5
 634.666666667 -0 353.333333333 0 72 0 c 5
 72 1266 l 5
EndSplineSet
EndUndoOperation
EndUndoes
Redoes
EndRedoes
EndUndoRedoHistory
Fore
SplineSet
72 1266 m 5
 916 1266 l 5
 916 1018 l 5
 320 1018 l 5
 320 767 l 5
 753 767 l 5
 753 519 l 5
 320 519 l 5
 320 248 l 5
 916 248 l 5
 916 0 l 5
 635 0 353 0 72 0 c 5
 72 1266 l 5
EndSplineSet
Validated: 1
EndChar

StartChar: F
Encoding: 70 70 5
Width: 922
VWidth: 0
Flags: W
HStem: 0 21G<72 320> 486 248<320 743> 1018 248<320 916>
VStem: 72 248<0 486 734 1018>
LayerCount: 2
UndoRedoHistory
Layer: 1
Undoes
UndoOperation
Index: 0
Type: 1
WasModified: 0
WasOrder2: 0
Layer: 2
Width: 960
VWidth: 0
LBearingChange: 0
UnicodeEnc: 0
InstructionsLength: 0
SplineSet
72 1266 m 5
 916 1266 l 5
 916 1018 l 5
 320 1018 l 5
 320 734 l 5
 743 734 l 5
 743 486 l 5
 320 486 l 5
 320 0 l 5
 72 0 l 5
 72 1266 l 5
EndSplineSet
EndUndoOperation
EndUndoes
Redoes
EndRedoes
EndUndoRedoHistory
Fore
SplineSet
72 1266 m 1
 916 1266 l 1
 916 1018 l 1
 320 1018 l 1
 320 734 l 1
 743 734 l 1
 743 486 l 1
 320 486 l 1
 320 0 l 1
 72 0 l 1
 72 1266 l 1
EndSplineSet
Validated: 1
EndChar

StartChar: G
Encoding: 71 71 6
Width: 1122
VWidth: 0
Flags: HW
LayerCount: 2
UndoRedoHistory
Layer: 1
Undoes
UndoOperation
Index: 0
Type: 1
WasModified: 1
WasOrder2: 0
Layer: 2
Width: 1122
VWidth: 0
LBearingChange: 0
UnicodeEnc: 0
InstructionsLength: 0
SplineSet
47 622 m 4
 47 948 270 1292 598 1292 c 4
 746 1292 875 1228 976 1115 c 5
 791 949 l 5
 731 1016 666 1043 602 1043 c 4
 521 1043 450 1006 387 919 c 4
 330 840 302 730 302 625 c 4
 302 508 337 403 404 323 c 0
 466 249 535 221 602 221 c 0
 704 221 807 297 807 335 c 0
 807 358 806 395 806 433 c 0
 806 456 807 479 807 500 c 1
 657 500 l 1
 657 720 l 1
 1055 720 l 1
 1055 592 1055 464 1055 336 c 0
 1055 265 1024 218 1005 185 c 1
 902 51 758 -27 601 -27 c 0
 458 -27 316 42 213 164 c 0
 102 296 47 452 47 622 c 4
EndSplineSet
EndUndoOperation
EndUndoes
Redoes
EndRedoes
EndUndoRedoHistory
Fore
SplineSet
47 621 m 4
 47 947 270 1291 598 1291 c 4
 746 1291 875 1227 976 1114 c 5
 791 948 l 5
 731 1015 666 1042 602 1042 c 4
 521 1042 450 1005 387 918 c 4
 330 839 302 729 302 624 c 4
 302 507 337 403 404 323 c 0
 466 249 535 221 602 221 c 0
 704 221 807 297 807 335 c 0
 807 358 806 395 806 433 c 0
 806 456 807 479 807 500 c 1
 657 500 l 1
 657 720 l 1
 1055 720 l 1
 1055 592 1055 464 1055 336 c 0
 1055 265 1024 218 1005 185 c 1
 902 51 758 -27 601 -27 c 0
 458 -27 316 42 213 164 c 0
 102 296 47 451 47 621 c 4
EndSplineSet
Validated: 1
EndChar

StartChar: H
Encoding: 72 72 7
Width: 1144
VWidth: 0
Flags: W
HStem: 0 21G<72 320 817 1065> 509 248<320 817> 1246 20G<72 320 817 1065>
VStem: 72 248<0 509 757 1266> 817 248<0 509 757 1266>
LayerCount: 2
UndoRedoHistory
Layer: 1
Undoes
UndoOperation
Index: 0
Type: 1
WasModified: 0
WasOrder2: 0
Layer: 2
Width: 1144
VWidth: 0
LBearingChange: 0
UnicodeEnc: 0
InstructionsLength: 0
SplineSet
72 1266 m 5
 320 1266 l 5
 320 757 l 5
 817 757 l 5
 817 1266 l 5
 1065 1266 l 5
 1065 0 l 5
 817 0 l 5
 817 509 l 5
 320 509 l 5
 320 0 l 5
 72 0 l 5
 72 1266 l 5
EndSplineSet
EndUndoOperation
EndUndoes
Redoes
EndRedoes
EndUndoRedoHistory
Fore
SplineSet
72 1266 m 5
 320 1266 l 5
 320 757 l 5
 817 757 l 5
 817 1266 l 5
 1065 1266 l 5
 1065 0 l 5
 817 0 l 5
 817 509 l 5
 320 509 l 5
 320 0 l 5
 72 0 l 5
 72 1266 l 5
EndSplineSet
Validated: 1
EndChar

StartChar: I
Encoding: 73 73 8
Width: 459
VWidth: 0
Flags: W
HStem: 0 21G<106 354> 1246 20G<106 354>
VStem: 106 248<0 1266>
LayerCount: 2
UndoRedoHistory
Layer: 1
Undoes
UndoOperation
Index: 0
Type: 1
WasModified: 0
WasOrder2: 0
Layer: 2
Width: 459
VWidth: 0
LBearingChange: 0
UnicodeEnc: 0
InstructionsLength: 0
SplineSet
105.5 1266 m 1
 353.5 1266 l 1
 353.5 0 l 1
 105.5 0 l 1
 105.5 1266 l 1
EndSplineSet
EndUndoOperation
EndUndoes
Redoes
EndRedoes
EndUndoRedoHistory
Fore
SplineSet
106 1266 m 1
 354 1266 l 1
 354 0 l 1
 106 0 l 1
 106 1266 l 1
EndSplineSet
Validated: 1
EndChar

StartChar: J
Encoding: 74 74 9
Width: 902
VWidth: 0
Flags: W
HStem: -14 247<337.001 532.547> 1246 20G<581 830>
VStem: 40 248<280.444 395> 581 248<280.444 1266>
LayerCount: 2
UndoRedoHistory
Layer: 1
Undoes
UndoOperation
Index: 0
Type: 1
WasModified: 1
WasOrder2: 0
Layer: 2
Width: 902
VWidth: 0
LBearingChange: 0
UnicodeEnc: 0
InstructionsLength: 0
SplineSet
435 234 m 4
 522 234 581 314 581 396 c 6
 581 1267 l 5
 830 1267 l 5
 829 396 l 6
 829 189 670 -13 435 -13 c 4
 200 -13 40 189 40 396 c 5
 288 396 l 5
 288 314 347 234 435 234 c 4
EndSplineSet
EndUndoOperation
EndUndoes
Redoes
EndRedoes
EndUndoRedoHistory
Fore
SplineSet
435 233 m 4
 522 233 581 313 581 395 c 6
 581 1266 l 5
 830 1266 l 5
 829 395 l 6
 829 188 670 -14 435 -14 c 4
 200 -14 40 188 40 395 c 5
 288 395 l 5
 288 313 347 233 435 233 c 4
EndSplineSet
Validated: 1
EndChar

StartChar: K
Encoding: 75 75 10
Width: 1062
VWidth: 0
Flags: W
HStem: 0 21G<72 320 717.28 1035> 1246 20G<72 320 682.644 1005>
VStem: 72 248<0 500 831 1266>
LayerCount: 2
UndoRedoHistory
Layer: 1
Undoes
UndoOperation
Index: 0
Type: 1
WasModified: 0
WasOrder2: 0
Layer: 2
Width: 1062
VWidth: 0
LBearingChange: 0
UnicodeEnc: 0
InstructionsLength: 0
SplineSet
364 500 m 5
 320 500 l 5
 320 -0 l 5
 72 -0 l 5
 72 1266 l 5
 320 1266 l 5
 320 831 l 5
 364 831 l 5
 698 1266 l 5
 1005 1266 l 5
 567 666 l 5
 1035 0 l 5
 732 0 l 5
 364 500 l 5
EndSplineSet
EndUndoOperation
EndUndoes
Redoes
EndRedoes
EndUndoRedoHistory
Fore
SplineSet
364 500 m 5
 320 500 l 5
 320 -0 l 5
 72 -0 l 5
 72 1266 l 5
 320 1266 l 5
 320 831 l 5
 364 831 l 5
 698 1266 l 5
 1005 1266 l 5
 567 666 l 5
 1035 0 l 5
 732 0 l 5
 364 500 l 5
EndSplineSet
Validated: 1
EndChar

StartChar: L
Encoding: 76 76 11
Width: 853
VWidth: 0
Flags: W
HStem: 0 248<319 782> 1246 20G<71 319>
VStem: 71 248<248 1266>
LayerCount: 2
UndoRedoHistory
Layer: 1
Undoes
UndoOperation
Index: 0
Type: 1
WasModified: 1
WasOrder2: 0
Layer: 2
Width: 853
VWidth: 0
LBearingChange: 0
UnicodeEnc: 0
InstructionsLength: 0
SplineSet
72 1266 m 1
 320 1266 l 1
 320 248 l 1
 783 248 l 1
 783 0 l 1
 72 0 l 1
 72 1266 l 1
EndSplineSet
EndUndoOperation
EndUndoes
Redoes
EndRedoes
EndUndoRedoHistory
Fore
SplineSet
71 1266 m 1
 319 1266 l 1
 319 248 l 1
 782 248 l 1
 782 0 l 1
 71 0 l 1
 71 1266 l 1
EndSplineSet
Validated: 1
EndChar

StartChar: M
Encoding: 77 77 12
Width: 1258
VWidth: 0
Flags: HW
LayerCount: 2
UndoRedoHistory
Layer: 1
Undoes
UndoOperation
Index: 0
Type: 1
WasModified: 0
WasOrder2: 0
Layer: 2
Width: 1258
VWidth: 0
LBearingChange: 0
UnicodeEnc: 0
InstructionsLength: 0
SplineSet
72 1266 m 5
 320 1266 l 5
 635 808 l 5
 931 1266 l 5
 1179 1266 l 5
 1179 0 l 5
 931 0 l 5
 931 839 l 5
 640 384 l 5
 320 856 l 5
 320 0 l 5
 72 0 l 5
 72 1266 l 5
EndSplineSet
EndUndoOperation
EndUndoes
Redoes
EndRedoes
EndUndoRedoHistory
Fore
SplineSet
72 1266 m 5
 320 1266 l 5
 635 808 l 5
 931 1266 l 5
 1179 1266 l 5
 1179 0 l 5
 931 0 l 5
 931 839 l 5
 640 384 l 5
 320 856 l 5
 320 0 l 5
 72 0 l 5
 72 1266 l 5
EndSplineSet
Validated: 1
EndChar

StartChar: N
Encoding: 78 78 13
Width: 1169
VWidth: 0
Flags: W
HStem: 0 21G<72 320 829.063 1090> 1246 20G<72 332.921 842 1090>
VStem: 72 248<0 807> 842 248<458 1266>
LayerCount: 2
UndoRedoHistory
Layer: 1
Undoes
UndoOperation
Index: 0
Type: 1
WasModified: 1
WasOrder2: 0
Layer: 2
Width: 1169
VWidth: 0
LBearingChange: 0
UnicodeEnc: 0
InstructionsLength: 0
SplineSet
72 1266.99609375 m 5
 320 1266.99609375 l 5
 842 458 l 1
 842 1266.99609375 l 5
 1090 1266.99609375 l 5
 1090 0 l 1
 842 0 l 1
 320 807 l 1
 320 0 l 1
 72 0 l 1
 72 1266.99609375 l 5
EndSplineSet
EndUndoOperation
EndUndoes
Redoes
EndRedoes
EndUndoRedoHistory
Fore
SplineSet
72 1265.99609375 m 5
 320 1265.99609375 l 5
 842 458 l 1
 842 1265.99609375 l 5
 1090 1265.99609375 l 5
 1090 0 l 1
 842 0 l 1
 320 807 l 1
 320 0 l 1
 72 0 l 1
 72 1265.99609375 l 5
EndSplineSet
Validated: 1
EndChar

StartChar: O
Encoding: 79 79 14
Width: 1256
VWidth: 0
Flags: W
HStem: -24 248<473.34 772.66> 1040 248<483.901 762.099>
VStem: 47 248<421.661 830.711> 951 248<421.661 830.711>
LayerCount: 2
UndoRedoHistory
Layer: 1
Undoes
UndoOperation
Index: 0
Type: 1
WasModified: 1
WasOrder2: 0
Layer: 2
Width: 1256
VWidth: 0
LBearingChange: 0
UnicodeEnc: 0
InstructionsLength: 0
SplineSet
623 1289 m 4
 953 1289 1199 980 1199 626 c 4
 1199 272 953 -23 623 -23 c 4
 293 -23 47 272 47 626 c 4
 47 980 293 1289 623 1289 c 4
623 1041 m 4
 453 1041 295 868 295 626 c 4
 295 384 453 225 623 225 c 4
 793 225 951 384 951 626 c 4
 951 868 793 1041 623 1041 c 4
EndSplineSet
EndUndoOperation
EndUndoes
Redoes
EndRedoes
EndUndoRedoHistory
Fore
SplineSet
623 1288 m 4
 953 1288 1199 979 1199 625 c 4
 1199 271 953 -24 623 -24 c 4
 293 -24 47 271 47 625 c 4
 47 979 293 1288 623 1288 c 4
623 1040 m 4
 453 1040 295 867 295 625 c 4
 295 383 453 224 623 224 c 4
 793 224 951 383 951 625 c 4
 951 867 793 1040 623 1040 c 4
EndSplineSet
Validated: 1
EndChar

StartChar: P
Encoding: 80 80 15
Width: 944
VWidth: 0
Flags: HW
LayerCount: 2
UndoRedoHistory
Layer: 1
Undoes
UndoOperation
Index: 0
Type: 1
WasModified: 0
WasOrder2: 0
Layer: 2
Width: 944
VWidth: 0
LBearingChange: 0
UnicodeEnc: 0
InstructionsLength: 0
SplineSet
72 1266 m 1
 520 1266 l 2
 738 1266 917 1087 917 869 c 0
 917 651 738 472 520 472 c 2
 320 472 l 1
 320 0 l 1
 72 0 l 1
 72 1266 l 1
320 1018 m 1
 320 720 l 1
 520 720 l 2
 604 720 669 785 669 869 c 0
 669 953 604 1018 520 1018 c 2
 320 1018 l 1
EndSplineSet
EndUndoOperation
EndUndoes
Redoes
EndRedoes
EndUndoRedoHistory
Fore
SplineSet
72 1266 m 1
 520 1266 l 2
 738 1266 917 1087 917 869 c 0
 917 651 738 472 520 472 c 2
 320 472 l 1
 320 0 l 1
 72 0 l 1
 72 1266 l 1
320 1018 m 1
 320 720 l 1
 520 720 l 2
 604 720 669 785 669 869 c 0
 669 953 604 1018 520 1018 c 2
 320 1018 l 1
EndSplineSet
Validated: 1
EndChar

StartChar: Q
Encoding: 81 81 16
Width: 1253
VWidth: 0
Flags: HW
LayerCount: 2
UndoRedoHistory
Layer: 1
Undoes
UndoOperation
Index: 0
Type: 1
WasModified: 1
WasOrder2: 0
Layer: 2
Width: 1253
VWidth: 0
LBearingChange: 0
UnicodeEnc: 0
InstructionsLength: 0
SplineSet
622 1287 m 4
 952 1287 1198 984 1198 630 c 4
 1198 420 1111 240 972 117 c 5
 1143 -224 l 5
 862 -224 l 5
 753 -2 l 5
 711 -13 667 -19 622 -19 c 4
 292 -19 46 276 46 630 c 4
 46 984 292 1287 622 1287 c 4
622 1039 m 4
 452 1039 294 872 294 630 c 4
 294 388 452 229 622 229 c 4
 792 229 950 388 950 630 c 4
 950 872 792 1039 622 1039 c 4
EndSplineSet
EndUndoOperation
EndUndoes
Redoes
EndRedoes
EndUndoRedoHistory
Fore
SplineSet
622 1286 m 4
 952 1286 1198 983 1198 629 c 4
 1198 419 1111 239 972 116 c 5
 1143 -225 l 5
 862 -225 l 5
 753 -3 l 5
 711 -14 667 -20 622 -20 c 4
 292 -20 46 275 46 629 c 4
 46 983 292 1286 622 1286 c 4
622 1038 m 4
 452 1038 294 871 294 629 c 4
 294 387 452 228 622 228 c 4
 792 228 950 387 950 629 c 4
 950 871 792 1038 622 1038 c 4
EndSplineSet
Validated: 1
EndChar

StartChar: R
Encoding: 82 82 17
Width: 1046
VWidth: 0
Flags: W
HStem: 474 248<320 445> 1017 248<320 618.797>
VStem: 72 248<4 474 722 1017> 669 248<764.94 970.398>
LayerCount: 2
UndoRedoHistory
Layer: 1
Undoes
UndoOperation
Index: 0
Type: 1
WasModified: 1
WasOrder2: 0
Layer: 2
Width: 1046
VWidth: 0
LBearingChange: 0
UnicodeEnc: 0
InstructionsLength: 0
SplineSet
72 1265 m 1
 520 1265 l 2
 738 1265 917 1086 917 868 c 0
 917 718 831 588 707 521 c 1
 1029 5 l 5
 741 5 l 5
 445 474 l 1
 320 474 l 1
 320 5 l 5
 72 5 l 5
 72 1265 l 1
320 1017 m 1
 320 722 l 1
 520 722 l 2
 604 722 669 784 669 868 c 0
 669 952 604 1017 520 1017 c 2
 320 1017 l 1
EndSplineSet
EndUndoOperation
EndUndoes
Redoes
EndRedoes
EndUndoRedoHistory
Fore
SplineSet
72 1265 m 1
 520 1265 l 2
 738 1265 917 1086 917 868 c 0
 917 718 831 588 707 521 c 1
 1029 4 l 5
 741 4 l 5
 445 474 l 1
 320 474 l 1
 320 4 l 5
 72 4 l 5
 72 1265 l 1
320 1017 m 1
 320 722 l 1
 520 722 l 2
 604 722 669 784 669 868 c 0
 669 952 604 1017 520 1017 c 2
 320 1017 l 1
EndSplineSet
Validated: 1
EndChar

StartChar: S
Encoding: 83 83 18
Width: 836
VWidth: 0
Flags: W
HStem: -14 246<311.133 514.446> 1031 248<342.853 510.573>
VStem: 74 249<830.713 1012.13> 561 248<280.544 508.414>
LayerCount: 2
UndoRedoHistory
Layer: 1
Undoes
UndoOperation
Index: 0
Type: 1
WasModified: 0
WasOrder2: 0
Layer: 2
Width: 860
VWidth: 0
LBearingChange: 0
UnicodeEnc: 0
InstructionsLength: 0
SplineSet
74 921 m 0
 74 1124 236 1279 418 1279 c 0
 549 1279 679 1210 744 1097 c 1
 673 1055 602 1011 531 969 c 1
 502 997 462 1031 418 1031 c 0
 360 1029 323 973 323 918 c 0
 323 897 328 876 339 859 c 1
 361 816 410 810 452 803 c 0
 640 782 809 622 809 397 c 0
 809 272 755 147 654 70 c 1
 586 14 500 -14 413 -14 c 0
 326 -14 239 14 171 69 c 0
 112 120 52 178 27 254 c 1
 89 274 152 295 214 315 c 0
 233 317 264 339 268 325 c 1
 299 276 355 232 414 232 c 0
 508 232 561 320 561 397 c 0
 561 436 549 474 522 504 c 1
 469 570 377 553 306 582 c 1
 166 631 74 775 74 921 c 0
EndSplineSet
EndUndoOperation
EndUndoes
Redoes
EndRedoes
EndUndoRedoHistory
Fore
SplineSet
74 921 m 0
 74 1124 236 1279 418 1279 c 0
 549 1279 679 1210 744 1097 c 1
 673 1055 602 1011 531 969 c 1
 502 997 462 1031 418 1031 c 0
 360 1029 323 973 323 918 c 0
 323 897 328 876 339 859 c 1
 361 816 410 810 452 803 c 0
 640 782 809 622 809 397 c 0
 809 272 755 147 654 70 c 1
 586 14 500 -14 413 -14 c 0
 326 -14 239 14 171 69 c 0
 112 120 52 178 27 254 c 1
 89 274 152 295 214 315 c 0
 233 317 264 339 268 325 c 1
 299 276 355 232 414 232 c 0
 508 232 561 320 561 397 c 0
 561 436 549 474 522 504 c 1
 469 570 377 553 306 582 c 1
 166 631 74 775 74 921 c 0
EndSplineSet
Validated: 1
EndChar

StartChar: U
Encoding: 85 85 19
Width: 1096
VWidth: 0
Flags: HW
LayerCount: 2
UndoRedoHistory
Layer: 1
Undoes
UndoOperation
Index: 0
Type: 1
WasModified: 1
WasOrder2: 0
Layer: 2
Width: 1096
VWidth: 0
LBearingChange: 0
UnicodeEnc: 0
InstructionsLength: 0
SplineSet
544 -14 m 0
 249 -14 62 252 62 514 c 2
 62 1262 l 5
 310 1262 l 5
 310 514 l 2
 310 408 361 314 433 267 c 0
 469 244 506 232 544 232 c 0
 582 232 619 244 655 267 c 0
 727 314 777 408 777 514 c 2
 777 1262 l 5
 1026 1262 l 5
 1026 511 l 1
 1024 250 838 -14 544 -14 c 0
EndSplineSet
EndUndoOperation
EndUndoes
Redoes
EndRedoes
EndUndoRedoHistory
Fore
SplineSet
544 -14 m 0
 249 -14 62 252 62 514 c 2
 62 1263 l 5
 310 1263 l 5
 310 514 l 2
 310 408 361 314 433 267 c 0
 469 244 506 232 544 232 c 0
 582 232 619 244 655 267 c 0
 727 314 777 408 777 514 c 2
 777 1263 l 5
 1026 1263 l 5
 1026 511 l 1
 1024 250 838 -14 544 -14 c 0
EndSplineSet
Validated: 1
EndChar

StartChar: T
Encoding: 84 84 20
Width: 1002
VWidth: 0
Flags: W
HStem: 0 21G<376 624> 1018 248<40 376 624 959>
VStem: 376 248<0 1018>
LayerCount: 2
UndoRedoHistory
Layer: 1
Undoes
UndoOperation
Index: 0
Type: 1
WasModified: 0
WasOrder2: 0
Layer: 2
Width: 1002
VWidth: 0
LBearingChange: 0
UnicodeEnc: 0
InstructionsLength: 0
SplineSet
40 1266 m 5
 959 1266 l 5
 959 1018 l 5
 624 1018 l 5
 624 0 l 5
 376 0 l 5
 376 1018 l 5
 40 1018 l 5
 40 1266 l 5
EndSplineSet
EndUndoOperation
EndUndoes
Redoes
EndRedoes
EndUndoRedoHistory
Fore
SplineSet
40 1266 m 5
 959 1266 l 5
 959 1018 l 5
 624 1018 l 5
 624 0 l 5
 376 0 l 5
 376 1018 l 5
 40 1018 l 5
 40 1266 l 5
EndSplineSet
Validated: 1
EndChar

StartChar: V
Encoding: 86 86 21
Width: 1160
VWidth: 0
Flags: W
HStem: 0 21G<449.202 708.83>
LayerCount: 2
UndoRedoHistory
Layer: 1
Undoes
UndoOperation
Index: 0
Type: 1
WasModified: 1
WasOrder2: 0
Layer: 2
Width: 1160
VWidth: 0
LBearingChange: 0
UnicodeEnc: 0
InstructionsLength: 0
SplineSet
26 1265.99609375 m 5
 291 1265.99609375 l 5
 585 356 l 1
 869 1265.99609375 l 5
 1134 1265.99609375 l 5
 702 0 l 1
 456 0 l 1
 26 1265.99609375 l 5
EndSplineSet
EndUndoOperation
EndUndoes
Redoes
EndRedoes
EndUndoRedoHistory
Fore
SplineSet
26 1264.99609375 m 5
 291 1264.99609375 l 5
 585 356 l 1
 869 1264.99609375 l 5
 1134 1264.99609375 l 5
 702 0 l 1
 456 0 l 1
 26 1264.99609375 l 5
EndSplineSet
Validated: 1
EndChar

StartChar: W
Encoding: 87 87 22
Width: 1309
VWidth: 0
Flags: W
HStem: 0 21G<230.793 483.109 823.861 1076.19> 1246 20G<31 265.35 1040.65 1275>
LayerCount: 2
UndoRedoHistory
Layer: 1
Undoes
UndoOperation
Index: 0
Type: 1
WasModified: 0
WasOrder2: 0
Layer: 2
Width: 1309
VWidth: 0
LBearingChange: 0
UnicodeEnc: 0
InstructionsLength: 0
SplineSet
262 1266 m 5
 395 472 l 5
 530 1155 l 5
 772 1155 l 5
 911 472 l 5
 1044 1266 l 5
 1275 1266 l 5
 1073 0 l 5
 829 0 l 5
 653 685 l 5
 478 0 l 5
 234 0 l 5
 31 1266 l 5
 262 1266 l 5
EndSplineSet
EndUndoOperation
EndUndoes
Redoes
EndRedoes
EndUndoRedoHistory
Fore
SplineSet
262 1266 m 5
 395 472 l 5
 530 1155 l 5
 772 1155 l 5
 911 472 l 5
 1044 1266 l 5
 1275 1266 l 5
 1073 0 l 5
 829 0 l 5
 653 685 l 5
 478 0 l 5
 234 0 l 5
 31 1266 l 5
 262 1266 l 5
EndSplineSet
Validated: 1
EndChar

StartChar: X
Encoding: 88 88 23
Width: 1161
VWidth: 0
Flags: W
HStem: 0 21G<26 361.5 800.5 1132> 1247 20G<84 392.5 801 1134>
LayerCount: 2
UndoRedoHistory
Layer: 1
Undoes
UndoOperation
Index: 0
Type: 1
WasModified: 1
WasOrder2: 0
Layer: 2
Width: 1161
VWidth: 0
LBearingChange: 0
UnicodeEnc: 0
InstructionsLength: 0
SplineSet
843 1268 m 5
 1134 1268 l 5
 1001 1052 869 859 736 643 c 1
 868 429 1000 214 1132 0 c 1
 844 0 l 1
 757 145 671 289 584 434 c 1
 495 289 406 145 317 0 c 1
 26 0 l 1
 164 224 302 449 440 673 c 1
 321 871 203 1070 84 1268 c 5
 353 1268 l 5
 432 1139 511 1009 590 880 c 1
 674 1017 759 1131 843 1268 c 5
EndSplineSet
EndUndoOperation
EndUndoes
Redoes
EndRedoes
EndUndoRedoHistory
Fore
SplineSet
843 1267 m 5
 1134 1267 l 5
 1001 1051 869 859 736 643 c 1
 868 429 1000 214 1132 0 c 1
 844 0 l 1
 757 145 671 289 584 434 c 1
 495 289 406 145 317 0 c 1
 26 0 l 1
 164 224 302 449 440 673 c 1
 321 871 203 1069 84 1267 c 5
 353 1267 l 5
 432 1138 511 1009 590 880 c 1
 674 1017 759 1130 843 1267 c 5
EndSplineSet
Validated: 1
EndChar

StartChar: Y
Encoding: 89 89 24
Width: 1035
VWidth: 0
Flags: W
HStem: 0 21G<392 641> 1246 20G<26 321.6 688 1008>
VStem: 392 249<0 639.344>
LayerCount: 2
UndoRedoHistory
Layer: 1
Undoes
UndoOperation
Index: 0
Type: 1
WasModified: 0
WasOrder2: 0
Layer: 2
Width: 1035
VWidth: 0
LBearingChange: 0
UnicodeEnc: 0
InstructionsLength: 0
SplineSet
26 1266 m 5
 312 1266 l 5
 516 841 l 5
 584 965 654 1142 722 1266 c 5
 1008 1266 l 5
 896 1051 753 782 641 567 c 5
 641 0 l 5
 392 0 l 5
 392 567 l 5
 270 782 148 1051 26 1266 c 5
EndSplineSet
EndUndoOperation
EndUndoes
Redoes
EndRedoes
EndUndoRedoHistory
Fore
SplineSet
26 1266 m 5
 312 1266 l 5
 516 841 l 5
 584 965 654 1142 722 1266 c 5
 1008 1266 l 5
 896 1051 753 782 641 567 c 5
 641 0 l 5
 392 0 l 5
 392 567 l 5
 270 782 148 1051 26 1266 c 5
EndSplineSet
Validated: 1
EndChar

StartChar: Z
Encoding: 90 90 25
Width: 961
VWidth: 0
Flags: W
HStem: 0 248<376 890> 1018 248<71 585>
LayerCount: 2
UndoRedoHistory
Layer: 1
Undoes
UndoOperation
Index: 0
Type: 1
WasModified: 0
WasOrder2: 0
Layer: 2
Width: 961
VWidth: 0
LBearingChange: 0
UnicodeEnc: 0
InstructionsLength: 0
SplineSet
71 1266 m 5
 915 1266 l 5
 915 1018 l 5
 735 761 556 505 376 248 c 5
 890 248 l 5
 890 0 l 5
 46 0 l 5
 46 248 l 5
 226 505 405 761 585 1018 c 5
 71 1018 l 5
 71 1266 l 5
EndSplineSet
EndUndoOperation
EndUndoes
Redoes
EndRedoes
EndUndoRedoHistory
Fore
SplineSet
71 1266 m 5
 915 1266 l 5
 915 1018 l 5
 735 761 556 505 376 248 c 5
 890 248 l 5
 890 0 l 5
 46 0 l 5
 46 248 l 5
 226 505 405 761 585 1018 c 5
 71 1018 l 5
 71 1266 l 5
EndSplineSet
Validated: 1
EndChar

StartChar: a
Encoding: 97 97 26
Width: 953
VWidth: 0
Flags: W
HStem: -35 177<310.14 631.741> 385 176<384.305 633> 639 200<310.875 598.5>
VStem: 42 257<156.463 314.239> 633 245<157.824 385>
LayerCount: 2
UndoRedoHistory
Layer: 1
Undoes
UndoOperation
Index: 0
Type: 1
WasModified: 1
WasOrder2: 0
Layer: 2
Width: 953
VWidth: 0
LBearingChange: 0
UnicodeEnc: 0
InstructionsLength: 0
SplineSet
879 392 m 0
 879 350 878 324 878 275 c 0
 878 179 883 46 909 -2 c 1
 909 -2 716 -4 693 -4 c 0
 688 -2 688 17 682 21 c 1
 682 21 661 22 655 20 c 0
 653 18 645 3 645 -4 c 1
 568 -11 484 -35 400 -35 c 0
 229 -35 42 26 42 206 c 0
 42 292 88 380 145 429 c 0
 255 524 385 561 572 561 c 2
 633 551 l 1
 602 611 534 639 447 639 c 0
 385 639 322 624 287 569 c 1
 84 602 l 1
 117 763 266 839 450 839 c 0
 587 839 717 801 790 721 c 0
 862 639 879 512 879 392 c 0
401 142 m 0
 518.024414062 142 633 156.3359375 633 174 c 1
 633 384 l 5
 513 375 299 364 299 227 c 0
 299 165 350 142 401 142 c 0
EndSplineSet
EndUndoOperation
EndUndoes
Redoes
EndRedoes
EndUndoRedoHistory
Fore
SplineSet
879 392 m 0
 879 350 878 324 878 275 c 0
 878 179 883 46 909 -2 c 1
 909 -2 716 -4 693 -4 c 0
 688 -2 688 17 682 21 c 1
 682 21 661 22 655 20 c 0
 653 18 645 3 645 -4 c 1
 568 -11 484 -35 400 -35 c 0
 229 -35 42 26 42 206 c 0
 42 292 88 380 145 429 c 0
 255 524 385 561 572 561 c 2
 633 551 l 1
 602 611 534 639 447 639 c 0
 385 639 322 624 287 569 c 1
 84 602 l 1
 117 763 266 839 450 839 c 0
 587 839 717 801 790 721 c 0
 862 639 879 512 879 392 c 0
401 142 m 0
 518.024414062 142 633 156.3359375 633 174 c 1
 633 385 l 5
 513 376 299 364 299 227 c 0
 299 165 350 142 401 142 c 0
EndSplineSet
Validated: 1
EndChar

StartChar: b
Encoding: 98 98 27
Width: 978
VWidth: 0
Flags: HW
HStem: 0 21G<62.543 309.82> 1264.28 20G<62.543 309.82>
VStem: 62.543 247.277<0 73.752 790.177 1284.28> 62.543 224.178<299.12 558.56> 706.945 236.512<299.923 556.916>
LayerCount: 2
UndoRedoHistory
Layer: 1
Undoes
UndoOperation
Index: 0
Type: 1
WasModified: 0
WasOrder2: 0
Layer: 2
Width: 978
VWidth: 0
LBearingChange: 0
UnicodeEnc: 0
InstructionsLength: 0
SplineSet
62.54296875 1284.27929688 m 1xe8
 309.8203125 1284.27929688 l 1
 309.8203125 790.176757812 l 1
 325.221679688 805.830078125 348.484375 824.213867188 375.41796875 840.326171875 c 0
 461.44921875 891.015625 557.866210938 887.515625 656.227539062 851.70703125 c 0
 823.529296875 787.508789062 943.45703125 624.696289062 943.45703125 435.82421875 c 0
 943.45703125 247.741210938 824.528320312 85.5009765625 658.321289062 20.7529296875 c 0
 575.359375 -10.9052734375 470.84375 -21.9775390625 380.859375 19.431640625 c 0
 348.784179688 34.337890625 321.892578125 53.6220703125 309.8203125 73.751953125 c 1
 309.8203125 0 l 1
 62.54296875 0 l 1
 62.54296875 1284.27929688 l 1xe8
496.83203125 638.951171875 m 0
 380.791015625 638.951171875 286.720703125 544.880859375 286.720703125 428.83984375 c 0xd8
 286.720703125 312.798828125 380.791015625 218.728515625 496.83203125 218.728515625 c 0
 612.874023438 218.727539062 706.9453125 312.797851562 706.9453125 428.83984375 c 0
 706.9453125 544.881835938 612.874023438 638.952148438 496.83203125 638.951171875 c 0
EndSplineSet
EndUndoOperation
EndUndoes
Redoes
EndRedoes
EndUndoRedoHistory
Fore
SplineSet
62.54296875 1284.27929688 m 1xe8
 309.8203125 1284.27929688 l 1
 309.8203125 790.176757812 l 1
 325.221679688 805.830078125 348.484375 824.213867188 375.41796875 840.326171875 c 0
 420.404599025 866.832211094 468.23105705 878.52094502 517.690372774 878.52094502 c 0
 562.815753212 878.52094502 609.30036657 868.790941031 656.227539062 851.70703125 c 0
 823.529296875 787.508789062 943.45703125 624.696289062 943.45703125 435.82421875 c 0
 943.45703125 247.741210938 824.528320312 85.5009765625 658.321289062 20.7529296875 c 0
 613.385184882 3.60534660829 562.125612151 -7.50269512583 510.276815318 -7.50269512583 c 0
 466.401349767 -7.50269512583 422.103948185 0.451635016951 380.859375 19.431640625 c 0
 348.784179688 34.337890625 321.892578125 53.6220703125 309.8203125 73.751953125 c 1
 309.8203125 0 l 1
 62.54296875 0 l 1
 62.54296875 1284.27929688 l 1xe8
286.720703125 428.83984375 m 0xd8
 286.720703125 312.798828125 380.791015625 218.728515625 496.83203125 218.728515625 c 0
 496.833838216 218.728515617 l 0
 612.875 218.728515617 706.9453125 312.798453885 706.9453125 428.83984375 c 0
 706.9453125 544.881233615 612.875 638.951171883 496.833838216 638.951171883 c 0
 380.791568529 638.950683598 286.720703125 544.88234113 286.720703125 428.83984375 c 0xd8
EndSplineSet
Validated: 1
EndChar

StartChar: c
Encoding: 99 99 28
Width: 869
VWidth: 0
Flags: W
HStem: -22.0996 235.885<369.997 655.605> 591.965 235.885<366.034 618.969>
VStem: 47 247<284.532 519.173>
LayerCount: 2
UndoRedoHistory
Layer: 1
Undoes
UndoOperation
Index: 0
Type: 1
WasModified: 1
WasOrder2: 0
Layer: 2
Width: 869
VWidth: 0
LBearingChange: 0
UnicodeEnc: 0
InstructionsLength: 0
SplineSet
492 -23.099609375 m 4
 225 -23.099609375 47 185.08984375 47 401.875 c 4
 47 596.6953125 182 759.044921875 369 810.615234375 c 4
 410 822.075195312 451 826.849609375 492 826.849609375 c 4
 641 826.849609375 775 758.08984375 859 642.53515625 c 5
 655 508.834960938 l 5
 617 561.360351562 557 590.96484375 493 590.96484375 c 4
 375 590.96484375 294 502.150390625 294 401.875 c 4
 294 305.419921875 374 212.78515625 493 212.78515625 c 4
 551 212.78515625 606 236.66015625 645 281.544921875 c 5
 836 131.610351562 l 5
 750 31.3349609375 623 -23.099609375 492 -23.099609375 c 4
EndSplineSet
EndUndoOperation
EndUndoes
Redoes
EndRedoes
EndUndoRedoHistory
Fore
SplineSet
492 -22.099609375 m 4
 225 -22.099609375 47 186.08984375 47 402.875 c 4
 47 597.6953125 182 760.044921875 369 811.615234375 c 4
 410 823.075195312 451 827.849609375 492 827.849609375 c 4
 641 827.849609375 775 759.08984375 859 643.53515625 c 5
 655 509.834960938 l 5
 617 562.360351562 557 591.96484375 493 591.96484375 c 4
 375 591.96484375 294 503.150390625 294 402.875 c 4
 294 306.419921875 374 213.78515625 493 213.78515625 c 4
 551 213.78515625 606 237.66015625 645 282.544921875 c 5
 836 132.610351562 l 5
 750 32.3349609375 623 -22.099609375 492 -22.099609375 c 4
EndSplineSet
Validated: 1
EndChar

StartChar: d
Encoding: 100 100 29
Width: 978
VWidth: 0
Flags: HW
LayerCount: 2
UndoRedoHistory
Layer: 1
Undoes
UndoOperation
Index: 0
Type: 1
WasModified: 1
WasOrder2: 0
Layer: 2
Width: 978
VWidth: 0
LBearingChange: 0
UnicodeEnc: 0
InstructionsLength: 0
SplineSet
947.45703125 1288.27929688 m 5xe8
 947.45703125 4 l 5
 700.1796875 4 l 5
 700.1796875 77.751953125 l 5
 688.107421875 57.6220703125 661.215820312 38.337890625 629.140625 23.431640625 c 4
 587.896051815 4.45163501695 543.598650233 -3.50269512583 499.723184682 -3.50269512583 c 0
 447.874387848 -3.50269512583 396.614815118 7.60534660829 351.678710938 24.7529296875 c 4
 185.471679688 89.5009765625 66.54296875 251.741210938 66.54296875 439.82421875 c 4
 66.54296875 628.696289062 186.470703125 791.508789062 353.772460938 855.70703125 c 4
 400.69963343 872.790941031 447.184246788 882.52094502 492.309627226 882.52094502 c 0
 541.768942951 882.52094502 589.595400975 870.832211094 634.58203125 844.326171875 c 4
 661.515625 828.213867188 684.778320312 809.830078125 700.1796875 794.176757812 c 5
 700.1796875 1288.27929688 l 5
 947.45703125 1288.27929688 l 5xe8
513.16796875 642.951171875 m 4
 513.166161785 642.951171883 l 0
 397.125000001 642.951171883 303.0546875 548.881233615 303.0546875 432.83984375 c 4
 303.0546875 316.798453885 397.125000001 222.728515617 513.166161785 222.728515617 c 0
 513.16796875 222.728515625 l 4
 629.208984375 222.728515625 723.279296875 316.798828125 723.279296875 432.83984375 c 4xd8
 723.279296875 548.880859375 629.208984375 642.951171875 513.16796875 642.951171875 c 4
EndSplineSet
EndUndoOperation
EndUndoes
Redoes
EndRedoes
EndUndoRedoHistory
Fore
SplineSet
947 1288 m 5xe8
 947 4 l 5
 700 4 l 5
 700 78 l 5
 688 58 661 38 629 23 c 4
 588 4 543.598650233 -3.50269512583 499.723184682 -3.50269512583 c 0
 447.874387848 -3.50269512583 397 8 352 25 c 4
 186 90 67 252 67 440 c 4
 67 629 187 792 354 856 c 4
 401 873 447.184246788 882.52094502 492.309627226 882.52094502 c 0
 541.768942951 882.52094502 590 871 635 844 c 4
 662 828 685 810 700 794 c 5
 700 1288 l 5
 947 1288 l 5xe8
513 643 m 4
 513.166161785 642.951171883 l 0
 397.125000001 642.951171883 303 549 303 433 c 4
 303 317 397.125000001 222.728515617 513.166161785 222.728515617 c 0
 513 223 l 4
 629 223 723 317 723 433 c 4xd8
 723 549 629 643 513 643 c 4
EndSplineSet
Validated: 1
EndChar

StartChar: e
Encoding: 101 101 30
Width: 992
VWidth: 0
Flags: HW
HStem: -46 228<381.851 660.881> 355 157<321 663> 649 201<383.998 610.7>
LayerCount: 2
UndoRedoHistory
Layer: 1
Undoes
UndoOperation
Index: 0
Type: 1
WasModified: 1
WasOrder2: 0
Layer: 2
Width: 992
VWidth: 0
LBearingChange: 0
UnicodeEnc: 0
InstructionsLength: 0
SplineSet
516 -46 m 4
 236 -46 47 169 47 403 c 4
 47 437 51 472 59 507 c 4
 105 700 278 850 492 850 c 4
 757 850 937 635 937 403 c 4
 937 387 938 371 938 355 c 5
 300 355 l 5
 323 252 404 182 528 182 c 4
 598 182 669 209 702 275 c 5
 926 177 l 5
 854 33 689 -46 516 -46 c 4
663 512 m 5
 663 544 620 649 492 649 c 4
 387 649 322 543 321 512 c 5
 663 512 l 5
EndSplineSet
EndUndoOperation
EndUndoes
Redoes
EndRedoes
EndUndoRedoHistory
Fore
SplineSet
516 -23.599609375 m 0
 236 -23.599609375 47 180.650390625 47 402.950195312 c 0
 47 435.25 51 468.5 59 501.75 c 0
 105 685.099609375 278 827.599609375 492 827.599609375 c 0
 757 827.599609375 937 623.349609375 937 402.950195312 c 0
 937 387.75 938 372.549804688 938 357.349609375 c 1
 300 357.349609375 l 1
 323 259.5 404 193 528 193 c 0
 598 193 669 218.650390625 702 281.349609375 c 1
 926 188.25 l 1
 854 51.4501953125 689 -23.599609375 516 -23.599609375 c 0
663 506.5 m 1
 663 536.900390625 620 636.650390625 492 636.650390625 c 0
 387 636.650390625 322 535.950195312 321 506.5 c 1
 663 506.5 l 1
EndSplineSet
Validated: 1
EndChar

StartChar: f
Encoding: 102 102 31
Width: 697
VWidth: 0
Flags: W
HStem: 0 21G<164 411> 564 201<47 164 411 588> 1034 215.252<412.767 452 452.168 522.834>
VStem: 164 247<0 564 765 1033.77>
LayerCount: 2
UndoRedoHistory
Layer: 1
Undoes
UndoOperation
Index: 0
Type: 1
WasModified: 1
WasOrder2: 0
Layer: 2
Width: 697
VWidth: 0
LBearingChange: 0
UnicodeEnc: 0
InstructionsLength: 0
SplineSet
440.181547312 1249.2516896 m 0
 542.51447799 1249.2516896 659 1192 728 1071 c 1
 540 964 l 1
 505 1025 480.810097828 1033.63949548 452.168481125 1033.63949548 c 1
 452 1034 l 1
 426 1034 410.937488128 1021.8454072 410.937488128 957.331742008 c 0
 410.937488128 954.886632407 411 953 411 950 c 6
 411 765 l 1
 588 765 l 1
 588 564 l 1
 411 564 l 1
 411 0 l 1
 164 0 l 1
 164 564 l 1
 47 564 l 1
 47 765 l 1
 164 765 l 1
 164 830 164 895 164 960 c 0
 164 1088 237 1244 417 1248 c 0
 425 1249 432.334689585 1249.2516896 440.181547312 1249.2516896 c 0
EndSplineSet
EndUndoOperation
EndUndoes
Redoes
EndRedoes
EndUndoRedoHistory
Fore
SplineSet
440.181547312 1249.2516896 m 0
 542.51447799 1249.2516896 659 1192 728 1071 c 5
 540 964 l 1
 505 1025 480.810097828 1033.63949548 452.168481125 1033.63949548 c 1
 452 1034 l 1
 426 1034 410.937488128 1021.8454072 410.937488128 957.331742008 c 0
 410.937488128 954.886632407 411 918 411 915 c 2
 411 765 l 1
 588 765 l 1
 588 564 l 1
 411 564 l 1
 411 0 l 1
 164 0 l 1
 164 564 l 1
 47 564 l 1
 47 765 l 1
 164 765 l 1
 164 830 164 895 164 960 c 0
 164 1088 237 1244 417 1248 c 0
 425 1249 432.334689585 1249.2516896 440.181547312 1249.2516896 c 0
EndSplineSet
Validated: 1
EndChar

StartChar: g
Encoding: 103 103 32
Width: 1013
VWidth: 0
Flags: HW
HStem: -445.824 221.236<374.64 634.634> -38.1895 227.932<394.744 635.104> 584.646 233.354<394.744 635.775>
VStem: 71.7539 246.65<-170.598 -121.01 265.313 504.714> 693.959 247.277<-166.037 -1.05469 766.859 828.074> 714.666 226.57<267.085 505.901>
LayerCount: 2
UndoRedoHistory
Layer: 1
Undoes
UndoOperation
Index: 0
Type: 1
WasModified: 0
WasOrder2: 0
Layer: 2
Width: 1013
VWidth: 0
LBearingChange: 0
UnicodeEnc: 0
InstructionsLength: 0
SplineSet
693.958984375 828.07421875 m 1xf8
 941.236328125 828.07421875 l 1
 941.236328125 -100.01171875 l 6
 942.364257812 -247.58984375 845.086914062 -352.64453125 717.416015625 -405.3359375 c 4
 653.580078125 -431.681640625 585.4375 -445.16796875 517.1171875 -445.82421875 c 4
 448.796875 -446.48046875 380.301757812 -434.301757812 315.78125 -409.33984375 c 4
 186.739257812 -359.415039062 96.302734375 -257.706054688 80.1171875 -121.009765625 c 5
 327.39453125 -121.009765625 l 5
 332.015625 -175.41015625 449.073242188 -225.302734375 516.84375 -224.587890625 c 4
 586.044921875 -223.857421875 655.18359375 -177.8515625 693.958984375 -119.40625 c 5
 693.958984375 -1.0546875 l 1
 639.579101562 -24.9140625 579.655273438 -38.189453125 516.84375 -38.189453125 c 0
 272.489257812 -38.189453125 71.75390625 128.546875 71.75390625 372.900390625 c 0
 71.75390625 617.25390625 272.489257812 818 516.84375 818 c 0
 579.65625 818 650.91015625 799.499023438 693.958984375 766.859375 c 1
 693.958984375 828.07421875 l 1xf8
515.85546875 584.646484375 m 0
 406.862304688 584.646484375 318.404296875 496.1875 318.404296875 387.1953125 c 0
 318.404296875 387.194335938 318.404296875 387.193359375 318.404296875 387.193359375 c 0
 318.404296875 278.200195312 406.862304688 189.7421875 515.85546875 189.7421875 c 0
 602.8515625 189.8203125 689.046875 258.747070312 708.255859375 343.595703125 c 0
 712.4375 357.706054688 714.666015625 372.2578125 714.666015625 386.900390625 c 0xf4
 714.666015625 402.876953125 712.146484375 418.84375 707.38671875 434.328125 c 0
 687.012695312 517.211914062 601.20703125 584.5546875 515.85546875 584.646484375 c 0
EndSplineSet
EndUndoOperation
EndUndoes
Redoes
EndRedoes
EndUndoRedoHistory
Fore
SplineSet
693.958984375 828.07421875 m 1xf8
 941.236328125 828.07421875 l 1
 941.236328125 -100.01171875 l 6
 941.242805192 -100.859177021 941.246037286 -101.705233056 941.246037286 -102.549884993 c 0
 941.246037286 -248.794657153 844.35377181 -352.947108397 717.416015625 -405.3359375 c 4
 653.580078125 -431.681640625 585.4375 -445.16796875 517.1171875 -445.82421875 c 4
 515.370492804 -445.840996606 513.623683849 -445.849385102 511.876829977 -445.849385102 c 0
 445.297145342 -445.849385102 378.6522099 -433.663575091 315.78125 -409.33984375 c 4
 186.739257812 -359.415039062 96.302734375 -257.706054688 80.1171875 -121.009765625 c 5
 327.39453125 -121.009765625 l 5
 331.982882223 -175.02470208 447.420062629 -224.595479968 515.39581969 -224.595479968 c 0
 515.880899202 -224.595479968 516.363561815 -224.592955653 516.84375 -224.587890625 c 4
 586.044921875 -223.857421875 655.18359375 -177.8515625 693.958984375 -119.40625 c 5
 693.958984375 -1.0546875 l 1
 639.579101562 -24.9140625 579.655273438 -38.189453125 516.84375 -38.189453125 c 0
 272.489257812 -38.189453125 71.75390625 128.546875 71.75390625 372.900390625 c 0
 71.75390625 617.25390625 272.489257812 818 516.84375 818 c 0
 579.65625 818 650.91015625 799.499023438 693.958984375 766.859375 c 1
 693.958984375 828.07421875 l 1xf8
515.85546875 584.646484375 m 0
 406.862304688 584.646484375 318.404296875 496.1875 318.404296875 387.1953125 c 0
 318.404296875 387.194335938 318.404296875 387.193359375 318.404296875 387.193359375 c 0
 318.404296875 278.200195312 406.862304688 189.7421875 515.85546875 189.7421875 c 0
 602.8515625 189.8203125 689.046875 258.747070312 708.255859375 343.595703125 c 0
 712.4375 357.706054688 714.666015625 372.2578125 714.666015625 386.900390625 c 0xf4
 714.666015625 402.876953125 712.146484375 418.84375 707.38671875 434.328125 c 0
 687.012695312 517.211914062 601.20703125 584.5546875 515.85546875 584.646484375 c 0
EndSplineSet
Validated: 1
EndChar

StartChar: h
Encoding: 104 104 33
Width: 960
VWidth: 0
Flags: HW
HStem: -1 21G<72 319> 604 237<369.924 588.572> 1247 20G<72 319>
VStem: 72 247<-1 550.705 798 1267> 648 247<2 540.474>
LayerCount: 2
UndoRedoHistory
Layer: 1
Undoes
UndoOperation
Index: 0
Type: 1
WasModified: 1
WasOrder2: 0
Layer: 2
Width: 960
VWidth: 0
LBearingChange: 0
UnicodeEnc: 0
InstructionsLength: 0
SplineSet
482 602 m 0
 371 602 319 558 319 436 c 2
 319 -1 l 1
 72 -1 l 1
 72 1255 l 5
 319 1255 l 5
 319 766 l 1
 374 807 444 829 508 829 c 0
 570 829 631 814 686 781 c 0
 802 711 895 588 895 455 c 2
 895 2 l 1
 648 2 l 1
 648 418 l 2
 648 485 591 602 482 602 c 0
EndSplineSet
EndUndoOperation
EndUndoes
Redoes
EndRedoes
EndUndoRedoHistory
Fore
SplineSet
482 602 m 0
 371 602 319 558 319 436 c 2
 319 -1 l 1
 72 -1 l 1
 72 1266 l 5
 319 1266 l 5
 319 766 l 1
 374 807 444 829 508 829 c 0
 570 829 631 814 686 781 c 0
 802 711 895 588 895 455 c 2
 895 2 l 1
 648 2 l 1
 648 418 l 2
 648 485 591 602 482 602 c 0
EndSplineSet
Validated: 1
EndChar

StartChar: i
Encoding: 105 105 34
Width: 393
VWidth: 0
Flags: W
HStem: 0 21G<70 317> 790 20G<70 317> 919 277<93.2979 294.179>
VStem: 55 277<956.821 1157.7> 70 247<0 810>
LayerCount: 2
UndoRedoHistory
Layer: 1
Undoes
UndoOperation
Index: 0
Type: 1
WasModified: 0
WasOrder2: 0
Layer: 2
Width: 393
VWidth: 0
LBearingChange: 0
UnicodeEnc: 0
InstructionsLength: 0
SplineSet
194 1196 m 0
 271 1196 332 1134 332 1057 c 0
 332 980 271 919 194 919 c 0
 117 919 55 980 55 1057 c 0
 55 1134 117 1196 194 1196 c 0
70 810 m 5
 317 810 l 5
 317 0 l 5
 70 0 l 5
 70 810 l 5
EndSplineSet
EndUndoOperation
EndUndoes
Redoes
EndRedoes
EndUndoRedoHistory
Fore
SplineSet
194 1196 m 0xf0
 271 1196 332 1134 332 1057 c 0
 332 980 271 919 194 919 c 0
 117 919 55 980 55 1057 c 0
 55 1134 117 1196 194 1196 c 0xf0
70 810 m 5xe8
 317 810 l 5
 317 0 l 5
 70 0 l 5
 70 810 l 5xe8
EndSplineSet
Validated: 1
EndChar

StartChar: j
Encoding: 106 106 35
Width: 598
VWidth: 0
Flags: W
HStem: -434 248<13.2894 168.86> 791 20G<182 429> 927 278<205.821 406.702>
VStem: 168 277<965.298 1166.7> 182 247<-165.175 811>
LayerCount: 2
UndoRedoHistory
Layer: 1
Undoes
UndoOperation
Index: 0
Type: 1
WasModified: 1
WasOrder2: 0
Layer: 2
Width: 598
VWidth: 0
LBearingChange: 0
UnicodeEnc: 0
InstructionsLength: 0
SplineSet
446 1066 m 4
 446 989 384 927 307 927 c 4
 230 927 169 989 169 1066 c 4
 169 1143 230 1205 307 1205 c 4
 384 1205 446 1143 446 1066 c 4
183 811 m 5
 430 811 l 5
 430 -108 l 5
 425 -286 263 -434 74 -434 c 4
 27 -434 -21 -425 -69 -405 c 5
 25 -177 l 5
 40 -183 56 -186 72 -186 c 4
 129 -186 183 -153 183 -105 c 6
 183 811 l 5
EndSplineSet
EndUndoOperation
EndUndoes
Redoes
EndRedoes
EndUndoRedoHistory
Fore
SplineSet
445 1066 m 4xf0
 445 989 383 927 306 927 c 4
 229 927 168 989 168 1066 c 4
 168 1143 229 1205 306 1205 c 4
 383 1205 445 1143 445 1066 c 4xf0
182 811 m 5xe8
 429 811 l 5
 429 -108 l 5
 424 -286 262 -434 73 -434 c 4
 26 -434 -22 -425 -70 -405 c 5
 24 -177 l 5
 39 -183 55 -186 71 -186 c 4
 128 -186 182 -153 182 -105 c 6
 182 811 l 5xe8
EndSplineSet
Validated: 1
EndChar

StartChar: k
Encoding: 107 107 36
Width: 898
VWidth: 0
Flags: W
HStem: 0 21G<570.954 871> 791 20G<517.232 818> 1245 20G<72 319>
VStem: 72 247<-2 348 574 1265>
LayerCount: 2
UndoRedoHistory
Layer: 1
Undoes
UndoOperation
Index: 0
Type: 1
WasModified: 0
WasOrder2: 0
Layer: 2
Width: 898
VWidth: 0
LBearingChange: 0
UnicodeEnc: 0
InstructionsLength: 0
SplineSet
72 1265 m 5
 319 1265 l 5
 319 574 l 5
 357 574 l 5
 532 811 l 5
 818 811 l 5
 561 454 l 5
 871 0 l 5
 584 0 l 5
 357 348 l 5
 319 348 l 5
 319 -2 l 5
 72 -2 l 5
 72 1265 l 5
EndSplineSet
EndUndoOperation
EndUndoes
Redoes
EndRedoes
EndUndoRedoHistory
Fore
SplineSet
72 1265 m 5
 319 1265 l 5
 319 574 l 5
 357 574 l 5
 532 811 l 5
 818 811 l 5
 561 454 l 5
 871 0 l 5
 584 0 l 5
 357 348 l 5
 319 348 l 5
 319 -2 l 5
 72 -2 l 5
 72 1265 l 5
EndSplineSet
Validated: 1
EndChar

StartChar: l
Encoding: 108 108 37
Width: 398
VWidth: 0
Flags: HW
LayerCount: 2
UndoRedoHistory
Layer: 1
Undoes
UndoOperation
Index: 0
Type: 1
WasModified: 0
WasOrder2: 0
Layer: 2
Width: 398
VWidth: 0
LBearingChange: 0
UnicodeEnc: 0
InstructionsLength: 0
SplineSet
72 1268 m 5
 319 1268 l 5
 319 0 l 5
 72 0 l 5
 72 1268 l 5
EndSplineSet
EndUndoOperation
EndUndoes
Redoes
EndRedoes
EndUndoRedoHistory
Fore
SplineSet
72 1268 m 5
 319 1268 l 5
 319 0 l 5
 72 0 l 5
 72 1268 l 5
EndSplineSet
Validated: 1
EndChar

StartChar: m
Encoding: 109 109 38
Width: 1336
VWidth: 0
Flags: W
HStem: 1 21G<70 317 546 794 1025 1272> 569 250<355.405 513.836 837.881 990.741>
VStem: 70 247<1 533.71> 546 248<1 526.827> 1025 247<1 536.059>
LayerCount: 2
UndoRedoHistory
Layer: 1
Undoes
UndoOperation
Index: 0
Type: 1
WasModified: 1
WasOrder2: 0
Layer: 2
Width: 1336
VWidth: 0
LBearingChange: 0
UnicodeEnc: 0
InstructionsLength: 0
SplineSet
440 819 m 0xbc
 538 819 616 770 671 708 c 1
 732 773 820 819 920 819 c 0
 1053 819 1150 728 1201 638 c 0
 1244 561 1273 454 1273 351 c 0
 1273 341 1272 332 1272 322 c 1
 1272 1 l 1
 1025 1 l 1
 1025 391 l 1
 1025 482 990 569 913 569 c 0
 836 569 794 465 794 396 c 0
 794 356 796 245 796 130 c 0
 796 74 794 47 794 1 c 1
 546 1 l 1
 546 381 l 2
 546 469 518 569 441 569 c 0
 366 569 317 497 317 395 c 2
 317 1 l 1
 70 0 l 5
 70 811 l 1
 299 811 l 1
 299 767 l 1
 326 790 396 819 440 819 c 0xbc
EndSplineSet
EndUndoOperation
EndUndoes
Redoes
EndRedoes
EndUndoRedoHistory
Fore
SplineSet
440 819 m 0
 538 819 616 770 671 708 c 1
 732 773 820 819 920 819 c 0
 1053 819 1150 728 1201 638 c 0
 1244 561 1273 454 1273 351 c 0
 1273 341 1272 332 1272 322 c 1
 1272 1 l 1
 1025 1 l 1
 1025 391 l 1
 1025 482 990 569 913 569 c 0
 836 569 794 465 794 396 c 0
 794 356 796 245 796 130 c 0
 796 74 794 47 794 1 c 1
 546 1 l 1
 546 381 l 2
 546 469 518 569 441 569 c 0
 366 569 317 497 317 395 c 2
 317 1 l 1
 70 1 l 1
 70 811 l 1
 299 811 l 1
 299 767 l 1
 326 790 396 819 440 819 c 0
EndSplineSet
Validated: 1
EndChar

StartChar: n
Encoding: 110 110 39
Width: 959
VWidth: 0
Flags: HW
HStem: 0 21G<70 317 646 893> 582 237<367.924 586.572>
VStem: 70 247<0 528.705 776 818> 646 247<0 521.74>
LayerCount: 2
UndoRedoHistory
Layer: 1
Undoes
UndoOperation
Index: 0
Type: 1
WasModified: 1
WasOrder2: 0
Layer: 2
Width: 959
VWidth: 0
LBearingChange: 0
UnicodeEnc: 0
InstructionsLength: 0
SplineSet
480 582 m 0
 369 582 317 516 317 410 c 6
 317 0 l 1
 70 0 l 1
 70 818 l 1
 317 818 l 1
 317 746 l 5
 374 777 442 819 506 819 c 0
 568 819 629 804 684 771 c 0
 800 701 893 571 893 445 c 2
 893 0 l 1
 646 0 l 1
 646 408 l 2
 646 475 589 582 480 582 c 0
EndSplineSet
EndUndoOperation
EndUndoes
Redoes
EndRedoes
EndUndoRedoHistory
Fore
SplineSet
480 582 m 0
 369 582 317 516 317 410 c 2
 317 0 l 1
 70 0 l 1
 70 818 l 1
 317 818 l 1
 317 746 l 1
 371 784 442 819 506 819 c 0
 568 819 629 804 684 771 c 0
 800 701 893 571 893 445 c 2
 893 0 l 1
 646 0 l 1
 646 408 l 2
 646 475 589 582 480 582 c 0
EndSplineSet
Validated: 1
EndChar

StartChar: o
Encoding: 111 111 40
Width: 992
VWidth: 0
Flags: W
HStem: -20.75 234.65<368.085 615.915> 590.1 234.65<368.085 615.915>
VStem: 47 247<284.281 519.719> 690 247<284.281 519.719>
LayerCount: 2
UndoRedoHistory
Layer: 1
Undoes
UndoOperation
Index: 0
Type: 1
WasModified: 0
WasOrder2: 0
Layer: 2
Width: 992
VWidth: 0
LBearingChange: 0
UnicodeEnc: 0
InstructionsLength: 0
SplineSet
492 847 m 4
 736 847 937 646 937 402 c 4
 937 158 736 -43 492 -43 c 4
 248 -43 47 158 47 402 c 4
 47 646 248 847 492 847 c 4
492 600 m 4
 381 600 294 513 294 402 c 4
 294 291 381 204 492 204 c 4
 603 204 690 291 690 402 c 4
 690 513 603 600 492 600 c 4
EndSplineSet
EndUndoOperation
EndUndoes
Redoes
EndRedoes
EndUndoRedoHistory
Fore
SplineSet
492 824.75 m 4
 736 824.75 937 633.799804688 937 402 c 4
 937 170.200195312 736 -20.75 492 -20.75 c 4
 248 -20.75 47 170.200195312 47 402 c 4
 47 633.799804688 248 824.75 492 824.75 c 4
492 590.099609375 m 4
 381 590.099609375 294 507.450195312 294 402 c 4
 294 296.549804688 381 213.900390625 492 213.900390625 c 4
 603 213.900390625 690 296.549804688 690 402 c 4
 690 507.450195312 603 590.099609375 492 590.099609375 c 4
EndSplineSet
Validated: 1
EndChar

StartChar: p
Encoding: 112 112 41
Width: 978
VWidth: 0
Flags: HW
LayerCount: 2
UndoRedoHistory
Layer: 1
Undoes
UndoOperation
Index: 0
Type: 1
WasModified: 1
WasOrder2: 0
Layer: 2
Width: 978
VWidth: 0
LBearingChange: 0
UnicodeEnc: 0
InstructionsLength: 0
SplineSet
62.54296875 -406.96875 m 1xe8
 62.54296875 813.096679688 l 1
 309.8203125 813.096679688 l 1
 309.8203125 743.032226562 l 1
 321.892578125 762.15625 348.784179688 780.475585938 380.859375 794.63671875 c 0
 422.103515625 812.66796875 466.401367188 820.224609375 510.276367188 820.224609375 c 0
 562.125976562 820.224609375 613.384765625 809.671875 658.321289062 793.381835938 c 0
 824.528320312 731.87109375 943.45703125 577.743164062 943.45703125 399.064453125 c 0
 943.45703125 219.635742188 823.529296875 64.9638671875 656.227539062 3.9755859375 c 0
 609.30078125 -12.25390625 562.815429688 -21.498046875 517.690429688 -21.498046875 c 0
 468.231445312 -21.498046875 420.404296875 -10.3935546875 375.41796875 14.787109375 c 0
 348.484375 30.09375 325.221679688 47.55859375 309.8203125 62.4287109375 c 1
 309.8203125 -406.96875 l 1
 62.54296875 -406.96875 l 1xe8
286.720703125 405.69921875 m 0xd8
 286.720703125 295.458984375 380.791992188 206.09375 496.833984375 206.09375 c 0
 612.875 206.09375 706.9453125 295.459960938 706.9453125 405.69921875 c 0
 706.9453125 515.938476562 612.875 605.3046875 496.833984375 605.3046875 c 0
 496.83203125 605.3046875 l 0
 380.791015625 605.3046875 286.720703125 515.938476562 286.720703125 405.69921875 c 0xd8
EndSplineSet
EndUndoOperation
EndUndoes
Redoes
EndRedoes
EndUndoRedoHistory
Fore
SplineSet
62.54296875 -406.96875 m 1xe8
 62.54296875 813.096679688 l 1
 309.8203125 813.096679688 l 1
 309.8203125 743.032226562 l 1
 321.892578125 762.15625 348.784179688 780.475585938 380.859375 794.63671875 c 0
 422.103515625 812.66796875 466.401367188 820.224609375 510.276367188 820.224609375 c 0
 562.125976562 820.224609375 613.384765625 809.671875 658.321289062 793.381835938 c 0
 824.528320312 731.87109375 943.45703125 577.743164062 943.45703125 399.064453125 c 0
 943.45703125 219.635742188 823.529296875 64.9638671875 656.227539062 3.9755859375 c 0
 609.30078125 -12.25390625 562.815429688 -21.498046875 517.690429688 -21.498046875 c 0
 468.231445312 -21.498046875 420.404296875 -10.3935546875 375.41796875 14.787109375 c 0
 348.484375 30.09375 325.221679688 47.55859375 309.8203125 62.4287109375 c 1
 309.8203125 -406.96875 l 1
 62.54296875 -406.96875 l 1xe8
286.720703125 405.69921875 m 0xd8
 286.720703125 295.458984375 380.791992188 206.09375 496.833984375 206.09375 c 0
 612.875 206.09375 706.9453125 295.459960938 706.9453125 405.69921875 c 0
 706.9453125 515.938476562 612.875 605.3046875 496.833984375 605.3046875 c 0
 496.83203125 605.3046875 l 0
 380.791015625 605.3046875 286.720703125 515.938476562 286.720703125 405.69921875 c 0xd8
EndSplineSet
Validated: 1
EndChar

StartChar: r
Encoding: 114 114 43
Width: 871
VWidth: 0
Flags: HW
HStem: 0 21G<71.7197 319.115> 614.539 233.876<326.435 528.973>
VStem: 71.7197 247.28<0 605.154 800.279 846.623>
LayerCount: 2
UndoRedoHistory
Layer: 1
Undoes
UndoOperation
Index: 0
Type: 1
WasModified: 1
WasOrder2: 0
Layer: 2
Width: 871
VWidth: 0
LBearingChange: 0
UnicodeEnc: 0
InstructionsLength: 0
SplineSet
486 814 m 4
 487 814 487.818739652 814.443509918 488.877320068 814.443509918 c 4
 547.259162645 814.443509918 598 784 636 762 c 4
 720 712 788 633 824 535 c 5
 592 451 l 5
 561 531 502 621 421 622 c 4
 420 622 420.012281725 621.644285501 419.500469931 621.644285501 c 4
 362.774953382 621.644285501 319.069255065 594.711722662 319.069255065 558.086303009 c 5
 319 558 l 5
 319 433.333333333 319.101996528 311.728732639 319.101996528 187.950954861 c 4
 319.101996528 126.062065972 319.076497396 63.6298828127 319 0 c 5
 71.7197265625 0 l 5
 72 813 l 5
 319 813 l 5
 319 755 l 5
 377 794 426 813 486 814 c 4
EndSplineSet
EndUndoOperation
EndUndoes
Redoes
EndRedoes
EndUndoRedoHistory
Fore
SplineSet
486 814 m 0
 487 814 487.818739652 814.443509918 488.877320068 814.443509918 c 0
 547.259162645 814.443509918 598 784 636 762 c 0
 720 712 788 633 824 535 c 1
 592 451 l 1
 561 531 502 621 421 622 c 0
 420 622 420.012281725 621.644285501 419.500469931 621.644285501 c 0
 362.774953382 621.644285501 319.069255065 594.711722662 319.069255065 558.086303009 c 1
 319 558 l 1
 319 433.333333333 319.101996528 311.728732639 319.101996528 187.950954861 c 0
 319.101996528 126.062065972 319.076497396 63.6298828127 319 0 c 1
 71.7197265625 0 l 1
 72 813 l 1
 319 813 l 1
 319 755 l 1
 377 794 426 813 486 814 c 0
EndSplineSet
Validated: 1
EndChar

StartChar: s
Encoding: 115 115 44
Width: 784
VWidth: 0
Flags: HW
LayerCount: 2
UndoRedoHistory
Layer: 1
Undoes
UndoOperation
Index: 0
Type: 1
WasModified: 1
WasOrder2: 0
Layer: 2
Width: 784
VWidth: 0
LBearingChange: 0
UnicodeEnc: 0
InstructionsLength: 0
SplineSet
423 184.525390625 m 4
 472.655273438 184.525390625 526 202.575195312 526 252.924804688 c 4
 526 309.924804688 418 329.875 367 341.275390625 c 4
 287 359.325195312 202 372.625 136 421.075195312 c 4
 92 453.375 72 510.375 72 567.375 c 4
 72 605.375 81.44140625 643.15625 98 673.775390625 c 4
 154 777.325195312 255 826.724609375 373 826.724609375 c 4
 384.666992188 826.724609375 396.333007812 826.724609375 408 826.724609375 c 4
 509 826.724609375 629 768.775390625 700 671.875 c 5
 635 642.424804688 570 612.974609375 505 583.525390625 c 5
 476 612.025390625 428 653.825195312 386 653.825195312 c 4
 343.879882812 653.825195312 289 635.775390625 289 577.825195312 c 4
 289 576.875 288.982421875 575.924804688 289 574.974609375 c 4
 290 519.875 466 509.424804688 586 460.025390625 c 4
 674 422.974609375 728 345.075195312 733 245.325195312 c 5
 733 238.674804688 l 6
 733 67.3994140625 539.932617188 -19.724609375 386 -19.724609375 c 4
 348 -19.724609375 311 -14.974609375 275 -6.4248046875 c 4
 166 17.3251953125 65 94.275390625 40 200.674804688 c 5
 45 200.674804688 246 243.424804688 246 243.424804688 c 5
 273 213.974609375 354 184.525390625 423 184.525390625 c 4
EndSplineSet
EndUndoOperation
EndUndoes
Redoes
EndRedoes
EndUndoRedoHistory
Fore
SplineSet
423 185.525390625 m 4
 472.655273438 185.525390625 526 203.575195312 526 253.924804688 c 4
 526 310.924804688 418 330.875 367 342.275390625 c 4
 287 360.325195312 202 373.625 136 422.075195312 c 4
 92 454.375 72 511.375 72 568.375 c 4
 72 606.375 81.44140625 644.15625 98 674.775390625 c 4
 154 778.325195312 255 827.724609375 373 827.724609375 c 4
 384.666992188 827.724609375 396.333007812 827.724609375 408 827.724609375 c 4
 509 827.724609375 629 769.775390625 700 672.875 c 5
 635 643.424804688 570 613.974609375 505 584.525390625 c 5
 476 613.025390625 428 654.825195312 386 654.825195312 c 4
 343.879882812 654.825195312 289 636.775390625 289 578.825195312 c 4
 289 577.875 288.982421875 576.924804688 289 575.974609375 c 4
 290 520.875 466 510.424804688 586 461.025390625 c 4
 674 423.974609375 728 346.075195312 733 246.325195312 c 5
 733 239.674804688 l 6
 733 68.3994140625 539.932617188 -18.724609375 386 -18.724609375 c 4
 348 -18.724609375 311 -13.974609375 275 -5.4248046875 c 4
 166 18.3251953125 65 95.275390625 40 201.674804688 c 5
 45 201.674804688 246 244.424804688 246 244.424804688 c 5
 273 214.974609375 354 185.525390625 423 185.525390625 c 4
EndSplineSet
Validated: 1
EndChar

StartChar: t
Encoding: 116 116 45
Width: 810
VWidth: 0
Flags: W
HStem: -13 215<472.504 584.397> 617 201<16.5 225.5 472.5 709.5>
VStem: 225.5 247<208.074 617 818 1065>
LayerCount: 2
UndoRedoHistory
Layer: 1
Undoes
UndoOperation
Index: 0
Type: 1
WasModified: 1
WasOrder2: 0
Layer: 2
Width: 811
VWidth: 0
LBearingChange: 0
UnicodeEnc: 0
InstructionsLength: 0
SplineSet
473.5 248 m 6
 473.5 225 479.5 202 512.5 202 c 4
 539.5 202 568.5 213 602.5 272 c 5
 790.5 164 l 5
 718.5 38 595.5 -13 492.5 -13 c 6
 479.5 -13 l 6
 283.5 -13 226.5 113 226.5 263 c 4
 226.5 264 226.5 479 226.5 480 c 6
 226.5 617 l 5
 17.5 617 l 5
 17.5 818 l 5
 226.5 818 l 5
 226.5 1065 l 5
 473.5 1065 l 5
 473.5 818 l 5
 710.5 818 l 5
 710.5 617 l 5
 473.5 617 l 5
 473.5 248 l 6
EndSplineSet
EndUndoOperation
EndUndoes
Redoes
EndRedoes
EndUndoRedoHistory
Fore
SplineSet
472.5 248 m 6
 472.5 225 478.5 202 511.5 202 c 4
 538.5 202 567.5 213 601.5 272 c 5
 789.5 164 l 5
 717.5 38 594.5 -13 491.5 -13 c 6
 478.5 -13 l 6
 282.5 -13 225.5 113 225.5 263 c 4
 225.5 264 225.5 479 225.5 480 c 6
 225.5 617 l 5
 16.5 617 l 5
 16.5 818 l 5
 225.5 818 l 5
 225.5 1065 l 5
 472.5 1065 l 5
 472.5 818 l 5
 709.5 818 l 5
 709.5 617 l 5
 472.5 617 l 5
 472.5 248 l 6
EndSplineSet
Validated: 1
EndChar

StartChar: u
Encoding: 117 117 46
Width: 961
VWidth: 0
Flags: HW
LayerCount: 2
UndoRedoHistory
Layer: 1
Undoes
UndoOperation
Index: 0
Type: 1
WasModified: 1
WasOrder2: 0
Layer: 2
Width: 961
VWidth: 0
LBearingChange: 0
UnicodeEnc: 0
InstructionsLength: 0
SplineSet
482.009765625 215.984375 m 0
 592.647460938 215.984375 645 265 645 372 c 2
 645 821 l 5
 892 821 l 5
 892 0 l 1
 645 0 l 1
 645 58 l 1
 607 15 529.879882812 -18.21875 453.701171875 -18.21875 c 0
 392.060546875 -18.21875 329 -4 278 27 c 0
 162 97 68.974609375 226.047851562 68.974609375 351.887695312 c 0
 68.974609375 352.177734375 69 353 69 353 c 2
 69 818 l 5
 316 818 l 5
 316 390 l 2
 316 323 372.591796875 215.984375 482.009765625 215.984375 c 0
EndSplineSet
EndUndoOperation
EndUndoes
Redoes
EndRedoes
EndUndoRedoHistory
Fore
SplineSet
482.009765625 215.984375 m 0
 592.647460938 215.984375 645 265 645 372 c 2
 645 810.9375 l 5
 892 810.9375 l 5
 892 0 l 1
 645 0 l 1
 645 58 l 1
 607 15 529.879882812 -18.21875 453.701171875 -18.21875 c 0
 392.060546875 -18.21875 329 -4 278 27 c 0
 162 97 68.974609375 226.047851562 68.974609375 351.887695312 c 0
 68.974609375 352.177734375 69 353 69 353 c 2
 69 807.9375 l 5
 316 807.9375 l 5
 316 390 l 2
 316 323 372.591796875 215.984375 482.009765625 215.984375 c 0
EndSplineSet
Validated: 1
EndChar

StartChar: v
Encoding: 118 118 47
Width: 1002
VWidth: 0
Flags: W
HStem: 0 21G<376.25 619.75> 796 20G<28 306.59 689.236 968>
LayerCount: 2
UndoRedoHistory
Layer: 1
Undoes
UndoOperation
Index: 0
Type: 1
WasModified: 0
WasOrder2: 0
Layer: 2
Width: 1002
VWidth: 0
LBearingChange: 0
UnicodeEnc: 0
InstructionsLength: 0
SplineSet
298 816 m 5
 496 355 l 1
 698 816 l 5
 968 816 l 5
 611 0 l 1
 385 0 l 1
 28 816 l 5
 298 816 l 5
EndSplineSet
EndUndoOperation
EndUndoes
Redoes
EndRedoes
EndUndoRedoHistory
Fore
SplineSet
298 816 m 5
 496 355 l 1
 698 816 l 5
 968 816 l 5
 611 0 l 1
 385 0 l 1
 28 816 l 5
 298 816 l 5
EndSplineSet
Validated: 1
EndChar

StartChar: w
Encoding: 119 119 48
Width: 1224
VWidth: 0
Flags: HW
LayerCount: 2
UndoRedoHistory
Layer: 1
Undoes
UndoOperation
Index: 0
Type: 1
WasModified: 1
WasOrder2: 0
Layer: 2
Width: 1224
VWidth: 0
LBearingChange: 0
UnicodeEnc: 0
InstructionsLength: 0
SplineSet
287 811 m 1
 377 363 l 1
 504 811 l 1
 731 811 l 1
 862 363 l 1
 947 811 l 1
 1203 811 l 1
 1000 1 l 1
 762 1 l 1
 618 507 l 1
 473 1 l 1
 235 1 l 1
 32 811 l 1
 287 811 l 1
EndSplineSet
EndUndoOperation
EndUndoes
Redoes
EndRedoes
EndUndoRedoHistory
Fore
SplineSet
281.5 811 m 1
 371.5 363 l 1
 498.5 811 l 1
 725.5 811 l 1
 856.5 363 l 1
 941.5 811 l 1
 1197.5 811 l 1
 994.5 1 l 1
 756.5 1 l 1
 612.5 507 l 1
 467.5 1 l 1
 229.5 1 l 1
 26.5 811 l 1
 281.5 811 l 1
EndSplineSet
Validated: 1
EndChar

StartChar: x
Encoding: 120 120 49
Width: 951
VWidth: 0
Flags: W
HStem: 0 21G<11 321.017 612.517 936> 791 20G<33 354.444 599.869 919>
LayerCount: 2
UndoRedoHistory
Layer: 1
Undoes
UndoOperation
Index: 0
Type: 1
WasModified: 1
WasOrder2: 0
Layer: 2
Width: 983
VWidth: 0
LBearingChange: 0
UnicodeEnc: 0
InstructionsLength: 0
SplineSet
33 811 m 1
 340 811 l 1
 483 613 l 1
 613 811 l 1
 919 811 l 1
 622 422 l 1
 936 0 l 1
 627 0 l 1
 459 232 l 1
 308 0 l 1
 11 0 l 1
 317 422 l 1
 33 811 l 1
EndSplineSet
EndUndoOperation
EndUndoes
Redoes
EndRedoes
EndUndoRedoHistory
Fore
SplineSet
33 811 m 1
 340 811 l 1
 483 613 l 1
 613 811 l 1
 919 811 l 1
 622 422 l 1
 936 0 l 1
 627 0 l 1
 459 232 l 1
 308 0 l 1
 11 0 l 1
 317 422 l 1
 33 811 l 1
EndSplineSet
Validated: 1
EndChar

StartChar: y
Encoding: 121 121 50
Width: 1039
VWidth: 0
Flags: W
HStem: 808 20G<27 299.906 726.189 1004>
LayerCount: 2
UndoRedoHistory
Layer: 1
Undoes
UndoOperation
Index: 0
Type: 1
WasModified: 0
WasOrder2: 0
Layer: 2
Width: 1039
VWidth: 0
LBearingChange: 0
UnicodeEnc: 0
InstructionsLength: 0
SplineSet
27 828 m 1
 291 828 l 1
 527 298 l 1
 734 828 l 1
 1004 828 l 1
 470 -452 l 5
 201 -452 l 5
 397 -7 l 1
 27 828 l 1
EndSplineSet
EndUndoOperation
EndUndoes
Redoes
EndRedoes
EndUndoRedoHistory
Fore
SplineSet
27 828 m 1
 291 828 l 1
 527 298 l 1
 734 828 l 1
 1004 828 l 1
 470 -452 l 5
 201 -452 l 5
 397 -7 l 1
 27 828 l 1
EndSplineSet
Validated: 1
EndChar

StartChar: z
Encoding: 122 122 51
Width: 828
VWidth: 0
Flags: W
HStem: 0 217<372 772> 594 217<79 405>
LayerCount: 2
UndoRedoHistory
Layer: 1
Undoes
UndoOperation
Index: 0
Type: 1
WasModified: 0
WasOrder2: 0
Layer: 2
Width: 828
VWidth: 0
LBearingChange: 0
UnicodeEnc: 0
InstructionsLength: 0
SplineSet
79 811 m 5
 751 811 l 5
 752 809 753 784 753 752 c 4
 753 688 751 594 751 594 c 5
 751 594 398 242 372 217 c 5
 772 217 l 5
 772 0 l 5
 47 0 l 5
 47 217 l 5
 47 217 372 562 405 594 c 5
 79 594 l 5
 79 811 l 5
EndSplineSet
EndUndoOperation
EndUndoes
Redoes
EndRedoes
EndUndoRedoHistory
Fore
SplineSet
79 811 m 5
 751 811 l 5
 752 809 753 784 753 752 c 4
 753 688 751 594 751 594 c 5
 751 594 398 242 372 217 c 5
 772 217 l 5
 772 0 l 5
 47 0 l 5
 47 217 l 5
 47 217 372 562 405 594 c 5
 79 594 l 5
 79 811 l 5
EndSplineSet
Validated: 1
EndChar

StartChar: one
Encoding: 49 49 53
Width: 631
VWidth: 0
Flags: W
HStem: 0 21G<306 555> 811 21G<195.711 235.959> 1246 20G<291.761 555>
VStem: 306 249<0 909>
LayerCount: 2
UndoRedoHistory
Layer: 1
Undoes
UndoOperation
Index: 0
Type: 1
WasModified: 0
WasOrder2: 0
Layer: 2
Width: 631
VWidth: 0
LBearingChange: 0
UnicodeEnc: 0
InstructionsLength: 0
SplineSet
33 977 m 5
 311 1266 l 5
 555 1266 l 5
 555 0 l 5
 306 0 l 5
 306 909 l 5
 218 811 l 5
 33 977 l 5
EndSplineSet
EndUndoOperation
EndUndoes
Redoes
EndRedoes
EndUndoRedoHistory
Fore
SplineSet
33 977 m 5
 311 1266 l 5
 555 1266 l 5
 555 0 l 5
 306 0 l 5
 306 909 l 5
 218 811 l 5
 33 977 l 5
EndSplineSet
Validated: 1
EndChar

StartChar: two
Encoding: 50 50 54
Width: 875
VWidth: 0
Flags: HW
LayerCount: 2
UndoRedoHistory
Layer: 1
Undoes
UndoOperation
Index: 0
Type: 1
WasModified: 0
WasOrder2: 0
Layer: 2
Width: 875
VWidth: 0
LBearingChange: 0
UnicodeEnc: 0
InstructionsLength: 0
SplineSet
432 1287 m 4
 543 1287 630 1236 679 1195 c 4
 744.355916635 1141.80332367 810 1057.30133183 810 946 c 0
 810 877 784 806 735 744 c 5
 692 681 640 604 588 530 c 5
 587 531 l 5
 383 240 l 5
 525 241 829 242 829 242 c 5
 831 0 l 5
 582.333333333 -0 333.666666667 0 85 0 c 5
 85 239 l 5
 260 483 471 739 538 828 c 4
 558 855 575 878 575 908 c 0
 575 924 570 942 558 962 c 4
 545 984 516 1033 432 1033 c 4
 391 1033 287 940 287 881 c 5
 39 881 l 5
 39 1074 253 1287 432 1287 c 4
EndSplineSet
EndUndoOperation
EndUndoes
Redoes
EndRedoes
EndUndoRedoHistory
Fore
SplineSet
432 1287 m 4
 543 1287 630 1236 679 1195 c 4
 744 1142 810 1057 810 946 c 0
 810 877 784 806 735 744 c 5
 692 681 640 604 588 530 c 5
 587 531 l 5
 383 240 l 5
 525 241 829 242 829 242 c 5
 831 0 l 5
 582 0 334 0 85 0 c 5
 85 239 l 5
 260 483 471 739 538 828 c 4
 558 855 575 878 575 908 c 0
 575 924 570 942 558 962 c 4
 545 984 516 1033 432 1033 c 4
 391 1033 287 940 287 881 c 5
 39 881 l 5
 39 1074 253 1287 432 1287 c 4
EndSplineSet
Validated: 1
EndChar

StartChar: three
Encoding: 51 51 55
Width: 869
VWidth: 0
Flags: HW
LayerCount: 2
UndoRedoHistory
Layer: 1
Undoes
UndoOperation
Index: 0
Type: 1
WasModified: 0
WasOrder2: 0
Layer: 2
Width: 869
VWidth: 0
LBearingChange: 0
UnicodeEnc: 0
InstructionsLength: 0
SplineSet
579 904 m 0
 579 984.735229205 509.691462081 1037 443 1037 c 4
 363 1037 297 968 297 874 c 5
 49 874 l 5
 49 1104 224 1298 443 1298 c 4
 605.398709833 1298 733.79567097 1190.06500438 792 1069 c 4
 810 1030 820 987 820 943 c 0
 820 870 794 795 745 730 c 5
 715 683 702 675 681 648 c 5
 701 624 715 612 745 565 c 5
 794 500 820 425 820 352 c 0
 820 236.20351097 754.933639568 147.733596837 689 91 c 4
 622 32 536 -3 443 -3 c 4
 224 -3 49 191 49 421 c 5
 297 421 l 5
 297 327 363 258 443 258 c 4
 504.863297934 258 580 307.871305031 580 384 c 0
 580 480 460 597 350 597 c 2
 345 597 l 5
 345 728 l 5
 400 729 579 781 579 904 c 0
EndSplineSet
EndUndoOperation
EndUndoes
Redoes
EndRedoes
EndUndoRedoHistory
Fore
SplineSet
579 904 m 0
 579 985 510 1037 443 1037 c 4
 363 1037 297 968 297 874 c 5
 49 874 l 5
 49 1104 224 1298 443 1298 c 4
 605 1298 734 1190 792 1069 c 4
 810 1030 820 987 820 943 c 0
 820 870 794 795 745 730 c 5
 715 683 702 675 681 648 c 5
 701 624 715 612 745 565 c 5
 794 500 820 425 820 352 c 0
 820 236 755 148 689 91 c 4
 622 32 536 -3 443 -3 c 4
 224 -3 49 191 49 421 c 5
 297 421 l 5
 297 327 363 258 443 258 c 4
 505 258 580 308 580 384 c 0
 580 480 460 597 350 597 c 2
 345 597 l 5
 345 728 l 5
 400 729 579 781 579 904 c 0
EndSplineSet
Validated: 1
EndChar

StartChar: four
Encoding: 52 52 56
Width: 946
VWidth: 0
Flags: W
HStem: 0 21G<622 870> 348 248<367 622> 1255 20G<589.408 870>
VStem: 622 248<0 348 596 900>
LayerCount: 2
UndoRedoHistory
Layer: 1
Undoes
UndoOperation
Index: 0
Type: 1
WasModified: 0
WasOrder2: 0
Layer: 2
Width: 946
VWidth: 0
LBearingChange: 0
UnicodeEnc: 0
InstructionsLength: 0
SplineSet
606 1275 m 5
 870 1273 l 5
 870 0 l 5
 622 0 l 5
 622 348 l 5
 51 348 l 5
 51 606 l 5
 606 1275 l 5
622 900 m 5
 367 596 l 5
 622 596 l 5
 622 900 l 5
EndSplineSet
EndUndoOperation
EndUndoes
Redoes
EndRedoes
EndUndoRedoHistory
Fore
SplineSet
606 1275 m 5
 870 1273 l 5
 870 0 l 5
 622 0 l 5
 622 348 l 5
 51 348 l 5
 51 606 l 5
 606 1275 l 5
622 900 m 5
 367 596 l 5
 622 596 l 5
 622 900 l 5
EndSplineSet
Validated: 1
EndChar

StartChar: five
Encoding: 53 53 57
Width: 946
VWidth: 0
Flags: HW
LayerCount: 2
UndoRedoHistory
Layer: 1
Undoes
UndoOperation
Index: 0
Type: 1
WasModified: 0
WasOrder2: 0
Layer: 2
Width: 946
VWidth: 0
LBearingChange: 0
UnicodeEnc: 0
InstructionsLength: 0
SplineSet
653 448 m 0
 653 564.31418966 561.060178328 647 454 647 c 6
 106 647 l 5
 106 1293 l 5
 851 1293 l 5
 851 1045 l 5
 355 1045 l 5
 355 896 l 5
 454 896 l 6
 691.813920327 896 901 707.79662261 901 449 c 0
 901 245 760 62 557 14 c 4
 523 6 489 2 455 2 c 0
 271 2 99 117 34 296 c 5
 267 381 l 5
 296 301 371 250 453 250 c 0
 572.708328378 250 653 346.076848968 653 448 c 0
EndSplineSet
EndUndoOperation
EndUndoes
Redoes
EndRedoes
EndUndoRedoHistory
Fore
SplineSet
653 448 m 0
 653 564 561 647 454 647 c 6
 106 647 l 5
 106 1293 l 5
 851 1293 l 5
 851 1045 l 5
 355 1045 l 5
 355 896 l 5
 454 896 l 6
 692 896 901 708 901 449 c 0
 901 245 760 62 557 14 c 4
 523 6 489 2 455 2 c 0
 271 2 99 117 34 296 c 5
 267 381 l 5
 296 301 371 250 453 250 c 0
 573 250 653 346 653 448 c 0
EndSplineSet
Validated: 1
EndChar

StartChar: six
Encoding: 54 54 58
Width: 962
VWidth: 0
Flags: HW
LayerCount: 2
UndoRedoHistory
Layer: 1
Undoes
UndoOperation
Index: 0
Type: 1
WasModified: 0
WasOrder2: 0
Layer: 2
Width: 962
VWidth: 0
LBearingChange: 0
UnicodeEnc: 0
InstructionsLength: 0
SplineSet
918 444 m 0
 918 224.227137783 741.824629881 9 485 9 c 0
 349 9 213 74 133 185 c 5
 74 261 46 355 46 449 c 0
 46 510 58 571 81 628 c 4
 181 885 284 1059 427 1293 c 5
 716 1293 l 5
 672 1218 475 881 474 880 c 5
 482 880 l 2
 504 880 524 879 548 876 c 4
 730 848 886 695 912 511 c 4
 916 489 918 466 918 444 c 0
482 256 m 0
 583.100830096 256 670 338.652322433 670 448 c 0
 670 545 586 633 488 633 c 2
 487 633 l 6
 485 633 484 632 482 632 c 4
 481 632 480 632 479 632 c 0
 382.666378299 632 293 554.980911412 293 445 c 0
 293 347.347403037 371.132652437 256 482 256 c 0
EndSplineSet
EndUndoOperation
EndUndoes
Redoes
EndRedoes
EndUndoRedoHistory
Fore
SplineSet
918 444 m 0
 918 224 742 9 485 9 c 0
 349 9 213 74 133 185 c 5
 74 261 46 355 46 449 c 0
 46 510 58 571 81 628 c 4
 181 885 284 1059 427 1293 c 5
 716 1293 l 5
 672 1218 475 881 474 880 c 5
 482 880 l 2
 504 880 524 879 548 876 c 4
 730 848 886 695 912 511 c 4
 916 489 918 466 918 444 c 0
482 256 m 0
 583 256 670 339 670 448 c 0
 670 545 586 633 488 633 c 2
 487 633 l 6
 485 633 484 632 482 632 c 4
 481 632 480 632 479 632 c 0
 383 632 293 555 293 445 c 0
 293 347 371 256 482 256 c 0
EndSplineSet
Validated: 1
EndChar

StartChar: seven
Encoding: 55 55 59
Width: 910
VWidth: 0
Flags: HW
LayerCount: 2
UndoRedoHistory
Layer: 1
Undoes
UndoOperation
Index: 0
Type: 1
WasModified: 0
WasOrder2: 0
Layer: 2
Width: 910
VWidth: 0
LBearingChange: 0
UnicodeEnc: 0
InstructionsLength: 0
SplineSet
864 1293 m 1
 864 1034 l 1
 469 0 l 5
 194 0 l 5
 595 1034 l 1
 47 1034 l 1
 47 1293 l 1
 864 1293 l 1
EndSplineSet
EndUndoOperation
EndUndoes
Redoes
EndRedoes
EndUndoRedoHistory
Fore
SplineSet
864 1293 m 1
 864 1034 l 1
 469 0 l 5
 194 0 l 5
 595 1034 l 1
 47 1034 l 1
 47 1293 l 1
 864 1293 l 1
EndSplineSet
Validated: 1
EndChar

StartChar: eight
Encoding: 56 56 60
Width: 864
VWidth: 0
Flags: HW
LayerCount: 2
UndoRedoHistory
Layer: 1
Undoes
UndoOperation
Index: 0
Type: 1
WasModified: 1
WasOrder2: 0
Layer: 2
Width: 864
VWidth: 0
LBearingChange: 0
UnicodeEnc: 0
InstructionsLength: 0
SplineSet
429.541992188 1279.98828125 m 0
 629.104492188 1279.98828125 793.541992188 1115.54882812 793.541992188 915.986328125 c 0
 793.541992188 840.166015625 733.803710938 755.419921875 693.422851562 696.83203125 c 5
 765.447265625 622.201171875 845.999023438 510.916992188 845.999023438 399.998046875 c 4
 845.999023438 172.821289062 659.177734375 -14 432.000976562 -14 c 4
 204.82421875 -14 18.0009765625 172.821289062 18.0009765625 399.998046875 c 4
 18.0009765625 509.456054688 97.3798828125 619.537109375 167.737304688 693.875 c 5
 126.102539062 753.034179688 65.5400390625 838.8828125 65.5400390625 915.986328125 c 0
 65.5400390625 1115.54882812 229.979492188 1279.98828125 429.541992188 1279.98828125 c 0
429.541992188 1031.98632812 m 1
 429.538085938 1031.98632812 l 1
 364.00390625 1031.98632812 313.538085938 981.520507812 313.538085938 915.986328125 c 0
 313.538085938 881.315429688 327.66796875 850.865234375 350.676757812 829.87109375 c 0
 350.713867188 829.87890625 350.750976562 829.884765625 350.788085938 829.89453125 c 2
 350.788085938 829.76953125 l 1
 371.2578125 811.141601562 398.734375 799.98828125 429.541992188 799.98828125 c 0
 495.076171875 799.98828125 545.540039062 850.452148438 545.540039062 915.986328125 c 0
 545.540039062 981.520507812 495.076171875 1031.98632812 429.541992188 1031.98632812 c 1
432.000976562 565.994140625 m 4
 338.853515625 565.994140625 265.997070312 493.145507812 265.997070312 399.998046875 c 4
 265.997070312 306.849609375 338.853515625 233.994140625 432.000976562 233.994140625 c 4
 525.149414062 233.994140625 597.997070312 306.849609375 597.997070312 399.998046875 c 4
 597.997070312 459.6171875 568.153320312 510.919921875 522.245117188 540.12890625 c 4
 522.029296875 540.071289062 521.815429688 540.005859375 521.598632812 539.94921875 c 5
 521.616210938 540.138671875 521.624023438 540.319335938 521.639648438 540.5078125 c 4
 495.944335938 556.698242188 465.26953125 565.994140625 432.000976562 565.994140625 c 4
EndSplineSet
EndUndoOperation
EndUndoes
Redoes
EndRedoes
EndUndoRedoHistory
Fore
SplineSet
429.541992188 1279.98828125 m 0
 629.104492188 1279.98828125 793.541992188 1115.54882812 793.541992188 915.986328125 c 0
 793.541992188 840.166015625 733.803710938 754.419921875 693.422851562 695.83203125 c 1
 765.447265625 621.201171875 845.999023438 509.916992188 845.999023438 398.998046875 c 0
 845.999023438 171.821289062 659.177734375 -15 432.000976562 -15 c 0
 204.82421875 -15 18.0009765625 171.821289062 18.0009765625 398.998046875 c 0
 18.0009765625 508.456054688 97.3798828125 618.537109375 167.737304688 692.875 c 1
 126.102539062 752.034179688 65.5400390625 838.8828125 65.5400390625 915.986328125 c 0
 65.5400390625 1115.54882812 229.979492188 1279.98828125 429.541992188 1279.98828125 c 0
429.541992188 1031.98632812 m 1
 429.538085938 1031.98632812 l 1
 364.00390625 1031.98632812 313.538085938 981.520507812 313.538085938 915.986328125 c 0
 313.538085938 881.315429688 327.66796875 850.865234375 350.676757812 829.87109375 c 0
 350.713867188 829.87890625 350.750976562 829.884765625 350.788085938 829.89453125 c 2
 350.788085938 829.76953125 l 1
 371.2578125 811.141601562 398.734375 799.98828125 429.541992188 799.98828125 c 0
 495.076171875 799.98828125 545.540039062 850.452148438 545.540039062 915.986328125 c 0
 545.540039062 981.520507812 495.076171875 1031.98632812 429.541992188 1031.98632812 c 1
432.000976562 564.994140625 m 0
 338.853515625 564.994140625 265.997070312 492.145507812 265.997070312 398.998046875 c 0
 265.997070312 305.849609375 338.853515625 232.994140625 432.000976562 232.994140625 c 0
 525.149414062 232.994140625 597.997070312 305.849609375 597.997070312 398.998046875 c 0
 597.997070312 458.6171875 568.153320312 509.919921875 522.245117188 539.12890625 c 0
 522.029296875 539.071289062 521.815429688 539.005859375 521.598632812 538.94921875 c 1
 521.616210938 539.138671875 521.624023438 539.319335938 521.639648438 539.5078125 c 0
 495.944335938 555.698242188 465.26953125 564.994140625 432.000976562 564.994140625 c 0
EndSplineSet
Validated: 1
EndChar

StartChar: nine
Encoding: 57 57 61
Width: 891
VWidth: 0
Flags: HW
LayerCount: 2
UndoRedoHistory
Layer: 1
Undoes
UndoOperation
Index: 0
Type: 1
WasModified: 0
WasOrder2: 0
Layer: 2
Width: 891
VWidth: 0
LBearingChange: 0
UnicodeEnc: 0
InstructionsLength: 0
SplineSet
447 1272 m 0
 678.034162106 1272 848 1076.2248457 848 868 c 0
 848 830 843 792 831 755 c 5
 728 478 627 266 501 0 c 5
 226 0 l 5
 292 138 382 329 444 469 c 5
 442 469 l 2
 241.329776739 469 45 636.713295137 45 868 c 0
 45 983 94 1099 184 1174 c 5
 256 1239 351 1272 447 1272 c 0
441 717 m 2
 448 717 l 2
 525.708346463 717 600 780.898320798 600 868 c 0
 600 947.150633033 539.649386693 1025 447 1025 c 0
 365.344891225 1025 292 959.102403734 292 869 c 0
 292 790 361 717 441 717 c 2
EndSplineSet
EndUndoOperation
EndUndoes
Redoes
EndRedoes
EndUndoRedoHistory
Fore
SplineSet
447 1272 m 0
 678 1272 848 1076 848 868 c 0
 848 830 843 792 831 755 c 5
 728 478 627 266 501 0 c 5
 226 0 l 5
 292 138 382 329 444 469 c 5
 442 469 l 2
 241 469 45 637 45 868 c 0
 45 983 94 1099 184 1174 c 5
 256 1239 351 1272 447 1272 c 0
441 717 m 2
 448 717 l 2
 526 717 600 781 600 868 c 0
 600 947 540 1025 447 1025 c 0
 365 1025 292 959 292 869 c 0
 292 790 361 717 441 717 c 2
EndSplineSet
Validated: 1
EndChar

StartChar: zero
Encoding: 48 48 62
Width: 1026
VWidth: 0
Flags: W
HStem: -10 248<420.76 605.24> 1053 248<420.76 605.24>
VStem: 49 248<405.821 884.429> 729 248<405.821 884.429>
LayerCount: 2
UndoRedoHistory
Layer: 1
Undoes
UndoOperation
Index: 0
Type: 1
WasModified: 0
WasOrder2: 0
Layer: 2
Width: 1026
VWidth: 0
LBearingChange: 0
UnicodeEnc: 0
InstructionsLength: 0
SplineSet
513 1301 m 4
 659 1301 781 1208 858 1088 c 4
 935 968 977 813 977 645 c 4
 977 477 935 323 858 203 c 4
 781 83 659 -10 513 -10 c 4
 367 -10 245 83 168 203 c 4
 91 323 49 477 49 645 c 4
 49 813 91 968 168 1088 c 4
 245 1208 367 1301 513 1301 c 4
513 1053 m 4
 472 1053 423 1026 377 954 c 4
 331 882 297 770 297 645 c 4
 297 520 331 408 377 336 c 4
 423 264 472 238 513 238 c 4
 554 238 603 264 649 336 c 4
 695 408 729 520 729 645 c 4
 729 770 695 882 649 954 c 4
 603 1026 554 1053 513 1053 c 4
EndSplineSet
EndUndoOperation
EndUndoes
Redoes
EndRedoes
EndUndoRedoHistory
Fore
SplineSet
513 1301 m 4
 659 1301 781 1208 858 1088 c 4
 935 968 977 813 977 645 c 4
 977 477 935 323 858 203 c 4
 781 83 659 -10 513 -10 c 4
 367 -10 245 83 168 203 c 4
 91 323 49 477 49 645 c 4
 49 813 91 968 168 1088 c 4
 245 1208 367 1301 513 1301 c 4
513 1053 m 4
 472 1053 423 1026 377 954 c 4
 331 882 297 770 297 645 c 4
 297 520 331 408 377 336 c 4
 423 264 472 238 513 238 c 4
 554 238 603 264 649 336 c 4
 695 408 729 520 729 645 c 4
 729 770 695 882 649 954 c 4
 603 1026 554 1053 513 1053 c 4
EndSplineSet
Validated: 1
EndChar

StartChar: exclam
Encoding: 33 33 63
Width: 406
VWidth: 0
Flags: W
HStem: 0 298<99.75 310.25> 1246 20G<81 329>
VStem: 56 298<43.75 254.25> 81 248<496 1266>
LayerCount: 2
UndoRedoHistory
Layer: 1
Undoes
UndoOperation
Index: 0
Type: 1
WasModified: 0
WasOrder2: 0
Layer: 2
Width: 406
VWidth: 0
LBearingChange: 0
UnicodeEnc: 0
InstructionsLength: 0
SplineSet
81 1266 m 5
 329 1266 l 5
 329 496 l 5
 81 496 l 5
 81 1266 l 5
205 298 m 4
 287 298 354 231 354 149 c 4
 354 67 287 0 205 0 c 4
 123 0 56 67 56 149 c 4
 56 231 123 298 205 298 c 4
EndSplineSet
EndUndoOperation
EndUndoes
Redoes
EndRedoes
EndUndoRedoHistory
Fore
SplineSet
81 1266 m 5xd0
 329 1266 l 5
 329 496 l 5
 81 496 l 5
 81 1266 l 5xd0
205 298 m 4
 287 298 354 231 354 149 c 4
 354 67 287 0 205 0 c 4
 123 0 56 67 56 149 c 4xe0
 56 231 123 298 205 298 c 4
EndSplineSet
Validated: 1
EndChar

StartChar: numbersign
Encoding: 35 35 64
Width: 1334
VWidth: 0
Flags: HW
LayerCount: 2
UndoRedoHistory
Layer: 1
Undoes
UndoOperation
Index: 0
Type: 1
WasModified: 0
WasOrder2: 0
Layer: 2
Width: 1334
VWidth: 0
LBearingChange: 0
UnicodeEnc: 0
InstructionsLength: 0
SplineSet
349 1293 m 5
 597 1293 l 5
 582 1119 l 5
 880 1119 l 5
 895 1293 l 5
 1144 1293 l 5
 1128 1119 l 5
 1296 1119 l 5
 1246 871 l 5
 1107 871 l 5
 1087 648 l 5
 1234 648 l 5
 1184 399 l 5
 1066 399 l 5
 1050 226 l 5
 802 226 l 5
 817 399 l 5
 520 399 l 5
 504 226 l 5
 256 226 l 5
 271 399 l 5
 42 399 l 5
 92 648 l 5
 293 648 l 5
 312 871 l 5
 104 871 l 5
 154 1119 l 5
 334 1119 l 5
 349 1293 l 5
561 871 m 5
 541 648 l 5
 839 648 l 5
 859 871 l 5
 561 871 l 5
EndSplineSet
EndUndoOperation
EndUndoes
Redoes
EndRedoes
EndUndoRedoHistory
Fore
SplineSet
349 1293 m 5
 597 1293 l 5
 582 1119 l 5
 880 1119 l 5
 895 1293 l 5
 1144 1293 l 5
 1128 1119 l 5
 1296 1119 l 5
 1246 871 l 5
 1107 871 l 5
 1087 648 l 5
 1234 648 l 5
 1184 399 l 5
 1066 399 l 5
 1050 226 l 5
 802 226 l 5
 817 399 l 5
 520 399 l 5
 504 226 l 5
 256 226 l 5
 271 399 l 5
 42 399 l 5
 92 648 l 5
 293 648 l 5
 312 871 l 5
 104 871 l 5
 154 1119 l 5
 334 1119 l 5
 349 1293 l 5
561 871 m 5
 541 648 l 5
 839 648 l 5
 859 871 l 5
 561 871 l 5
EndSplineSet
Validated: 1
EndChar

StartChar: dollar
Encoding: 36 36 65
Width: 724
VWidth: 0
Flags: W
HStem: 13 331<267.509 434.954> 1260 20G<271 451>
VStem: 72 235<802.644 943.766> 266 180<13 149.53 1143.62 1280> 457 223<365.731 543.658>
LayerCount: 2
UndoRedoHistory
Layer: 1
Undoes
UndoOperation
Index: 0
Type: 1
WasModified: 0
WasOrder2: 0
Layer: 2
Width: 724
VWidth: 0
LBearingChange: 0
UnicodeEnc: 0
InstructionsLength: 0
SplineSet
72 875 m 0
 72 1014.57072388 160.542604759 1117.63058902 271 1156 c 5
 271 1280 l 5
 451 1280 l 5
 451 1157 l 5
 524 1135 588 1087 627 1020 c 5
 445 900 l 5
 433 911 400 949 365 949 c 0
 363 949 360 948 358 948 c 4
 322.151546966 946.621213345 296 913.931924979 296 873 c 0
 296 859 300 844 307 833 c 5
 307 832 l 5
 321.001338942 805.997513394 352.061334286 800.989176302 386 795 c 4
 539.498443951 777.022704762 680 646.085142535 680 461 c 0
 680 313.858970369 582.152944785 175.412694543 446 136 c 5
 446 13 l 5
 266 13 l 5
 266 135 l 5
 226 146 187 164 154 191 c 5
 154 192 l 5
 107 233 57 280 36 344 c 5
 244 419 l 5
 247 417 249 414 251 411 c 4
 270.78402767 379.910813662 306.132326391 344 354 344 c 0
 419.734845504 344 457 406.483217551 457 461 c 0
 457 489 448 516 430 537 c 5
 429 537 l 5
 392.831971502 583.214703081 324.136473204 571.721365211 264 595 c 4
 148 636 72 755 72 875 c 0
EndSplineSet
EndUndoOperation
EndUndoes
Redoes
EndRedoes
EndUndoRedoHistory
Fore
SplineSet
72 875 m 0xe8
 72 1015 161 1118 271 1156 c 5
 271 1280 l 5
 451 1280 l 5
 451 1157 l 5
 524 1135 588 1087 627 1020 c 5
 445 900 l 5
 433 911 400 949 365 949 c 0
 363 949 360 948 358 948 c 4
 322 947 296 914 296 873 c 0
 296 859 300 844 307 833 c 5
 307 832 l 5xe8
 321 806 352 801 386 795 c 4
 539 777 680 646 680 461 c 0
 680 314 582 175 446 136 c 5
 446 13 l 5
 266 13 l 5
 266 135 l 5xd8
 226 146 187 164 154 191 c 5
 154 192 l 5
 107 233 57 280 36 344 c 5
 244 419 l 5
 247 417 249 414 251 411 c 4
 271 380 306 344 354 344 c 0
 420 344 457 406 457 461 c 0
 457 489 448 516 430 537 c 5
 429 537 l 5
 393 583 324 572 264 595 c 4
 148 636 72 755 72 875 c 0xe8
EndSplineSet
Validated: 1
EndChar

StartChar: percent
Encoding: 37 37 66
Width: 1250
VWidth: 0
Flags: W
HStem: 151 322<845.411 1068.11> 822 323<222.888 445.589>
VStem: 173 323<872.411 1095.11> 795 323<200.888 423.112>
LayerCount: 2
UndoRedoHistory
Layer: 1
Undoes
UndoOperation
Index: 0
Type: 1
WasModified: 0
WasOrder2: 0
Layer: 2
Width: 1250
VWidth: 0
LBearingChange: 0
UnicodeEnc: 0
InstructionsLength: 0
SplineSet
877 1208 m 5
 1215 1208 l 5
 367 71 l 5
 34 71 l 5
 877 1208 l 5
334 1145 m 4
 423 1145 496 1073 496 984 c 4
 496 895 423 822 334 822 c 4
 245 822 173 895 173 984 c 4
 173 1073 245 1145 334 1145 c 4
957 473 m 4
 1046 473 1118 401 1118 312 c 4
 1118 223 1046 151 957 151 c 5
 957 151 l 5
 868 151 795 223 795 312 c 4
 795 401 868 473 957 473 c 4
EndSplineSet
EndUndoOperation
EndUndoes
Redoes
EndRedoes
EndUndoRedoHistory
Fore
SplineSet
877 1208 m 5
 1215 1208 l 5
 367 71 l 5
 34 71 l 5
 877 1208 l 5
334 1145 m 4
 423 1145 496 1073 496 984 c 4
 496 895 423 822 334 822 c 4
 245 822 173 895 173 984 c 4
 173 1073 245 1145 334 1145 c 4
957 473 m 4
 1046 473 1118 401 1118 312 c 4
 1118 223 1046 151 957 151 c 4
 868 151 795 223 795 312 c 4
 795 401 868 473 957 473 c 4
EndSplineSet
Validated: 1
EndChar

StartChar: ampersand
Encoding: 38 38 67
Width: 1423
VWidth: 0
Flags: HW
HStem: -4 239<348.453 659.121> 541 327<435.416 588.31> 1082 210<417.043 590.957>
VStem: 40 273<275.504 418.372> 187 210<889.347 1061.96> 611 210<887.8 1061.96>
LayerCount: 2
UndoRedoHistory
Layer: 1
Undoes
UndoOperation
Index: 0
Type: 1
WasModified: 1
WasOrder2: 0
Layer: 2
Width: 1423
VWidth: 0
LBearingChange: 0
UnicodeEnc: 0
InstructionsLength: 0
SplineSet
504 1293 m 0xec
 678 1293 821 1150 821 976 c 0
 821 863 761 762 670 706 c 1
 736 656 806 565 876 507 c 1
 895 531 898 574 909 600 c 1
 1157 592 l 1
 1154 515 1089 430 1028 361 c 1
 1143 252 1280 115 1390 1 c 1
 1043 1 l 1
 876 195 l 1
 823 128 743 49 650 24 c 1
 601 6 550 -4 498 -4 c 0
 409 -4 317 24 226 76 c 0
 135 126 40 216 40 348 c 1xf4
 50 472 213 613 328 713 c 1
 243 770 187 867 187 976 c 0
 187 1150 330 1293 504 1293 c 0xec
504 1083 m 0
 444 1083 397 1036 397 976 c 0xec
 397 916 444 869 504 869 c 0
 564 869 611 916 611 976 c 0
 611 1036 564 1083 504 1083 c 0
512 553 m 4
 462 553 310 393 310 343 c 0xf4
 310 294 351 276 390 258 c 0
 424 243 465 230 506 230 c 0
 547 230 588 243 622 258 c 0
 645 269 707 302 715 343 c 1
 715 393 562 553 512 553 c 4
EndSplineSet
EndUndoOperation
EndUndoes
Redoes
EndRedoes
EndUndoRedoHistory
Fore
SplineSet
504 1293 m 0xec
 678 1293 821 1150 821 976 c 0
 821 863 761 762 670 706 c 1
 736 656 806 565 876 507 c 1
 895 531 898 574 909 600 c 1
 1157 592 l 1
 1154 515 1089 430 1028 361 c 1
 1143 252 1280 115 1390 1 c 1
 1043 1 l 1
 876 195 l 1
 823 128 743 49 650 24 c 1
 601 6 550 -4 498 -4 c 0
 409 -4 317 24 226 76 c 0
 135 126 40 216 40 348 c 1xf4
 50 472 213 613 328 713 c 1
 243 770 187 867 187 976 c 0
 187 1150 330 1293 504 1293 c 0xec
504 1083 m 0
 444 1083 397 1036 397 976 c 0xec
 397 916 444 869 504 869 c 0
 564 869 611 916 611 976 c 0
 611 1036 564 1083 504 1083 c 0
512 554 m 0
 462 554 310 393 310 343 c 0xf4
 310 294 351 276 390 258 c 0
 424 243 465 230 506 230 c 0
 547 230 588 243 622 258 c 0
 645 269 707 302 715 343 c 1
 715 393 562 554 512 554 c 0
EndSplineSet
Validated: 1
EndChar

StartChar: asterisk
Encoding: 42 42 68
Width: 1094
VWidth: 0
Flags: W
VStem: 427 248<129 453 848 1172>
LayerCount: 2
UndoRedoHistory
Layer: 1
Undoes
UndoOperation
Index: 0
Type: 1
WasModified: 0
WasOrder2: 0
Layer: 2
Width: 1094
VWidth: 0
LBearingChange: 0
UnicodeEnc: 0
InstructionsLength: 0
SplineSet
427 1172 m 5
 675 1172 l 5
 675 848 l 5
 879 1054 l 5
 1055 879 l 5
 829 650 l 5
 1055 426 l 5
 880 250 l 5
 675 453 l 5
 675 129 l 5
 427 129 l 5
 427 453 l 5
 216 250 l 5
 41 426 l 5
 267 650 l 5
 40 879 l 5
 216 1054 l 5
 427 848 l 5
 427 1172 l 5
EndSplineSet
EndUndoOperation
EndUndoes
Redoes
EndRedoes
EndUndoRedoHistory
Fore
SplineSet
427 1172 m 5
 675 1172 l 5
 675 848 l 5
 879 1054 l 5
 1055 879 l 5
 829 650 l 5
 1055 426 l 5
 880 250 l 5
 675 453 l 5
 675 129 l 5
 427 129 l 5
 427 453 l 5
 216 250 l 5
 41 426 l 5
 267 650 l 5
 40 879 l 5
 216 1054 l 5
 427 848 l 5
 427 1172 l 5
EndSplineSet
Validated: 1
EndChar

StartChar: parenleft
Encoding: 40 40 69
Width: 611
VWidth: 0
Flags: W
HStem: 0 21G<199.5 576> 1246 20G<199.5 576>
VStem: 51 256<378.75 887.103>
LayerCount: 2
UndoRedoHistory
Layer: 1
Undoes
UndoOperation
Index: 0
Type: 1
WasModified: 0
WasOrder2: 0
Layer: 2
Width: 611
VWidth: 0
LBearingChange: 0
UnicodeEnc: 0
InstructionsLength: 0
SplineSet
274 1266 m 5
 576 1266 l 5
 397 1049 307 841 307 633 c 0
 307 425 397 217 576 0 c 5
 274 0 l 5
 125 216 51 425 51 633 c 0
 51 841 125 1049 274 1266 c 5
EndSplineSet
EndUndoOperation
EndUndoes
Redoes
EndRedoes
EndUndoRedoHistory
Fore
SplineSet
274 1266 m 5
 576 1266 l 5
 397 1049 307 841 307 633 c 0
 307 425 397 217 576 0 c 5
 274 0 l 5
 125 216 51 425 51 633 c 0
 51 841 125 1049 274 1266 c 5
EndSplineSet
Validated: 1
EndChar

StartChar: parenright
Encoding: 41 41 70
Width: 611
VWidth: 0
Flags: W
HStem: 0 21G<35 410.5> 1246 20G<35 410.5>
VStem: 303 257<378.75 887.103>
LayerCount: 2
UndoRedoHistory
Layer: 1
Undoes
UndoOperation
Index: 0
Type: 1
WasModified: 0
WasOrder2: 0
Layer: 2
Width: 611
VWidth: 0
LBearingChange: 0
UnicodeEnc: 0
InstructionsLength: 0
SplineSet
336 1266 m 5
 485 1049 560 841 560 633 c 0
 560 425 485 216 336 0 c 5
 35 0 l 5
 214 217 303 425 303 633 c 0
 303 841 214 1049 35 1266 c 5
 336 1266 l 5
EndSplineSet
EndUndoOperation
EndUndoes
Redoes
EndRedoes
EndUndoRedoHistory
Fore
SplineSet
336 1266 m 5
 485 1049 560 841 560 633 c 0
 560 425 485 216 336 0 c 5
 35 0 l 5
 214 217 303 425 303 633 c 0
 303 841 214 1049 35 1266 c 5
 336 1266 l 5
EndSplineSet
Validated: 1
EndChar

StartChar: plus
Encoding: 43 43 71
Width: 838
VWidth: 0
Flags: HW
LayerCount: 2
UndoRedoHistory
Layer: 1
Undoes
UndoOperation
Index: 0
Type: 1
WasModified: 0
WasOrder2: 0
Layer: 2
Width: 838
VWidth: 0
LBearingChange: 0
UnicodeEnc: 0
InstructionsLength: 0
SplineSet
294 1047 m 5
 542 1047 l 5
 542 811 l 5
 778 811 l 5
 778 563 l 5
 542 563 l 5
 542 327 l 5
 294 327 l 5
 294 563 l 5
 58 563 l 5
 58 811 l 5
 294 811 l 5
 294 1047 l 5
EndSplineSet
EndUndoOperation
EndUndoes
Redoes
EndRedoes
EndUndoRedoHistory
Fore
SplineSet
294 1047 m 5
 542 1047 l 5
 542 811 l 5
 778 811 l 5
 778 563 l 5
 542 563 l 5
 542 327 l 5
 294 327 l 5
 294 563 l 5
 58 563 l 5
 58 811 l 5
 294 811 l 5
 294 1047 l 5
EndSplineSet
Validated: 1
EndChar

StartChar: bracketleft
Encoding: 91 91 72
Width: 577
VWidth: 0
Flags: HW
LayerCount: 2
UndoRedoHistory
Layer: 1
Undoes
UndoOperation
Index: 0
Type: 1
WasModified: 0
WasOrder2: 0
Layer: 2
Width: 577
VWidth: 0
LBearingChange: 0
UnicodeEnc: 0
InstructionsLength: 0
SplineSet
78 1291 m 5
 227 1291 376 1291 525 1291 c 5
 525 1043 l 5
 326 1043 l 5
 326 778 326 513 326 248 c 5
 525 248 l 5
 525 0 l 5
 376 0 227 0 78 0 c 5
 78 1291 l 5
EndSplineSet
EndUndoOperation
EndUndoes
Redoes
EndRedoes
EndUndoRedoHistory
Fore
SplineSet
78 1291 m 5
 227 1291 376 1291 525 1291 c 5
 525 1043 l 5
 326 1043 l 5
 326 778 326 513 326 248 c 5
 525 248 l 5
 525 0 l 5
 376 0 227 0 78 0 c 5
 78 1291 l 5
EndSplineSet
Validated: 1
EndChar

StartChar: backslash
Encoding: 92 92 73
Width: 979
VWidth: 0
Flags: HW
LayerCount: 2
UndoRedoHistory
Layer: 1
Undoes
UndoOperation
Index: 0
Type: 1
WasModified: 0
WasOrder2: 0
Layer: 2
Width: 979
VWidth: 0
LBearingChange: 0
UnicodeEnc: 0
InstructionsLength: 0
SplineSet
312 1266 m 5
 945 0 l 5
 670 0 l 5
 34 1266 l 5
 312 1266 l 5
EndSplineSet
EndUndoOperation
EndUndoes
Redoes
EndRedoes
EndUndoRedoHistory
Fore
SplineSet
312 1266 m 5
 945 0 l 5
 670 0 l 5
 34 1266 l 5
 312 1266 l 5
EndSplineSet
Validated: 1
EndChar

StartChar: bracketright
Encoding: 93 93 74
Width: 577
VWidth: 0
Flags: W
HStem: 0 248<54 253> 1043 248<54 253>
VStem: 54 447<0 248 1043 1291> 253 248<248 1043>
LayerCount: 2
UndoRedoHistory
Layer: 1
Undoes
UndoOperation
Index: 0
Type: 1
WasModified: 0
WasOrder2: 0
Layer: 2
Width: 577
VWidth: 0
LBearingChange: 0
UnicodeEnc: 0
InstructionsLength: 0
SplineSet
501 1291 m 5
 501 0 l 5
 352 0 203 0 54 0 c 5
 54 248 l 5
 253 248 l 5
 253 513 253 778 253 1043 c 5
 54 1043 l 5
 54 1291 l 5
 203 1291 352 1291 501 1291 c 5
EndSplineSet
EndUndoOperation
EndUndoes
Redoes
EndRedoes
EndUndoRedoHistory
Fore
SplineSet
501 1291 m 5xe0
 501 0 l 5
 352 0 203 0 54 0 c 5
 54 248 l 5xe0
 253 248 l 5
 253 513 253 778 253 1043 c 5xd0
 54 1043 l 5
 54 1291 l 5
 203 1291 352 1291 501 1291 c 5xe0
EndSplineSet
Validated: 1
EndChar

StartChar: at
Encoding: 64 64 75
Width: 1254
VWidth: 0
Flags: HW
LayerCount: 2
UndoRedoHistory
Layer: 1
Undoes
UndoOperation
Index: 0
Type: 1
WasModified: 0
WasOrder2: 0
Layer: 2
Width: 1254
VWidth: 0
LBearingChange: 0
UnicodeEnc: 0
InstructionsLength: 0
SplineSet
1020 643 m 2
 1020 828.045638489 854.043344907 1022 625 1022 c 0
 502 1022 382 964 306 860 c 4
 255 790 230 709 230 627 c 0
 230 536 261 445 324 371 c 4
 401 280 512 231 625 231 c 0
 686 231 747 245 804 274 c 5
 885 114 l 5
 803 72 714 52 626 52 c 0
 461 52 298 122 186 254 c 4
 95 361 50 494 50 627 c 0
 50 746 87 866 161 967 c 4
 269 1114 437 1198 611 1202 c 4
 616 1202 621 1202 626 1202 c 4
 700 1202 776 1187 848 1157 c 4
 1065 1066 1204 870 1204 645 c 0
 1204 615 1202 585 1197 555 c 4
 1170 419 1051 281 895 280 c 6
 894 280 l 2
 805 280 752 344 730 425 c 4
 728 425 726 424 725 424 c 4
 724 423 720 415 720 412 c 4
 680 408 637 402 594 402 c 0
 506.166008049 402 411 427.161617337 411 521 c 0
 411 613.63209199 493.538953358 667.582558102 565 688 c 4
 601 698 638 702 679 702 c 0
 687 702 695 701 704 701 c 5
 688.469532414 732.060935173 663.489228645 742 619 742 c 0
 587 742 555 734 537 706 c 5
 432 723 l 5
 448.731728886 803.616511907 525.281710738 845 617 845 c 4
 687.447718551 845 756.991146781 825.809738541 795 784 c 4
 832 742 841 676 841 615 c 0
 841 608 840 601 840 594 c 6
 840 594 841 572 841 549 c 0
 841 537 840 525 840 515 c 4
 840 503 841 487 843 470 c 5
 861 443 880 431 899 431 c 0
 959 431 1018 539 1020 636 c 5
 1020 643 l 2
704 602 m 5
 642.571905405 598.277085176 542 599.08097268 542 530 c 0
 542 498 569 492 595 492 c 0
 608 492 622 494 635 494 c 0
 665 494 704 505 704 505 c 5
 704 602 l 5
EndSplineSet
EndUndoOperation
EndUndoes
Redoes
EndRedoes
EndUndoRedoHistory
Fore
SplineSet
1020 643 m 2
 1020 828 854 1022 625 1022 c 0
 502 1022 382 964 306 860 c 4
 255 790 230 709 230 627 c 0
 230 536 261 445 324 371 c 4
 401 280 512 231 625 231 c 0
 686 231 747 245 804 274 c 5
 885 114 l 5
 803 72 714 52 626 52 c 0
 461 52 298 122 186 254 c 4
 95 361 50 494 50 627 c 0
 50 746 87 866 161 967 c 4
 269 1114 437 1198 611 1202 c 4
 616 1202 621 1202 626 1202 c 4
 700 1202 776 1187 848 1157 c 4
 1065 1066 1204 870 1204 645 c 0
 1204 615 1202 585 1197 555 c 4
 1170 419 1051 281 895 280 c 6
 894 280 l 2
 805 280 752 344 730 425 c 4
 728 425 726 424 725 424 c 4
 724 423 720 415 720 412 c 4
 680 408 637 402 594 402 c 0
 506 402 411 427 411 521 c 0
 411 614 494 668 565 688 c 4
 601 698 638 702 679 702 c 0
 687 702 695 701 704 701 c 5
 688 732 663 742 619 742 c 0
 587 742 555 734 537 706 c 5
 432 723 l 5
 449 804 525 845 617 845 c 4
 687 845 757 826 795 784 c 4
 832 742 841 676 841 615 c 0
 841 608 840 601 840 594 c 6
 840 594 841 572 841 549 c 0
 841 537 840 525 840 515 c 4
 840 503 841 487 843 470 c 5
 861 443 880 431 899 431 c 0
 959 431 1018 539 1020 636 c 5
 1020 643 l 2
704 602 m 5
 643 598 542 599 542 530 c 0
 542 498 569 492 595 492 c 0
 608 492 622 494 635 494 c 0
 665 494 704 505 704 505 c 5
 704 602 l 5
EndSplineSet
Validated: 1
EndChar

StartChar: question
Encoding: 63 63 76
Width: 931
VWidth: 0
Flags: HW
LayerCount: 2
UndoRedoHistory
Layer: 1
Undoes
UndoOperation
Index: 0
Type: 1
WasModified: 0
WasOrder2: 0
Layer: 2
Width: 931
VWidth: 0
LBearingChange: 0
UnicodeEnc: 0
InstructionsLength: 0
SplineSet
460 1312 m 6
 714.21511475 1312 892 1105.63520274 892 883 c 0
 892 862 890 841 887 820 c 5
 848 742 781 683 713 631 c 5
 673 595 623 568 592 523 c 5
 584 504 582 484 582 464 c 0
 582 446 584 427 584 409 c 0
 584 404 583 399 583 394 c 5
 335 394 l 5
 335 545 l 2
 335 582 339 618 363 648 c 5
 428 714 509 761 582 817 c 4
 611 840 642 860 642 897 c 0
 642 904 642 912 639 920 c 5
 623 996 554 1059 475 1062 c 4
 470 1062 466 1063 461 1063 c 0
 370 1063 287 985 285 893 c 5
 203 897 122 901 40 905 c 5
 38 912 37 919 37 927 c 0
 37 958 50 998 59 1027 c 4
 115 1192 279 1310 453 1312 c 5
 460 1312 l 6
465 291 m 4
 545 291 611 226 611 146 c 4
 611 66 545 0 465 0 c 4
 385 0 320 66 320 146 c 4
 320 226 385 291 465 291 c 4
EndSplineSet
EndUndoOperation
EndUndoes
Redoes
EndRedoes
EndUndoRedoHistory
Fore
SplineSet
460 1312 m 6
 714 1312 892 1106 892 883 c 0
 892 862 890 841 887 820 c 5
 848 742 781 683 713 631 c 5
 673 595 623 568 592 523 c 5
 584 504 582 484 582 464 c 0
 582 446 584 427 584 409 c 0
 584 404 583 399 583 394 c 5
 335 394 l 5
 335 545 l 2
 335 582 339 618 363 648 c 5
 428 714 509 761 582 817 c 4
 611 840 642 860 642 897 c 0
 642 904 642 912 639 920 c 5
 623 996 554 1059 475 1062 c 4
 470 1062 466 1063 461 1063 c 0
 370 1063 287 985 285 893 c 5
 203 897 122 901 40 905 c 5
 38 912 37 919 37 927 c 0
 37 958 50 998 59 1027 c 4
 115 1192 279 1310 453 1312 c 5
 460 1312 l 6
465 291 m 4
 545 291 611 226 611 146 c 4
 611 66 545 0 465 0 c 4
 385 0 320 66 320 146 c 4
 320 226 385 291 465 291 c 4
EndSplineSet
Validated: 1
EndChar

StartChar: less
Encoding: 60 60 77
Width: 605
VWidth: 0
Flags: HW
LayerCount: 2
UndoRedoHistory
Layer: 1
Undoes
UndoOperation
Index: 0
Type: 1
WasModified: 0
WasOrder2: 0
Layer: 2
Width: 605
VWidth: 0
LBearingChange: 0
UnicodeEnc: 0
InstructionsLength: 0
SplineSet
286 1030 m 5
 563 1030 l 5
 290 633 l 5
 563 236 l 5
 286 236 l 5
 42 633 l 5
 286 1030 l 5
EndSplineSet
EndUndoOperation
EndUndoes
Redoes
EndRedoes
EndUndoRedoHistory
Fore
SplineSet
286 1030 m 5
 563 1030 l 5
 290 633 l 5
 563 236 l 5
 286 236 l 5
 42 633 l 5
 286 1030 l 5
EndSplineSet
Validated: 1
EndChar

StartChar: greater
Encoding: 62 62 78
Width: 608
VWidth: 0
Flags: HW
LayerCount: 2
UndoRedoHistory
Layer: 1
Undoes
UndoOperation
Index: 0
Type: 1
WasModified: 0
WasOrder2: 0
Layer: 2
Width: 608
VWidth: 0
LBearingChange: 0
UnicodeEnc: 0
InstructionsLength: 0
SplineSet
321 1029 m 5
 564 632 l 5
 321 235 l 5
 43 235 l 5
 316 632 l 5
 43 1029 l 5
 321 1029 l 5
EndSplineSet
EndUndoOperation
EndUndoes
Redoes
EndRedoes
EndUndoRedoHistory
Fore
SplineSet
321 1029 m 5
 564 632 l 5
 321 235 l 5
 43 235 l 5
 316 632 l 5
 43 1029 l 5
 321 1029 l 5
EndSplineSet
Validated: 1
EndChar

StartChar: equal
Encoding: 61 61 79
Width: 912
VWidth: 0
Flags: HW
LayerCount: 2
UndoRedoHistory
Layer: 1
Undoes
UndoOperation
Index: 0
Type: 1
WasModified: 0
WasOrder2: 0
Layer: 2
Width: 912
VWidth: 0
LBearingChange: 0
UnicodeEnc: 0
InstructionsLength: 0
SplineSet
71 960 m 5
 842 960 l 5
 842 712 l 5
 71 712 l 5
 71 960 l 5
71 563 m 5
 842 563 l 5
 842 315 l 5
 71 315 l 5
 71 563 l 5
EndSplineSet
EndUndoOperation
EndUndoes
Redoes
EndRedoes
EndUndoRedoHistory
Fore
SplineSet
71 960 m 5
 842 960 l 5
 842 712 l 5
 71 712 l 5
 71 960 l 5
71 563 m 5
 842 563 l 5
 842 315 l 5
 71 315 l 5
 71 563 l 5
EndSplineSet
Validated: 1
EndChar

StartChar: semicolon
Encoding: 59 59 80
Width: 500
VWidth: 0
Flags: HW
LayerCount: 2
UndoRedoHistory
Layer: 1
Undoes
UndoOperation
Index: 0
Type: 1
WasModified: 1
WasOrder2: 0
Layer: 2
Width: 500
VWidth: 0
LBearingChange: 0
UnicodeEnc: 0
InstructionsLength: 0
SplineSet
228 977 m 0
 311 977 378 910 378 827 c 0
 378 744 311 677 228 677 c 0
 145 677 78 744 78 827 c 0
 78 910 145 977 228 977 c 0
225 398 m 0
 308 398 375 331 375 248 c 2
 375 221 l 1
 371 129 340 4 225 -103 c 1
 72 -103 l 1
 123 -56 165 28 193 101 c 1
 124 116 75 177 75 248 c 0
 75 331 142 398 225 398 c 0
EndSplineSet
EndUndoOperation
EndUndoes
Redoes
EndRedoes
EndUndoRedoHistory
Fore
SplineSet
253 977 m 0
 336 977 403 910 403 827 c 0
 403 744 336 677 253 677 c 0
 170 677 103 744 103 827 c 0
 103 910 170 977 253 977 c 0
250 398 m 0
 333 398 400 331 400 248 c 2
 400 221 l 1
 396 129 365 4 250 -103 c 1
 97 -103 l 1
 148 -56 190 28 218 101 c 1
 149 116 100 177 100 248 c 0
 100 331 167 398 250 398 c 0
EndSplineSet
Validated: 1
EndChar

StartChar: colon
Encoding: 58 58 81
Width: 500
VWidth: 0
Flags: HW
LayerCount: 2
UndoRedoHistory
Layer: 1
Undoes
UndoOperation
Index: 0
Type: 1
WasModified: 1
WasOrder2: 0
Layer: 2
Width: 500
VWidth: 0
LBearingChange: 0
UnicodeEnc: 0
InstructionsLength: 0
SplineSet
225 972 m 0
 308 972 375 905 375 822 c 0
 375 739 308 672 225 672 c 0
 142 672 75 739 75 822 c 0
 75 905 142 972 225 972 c 0
225 394 m 0
 308 394 375 327 375 244 c 0
 375 161 308 94 225 94 c 0
 142 94 75 161 75 244 c 0
 75 327 142 394 225 394 c 0
EndSplineSet
EndUndoOperation
EndUndoes
Redoes
EndRedoes
EndUndoRedoHistory
Fore
SplineSet
250 972 m 0
 333 972 400 905 400 822 c 0
 400 739 333 672 250 672 c 0
 167 672 100 739 100 822 c 0
 100 905 167 972 250 972 c 0
250 394 m 0
 333 394 400 327 400 244 c 0
 400 161 333 94 250 94 c 0
 167 94 100 161 100 244 c 0
 100 327 167 394 250 394 c 0
EndSplineSet
Validated: 1
EndChar

StartChar: quotesingle
Encoding: 39 39 82
Width: 400
VWidth: 0
Flags: HW
LayerCount: 2
UndoRedoHistory
Layer: 1
Undoes
UndoOperation
Index: 0
Type: 1
WasModified: 0
WasOrder2: 0
Layer: 2
Width: 400
VWidth: 0
LBearingChange: 0
UnicodeEnc: 0
InstructionsLength: 0
SplineSet
340 1293 m 5
 314 846 l 5
 90 846 l 5
 62 1293 l 5
 340 1293 l 5
EndSplineSet
EndUndoOperation
EndUndoes
Redoes
EndRedoes
EndUndoRedoHistory
Fore
SplineSet
340 1293 m 5
 314 846 l 5
 90 846 l 5
 62 1293 l 5
 340 1293 l 5
EndSplineSet
Validated: 1
EndChar

StartChar: quotedbl
Encoding: 34 34 83
Width: 824
VWidth: 0
Flags: W
HStem: 821 472<88 286 539 738>
VStem: 88 198<821 1091.66> 539 199<821 1091.66>
LayerCount: 2
UndoRedoHistory
Layer: 1
Undoes
UndoOperation
Index: 0
Type: 1
WasModified: 0
WasOrder2: 0
Layer: 2
Width: 824
VWidth: 0
LBearingChange: 0
UnicodeEnc: 0
InstructionsLength: 0
SplineSet
63 1293 m 5
 311 1293 l 5
 286 821 l 5
 88 821 l 5
 63 1293 l 5
515 1293 m 5
 763 1293 l 5
 738 821 l 5
 539 821 l 5
 515 1293 l 5
EndSplineSet
EndUndoOperation
EndUndoes
Redoes
EndRedoes
EndUndoRedoHistory
Fore
SplineSet
63 1293 m 5
 311 1293 l 5
 286 821 l 5
 88 821 l 5
 63 1293 l 5
515 1293 m 5
 763 1293 l 5
 738 821 l 5
 539 821 l 5
 515 1293 l 5
EndSplineSet
Validated: 1
EndChar

StartChar: comma
Encoding: 44 44 84
Width: 435
VWidth: 0
Flags: W
HStem: -204 500<189.725 259.299>
VStem: 70 300<40.6582 252.125>
LayerCount: 2
UndoRedoHistory
Layer: 1
Undoes
UndoOperation
Index: 0
Type: 1
WasModified: 0
WasOrder2: 0
Layer: 2
Width: 435
VWidth: 0
LBearingChange: 0
UnicodeEnc: 0
InstructionsLength: 0
SplineSet
220 296 m 0
 303 296 370 229 370 146 c 2
 370 120 l 1
 366 28 335 -97 220 -204 c 5
 67 -204 l 5
 118 -157 160 -73 188 0 c 1
 119 15 70 75 70 146 c 0
 70 229 137 296 220 296 c 0
EndSplineSet
EndUndoOperation
EndUndoes
Redoes
EndRedoes
EndUndoRedoHistory
Fore
SplineSet
220 296 m 0
 303 296 370 229 370 146 c 2
 370 120 l 1
 366 28 335 -97 220 -204 c 5
 67 -204 l 5
 118 -157 160 -73 188 0 c 1
 119 15 70 75 70 146 c 0
 70 229 137 296 220 296 c 0
EndSplineSet
Validated: 1
EndChar

StartChar: period
Encoding: 46 46 85
Width: 431
VWidth: 0
Flags: HW
LayerCount: 2
UndoRedoHistory
Layer: 1
Undoes
UndoOperation
Index: 0
Type: 1
WasModified: 0
WasOrder2: 0
Layer: 2
Width: 431
VWidth: 0
LBearingChange: 0
UnicodeEnc: 0
InstructionsLength: 0
SplineSet
217 300 m 4
 300 300 367 233 367 150 c 4
 367 67 300 0 217 0 c 4
 134 0 67 67 67 150 c 4
 67 233 134 300 217 300 c 4
EndSplineSet
EndUndoOperation
EndUndoes
Redoes
EndRedoes
EndUndoRedoHistory
Fore
SplineSet
217 300 m 4
 300 300 367 233 367 150 c 4
 367 67 300 0 217 0 c 4
 134 0 67 67 67 150 c 4
 67 233 134 300 217 300 c 4
EndSplineSet
Validated: 1
EndChar

StartChar: hyphen
Encoding: 45 45 86
Width: 916
VWidth: 0
Flags: W
HStem: 424 248<72 843>
LayerCount: 2
UndoRedoHistory
Layer: 1
Undoes
UndoOperation
Index: 0
Type: 1
WasModified: 0
WasOrder2: 0
Layer: 2
Width: 916
VWidth: 0
LBearingChange: 0
UnicodeEnc: 0
InstructionsLength: 0
SplineSet
72 672 m 5
 843 672 l 5
 843 424 l 5
 72 424 l 5
 72 672 l 5
EndSplineSet
EndUndoOperation
EndUndoes
Redoes
EndRedoes
EndUndoRedoHistory
Fore
SplineSet
72 672 m 5
 843 672 l 5
 843 424 l 5
 72 424 l 5
 72 672 l 5
EndSplineSet
Validated: 1
EndChar

StartChar: slash
Encoding: 47 47 87
Width: 979
VWidth: 0
Flags: W
HStem: 0 21G<33 318.047> 1246 20G<656 944>
LayerCount: 2
UndoRedoHistory
Layer: 1
Undoes
UndoOperation
Index: 0
Type: 1
WasModified: 0
WasOrder2: 0
Layer: 2
Width: 979
VWidth: 0
LBearingChange: 0
UnicodeEnc: 0
InstructionsLength: 0
SplineSet
666 1266 m 5
 944 1266 l 5
 308 0 l 5
 33 0 l 5
 666 1266 l 5
EndSplineSet
EndUndoOperation
EndUndoes
Redoes
EndRedoes
EndUndoRedoHistory
Fore
SplineSet
666 1266 m 5
 944 1266 l 5
 308 0 l 5
 33 0 l 5
 666 1266 l 5
EndSplineSet
Validated: 1
EndChar

StartChar: braceleft
Encoding: 123 123 88
Width: 579
VWidth: 0
Flags: HW
LayerCount: 2
UndoRedoHistory
Layer: 1
Undoes
UndoOperation
Index: 0
Type: 1
WasModified: 0
WasOrder2: 0
Layer: 2
Width: 579
VWidth: 0
LBearingChange: 0
UnicodeEnc: 0
InstructionsLength: 0
SplineSet
189 812 m 0
 189 854.816616413 178 894.755456277 178 942 c 0
 178 989 186 1043 218 1100 c 4
 271.049617354 1193.85701532 379.641233691 1241 526 1241 c 5
 526 993 l 5
 454 993 429 989 429 929 c 0
 429 887.302433829 438 841.334963304 438 793 c 0
 438 746 430 692 398 636 c 4
 390 623 383 621 383 621 c 5
 383 621 390 618 398 605 c 4
 430 549 438 496 438 449 c 0
 438 400.246563505 429 354.035002822 429 312 c 0
 429 252 454 248 526 248 c 5
 526 0 l 5
 318.980294902 0 178 101.889725617 178 299 c 0
 178 346.46780242 189 386.154877525 189 429 c 0
 189 529 126 553 39 596 c 5
 39 645 l 5
 126 688 189 712 189 812 c 0
EndSplineSet
EndUndoOperation
EndUndoes
Redoes
EndRedoes
EndUndoRedoHistory
Fore
SplineSet
189 812 m 0
 189 855 178 895 178 942 c 0
 178 989 186 1043 218 1100 c 4
 271 1194 380 1241 526 1241 c 5
 526 993 l 5
 454 993 429 989 429 929 c 0
 429 887 438 841 438 793 c 0
 438 746 430 692 398 636 c 4
 390 623 383 621 383 621 c 5
 383 621 390 618 398 605 c 4
 430 549 438 496 438 449 c 0
 438 400 429 354 429 312 c 0
 429 252 454 248 526 248 c 5
 526 0 l 5
 319 0 178 102 178 299 c 0
 178 346 189 386 189 429 c 0
 189 529 126 553 39 596 c 5
 39 645 l 5
 126 688 189 712 189 812 c 0
EndSplineSet
Validated: 1
EndChar

StartChar: bar
Encoding: 124 124 89
Width: 367
VWidth: 0
Flags: HW
LayerCount: 2
UndoRedoHistory
Layer: 1
Undoes
UndoOperation
Index: 0
Type: 1
WasModified: 0
WasOrder2: 0
Layer: 2
Width: 367
VWidth: 0
LBearingChange: 0
UnicodeEnc: 0
InstructionsLength: 0
SplineSet
78 1296 m 5
 291 1296 l 5
 291 -231 l 5
 78 -231 l 5
 78 1296 l 5
EndSplineSet
EndUndoOperation
EndUndoes
Redoes
EndRedoes
EndUndoRedoHistory
Fore
SplineSet
78 1296 m 5
 291 1296 l 5
 291 -231 l 5
 78 -231 l 5
 78 1296 l 5
EndSplineSet
Validated: 1
EndChar

StartChar: braceright
Encoding: 125 125 90
Width: 584
VWidth: 0
Flags: HW
LayerCount: 2
UndoRedoHistory
Layer: 1
Undoes
UndoOperation
Index: 0
Type: 1
WasModified: 0
WasOrder2: 0
Layer: 2
Width: 584
VWidth: 0
LBearingChange: 0
UnicodeEnc: 0
InstructionsLength: 0
SplineSet
143 793 m 0
 143 841.14425675 151 886.28395574 151 929 c 0
 151 989 127 993 55 993 c 5
 55 1241 l 5
 261.379698355 1241 403 1138.15772474 403 942 c 0
 403 894.648202284 391 855.70363241 391 812 c 0
 391 712 455 688 542 645 c 5
 542 596 l 5
 455 553 391 529 391 429 c 0
 391 385.756949486 403 346.212867198 403 299 c 0
 403 252 394 198 362 141 c 4
 308.794555181 46.8672899364 201.597202691 0 55 0 c 5
 55 248 l 5
 127 248 151 252 151 312 c 0
 151 354.761241589 143 400.700503178 143 449 c 0
 143 496 150 549 182 605 c 4
 190 618 197 621 197 621 c 5
 197 621 190 623 182 636 c 4
 150 692 143 746 143 793 c 0
EndSplineSet
EndUndoOperation
EndUndoes
Redoes
EndRedoes
EndUndoRedoHistory
Fore
SplineSet
143 793 m 0
 143 841 151 886 151 929 c 0
 151 989 127 993 55 993 c 5
 55 1241 l 5
 261 1241 403 1138 403 942 c 0
 403 895 391 856 391 812 c 0
 391 712 455 688 542 645 c 5
 542 596 l 5
 455 553 391 529 391 429 c 0
 391 386 403 346 403 299 c 0
 403 252 394 198 362 141 c 4
 309 47 202 0 55 0 c 5
 55 248 l 5
 127 248 151 252 151 312 c 0
 151 355 143 401 143 449 c 0
 143 496 150 549 182 605 c 4
 190 618 197 621 197 621 c 5
 197 621 190 623 182 636 c 4
 150 692 143 746 143 793 c 0
EndSplineSet
Validated: 1
EndChar

StartChar: uni0000
Encoding: 0 0 91
Width: 1257
VWidth: 0
Flags: HW
LayerCount: 2
UndoRedoHistory
Layer: 1
Undoes
UndoOperation
Index: 0
Type: 1
WasModified: 0
WasOrder2: 0
Layer: 2
Width: 1257
VWidth: 0
LBearingChange: 0
UnicodeEnc: 0
InstructionsLength: 0
SplineSet
629 1598 m 1
 1221 1006 l 1
 629 414 l 1
 37 1006 l 1
 629 1598 l 1
629 1406 m 1
 229 1006 l 1
 629 606 l 1
 1029 1006 l 1
 629 1406 l 1
489 1086 m 1
 489 1173.8891759 543.204041129 1238 625 1238 c 0
 701.198818197 1238 777 1182.22381695 777 1102 c 0
 777 1025.13190141 696.264204617 979.085664379 649 950 c 1
 649 910 l 1
 569 910 l 1
 569 999 l 1
 591 1010 l 1
 591 1010 620 1025 649 1046 c 0
 664.931834073 1058.51786963 697 1081.84964471 697 1102 c 0
 697 1137.29968117 657.878059861 1158 625 1158 c 0
 586.028484257 1158 569 1133.83675271 569 1086 c 1
 489 1086 l 1
609 862 m 0
 638 862 661 840 661 814 c 0
 661 788 638 766 609 766 c 0
 580 766 557 788 557 814 c 0
 557 840 580 862 609 862 c 0
EndSplineSet
EndUndoOperation
EndUndoes
Redoes
EndRedoes
EndUndoRedoHistory
Fore
SplineSet
629 1598 m 1
 1221 1006 l 1
 629 414 l 1
 37 1006 l 1
 629 1598 l 1
629 1406 m 1
 229 1006 l 1
 629 606 l 1
 1029 1006 l 1
 629 1406 l 1
489 1086 m 1
 489 1174 543 1238 625 1238 c 0
 701 1238 777 1182 777 1102 c 0
 777 1025 696 979 649 950 c 1
 649 910 l 1
 569 910 l 1
 569 999 l 1
 591 1010 l 1
 591 1010 620 1025 649 1046 c 0
 665 1059 697 1082 697 1102 c 0
 697 1137 658 1158 625 1158 c 0
 586 1158 569 1134 569 1086 c 1
 489 1086 l 1
609 862 m 0
 638 862 661 840 661 814 c 0
 661 788 638 766 609 766 c 0
 580 766 557 788 557 814 c 0
 557 840 580 862 609 862 c 0
EndSplineSet
Validated: 1
EndChar

StartChar: yen
Encoding: 165 165 92
Width: 1049
VWidth: 0
Flags: HW
LayerCount: 2
UndoRedoHistory
Layer: 1
Undoes
UndoOperation
Index: 0
Type: 1
WasModified: 0
WasOrder2: 0
Layer: 2
Width: 1049
VWidth: 0
LBearingChange: 0
UnicodeEnc: 0
InstructionsLength: 0
SplineSet
33 1293 m 1
 319 1293 l 1
 526 921 l 1
 729 1293 l 1
 1015 1293 l 1
 680 647 l 1
 680 486 l 1
 838 486 l 1
 838 362 l 1
 680 362 l 1
 680 288 l 1
 838 288 l 1
 838 164 l 1
 680 164 l 1
 680 2 l 5
 399 2 l 5
 399 164 l 1
 242 164 l 1
 242 288 l 1
 399 288 l 1
 399 362 l 1
 242 362 l 1
 242 486 l 1
 399 486 l 1
 399 648 l 1
 33 1293 l 1
EndSplineSet
EndUndoOperation
EndUndoes
Redoes
EndRedoes
EndUndoRedoHistory
Fore
SplineSet
33 1293 m 1
 319 1293 l 1
 526 921 l 1
 729 1293 l 1
 1015 1293 l 1
 680 647 l 1
 680 486 l 1
 838 486 l 1
 838 362 l 1
 680 362 l 1
 680 288 l 1
 838 288 l 1
 838 164 l 1
 680 164 l 1
 680 2 l 5
 399 2 l 5
 399 164 l 1
 242 164 l 1
 242 288 l 1
 399 288 l 1
 399 362 l 1
 242 362 l 1
 242 486 l 1
 399 486 l 1
 399 648 l 1
 33 1293 l 1
EndSplineSet
Validated: 1
EndChar

StartChar: asciitilde
Encoding: 126 126 93
Width: 1094
VWidth: 0
Flags: W
HStem: 457 254<640.761 769.429> 650 254<312.282 447.793> 828 20G<818.5 871.219>
LayerCount: 2
UndoRedoHistory
Layer: 1
Undoes
UndoOperation
Index: 0
Type: 1
WasModified: 0
WasOrder2: 0
Layer: 2
Width: 1094
VWidth: 0
LBearingChange: 0
UnicodeEnc: 0
InstructionsLength: 0
SplineSet
727 715 m 0
 759 740 796 780 841 848 c 1
 1048 711 l 1
 994 630 944 571 890 528 c 0
 836 485 773 457 709 457 c 0
 581 457 506 534 460 593 c 0
 428 634 401 650 378 650 c 0
 324 650 289 565 254 512 c 1
 47 650 l 1
 101 731 151 790 205 833 c 0
 259 876 322 904 386 904 c 0
 532 904 651 711 713 711 c 0
 718 711 723 712 727 715 c 0
EndSplineSet
EndUndoOperation
EndUndoes
Redoes
EndRedoes
EndUndoRedoHistory
Fore
SplineSet
727 715 m 0x80
 759 740 796 780 841 848 c 1
 1048 711 l 1
 994 630 944 571 890 528 c 0
 836 485 773 457 709 457 c 0xa0
 581 457 506 534 460 593 c 0
 428 634 401 650 378 650 c 0
 324 650 289 565 254 512 c 1
 47 650 l 1
 101 731 151 790 205 833 c 0
 259 876 322 904 386 904 c 0x40
 532 904 651 711 713 711 c 0
 718 711 723 712 727 715 c 0x80
EndSplineSet
Validated: 1
EndChar

StartChar: grave
Encoding: 96 96 94
Width: 567
VWidth: 0
Flags: HW
LayerCount: 2
UndoRedoHistory
Layer: 1
Undoes
UndoOperation
Index: 0
Type: 1
WasModified: 0
WasOrder2: 0
Layer: 2
Width: 567
VWidth: 0
LBearingChange: 0
UnicodeEnc: 0
InstructionsLength: 0
SplineSet
323 1293 m 5
 519 846 l 5
 295 846 l 5
 45 1293 l 5
 323 1293 l 5
EndSplineSet
EndUndoOperation
EndUndoes
Redoes
EndRedoes
EndUndoRedoHistory
Fore
SplineSet
323 1293 m 5
 519 846 l 5
 295 846 l 5
 45 1293 l 5
 323 1293 l 5
EndSplineSet
Validated: 1
EndChar

StartChar: NameMe.256
Encoding: 256 -1 95
Width: 671
VWidth: 0
Flags: HW
LayerCount: 2
UndoRedoHistory
Layer: 1
Undoes
UndoOperation
Index: 0
Type: 1
WasModified: 0
WasOrder2: 0
Layer: 2
Width: 671
VWidth: 0
LBearingChange: 0
UnicodeEnc: 0
InstructionsLength: 0
SplineSet
581 1318 m 1
 358 1318 l 1
 89 1598 l 1
 365 1598 l 1
 581 1318 l 1
EndSplineSet
EndUndoOperation
EndUndoes
Redoes
EndRedoes
EndUndoRedoHistory
Fore
SplineSet
581 1318 m 1
 358 1318 l 1
 89 1598 l 1
 365 1598 l 1
 581 1318 l 1
EndSplineSet
Validated: 1
EndChar

StartChar: acuteX
Encoding: 257 -1 96
Width: 670
VWidth: 0
Flags: HW
LayerCount: 2
UndoRedoHistory
Layer: 1
Undoes
UndoOperation
Index: 0
Type: 1
WasModified: 0
WasOrder2: 0
Layer: 2
Width: 670
VWidth: 0
LBearingChange: 0
UnicodeEnc: 0
InstructionsLength: 0
SplineSet
305 1598 m 1
 581 1598 l 1
 312 1318 l 1
 89 1318 l 1
 305 1598 l 1
EndSplineSet
EndUndoOperation
EndUndoes
Redoes
EndRedoes
EndUndoRedoHistory
Fore
SplineSet
305 1598 m 1
 581 1598 l 1
 312 1318 l 1
 89 1318 l 1
 305 1598 l 1
EndSplineSet
Validated: 1
EndChar

StartChar: asciicircum
Encoding: 94 94 97
Width: 1007
VWidth: 0
Flags: HW
LayerCount: 2
UndoRedoHistory
Layer: 1
Undoes
UndoOperation
Index: 0
Type: 1
WasModified: 0
WasOrder2: 0
Layer: 2
Width: 1007
VWidth: 0
LBearingChange: 0
UnicodeEnc: 0
InstructionsLength: 0
SplineSet
345 1293 m 5
 662 1293 l 5
 959 698 l 5
 681 698 l 5
 503 1054 l 5
 326 698 l 5
 48 698 l 5
 345 1293 l 5
EndSplineSet
EndUndoOperation
EndUndoes
Redoes
EndRedoes
EndUndoRedoHistory
Fore
SplineSet
345 1293 m 5
 662 1293 l 5
 959 698 l 5
 681 698 l 5
 503 1054 l 5
 326 698 l 5
 48 698 l 5
 345 1293 l 5
EndSplineSet
Validated: 1
EndChar

StartChar: underscore
Encoding: 95 95 98
Width: 1165
VWidth: 0
Flags: HW
LayerCount: 2
UndoRedoHistory
Layer: 1
Undoes
UndoOperation
Index: 0
Type: 1
WasModified: 0
WasOrder2: 0
Layer: 2
Width: 1165
VWidth: 0
LBearingChange: 0
UnicodeEnc: 0
InstructionsLength: 0
SplineSet
0 202 m 1
 1165 202 l 5
 1165 -46 l 5
 0 -46 l 1
 0 202 l 1
EndSplineSet
EndUndoOperation
EndUndoes
Redoes
EndRedoes
EndUndoRedoHistory
Fore
SplineSet
0 202 m 1
 1165 202 l 5
 1165 -46 l 5
 0 -46 l 1
 0 202 l 1
EndSplineSet
Validated: 1
EndChar

StartChar: Euro
Encoding: 128 8364 99
Width: 1173
VWidth: 0
Flags: HW
LayerCount: 2
UndoRedoHistory
Layer: 1
Undoes
UndoOperation
Index: 0
Type: 1
WasModified: 0
WasOrder2: 0
Layer: 2
Width: 1173
VWidth: 0
LBearingChange: 0
UnicodeEnc: 0
InstructionsLength: 0
SplineSet
733 1326 m 4
 882.536276915 1326 1009.53616535 1264.20448237 1112 1150 c 5
 927 984 l 5
 867 1051 802 1078 738 1078 c 2
 722 1078 l 5
 654 1073 583 1037 523 954 c 4
 495 915 473 869 459 820 c 5
 763 820 l 5
 763 700 l 5
 439 700 l 5
 438 688 438 677 438 665 c 0
 438 647 439 628 441 610 c 5
 763 610 l 5
 763 490 l 5
 465 490 l 5
 482 437 506 389 539 350 c 4
 601 276 670 248 736 248 c 2
 743 248 l 5
 811 250 882 283 944 363 c 5
 1141 212 l 5
 1040 81 898 4 750 0 c 5
 737 -0 l 2
 594 0 452 69 349 191 c 4
 276 278 227 381 202 490 c 5
 47 490 l 5
 47 610 l 5
 185 610 l 5
 184 627 183 645 183 662 c 0
 183 675 183 687 184 700 c 5
 47 700 l 5
 47 820 l 5
 199 820 l 5
 220 919 260 1015 321 1099 c 4
 421.67588748 1238.07803013 566.981223312 1326 733 1326 c 4
EndSplineSet
EndUndoOperation
EndUndoes
Redoes
EndRedoes
EndUndoRedoHistory
Fore
SplineSet
733 1326 m 4
 883 1326 1010 1264 1112 1150 c 5
 927 984 l 5
 867 1051 802 1078 738 1078 c 2
 722 1078 l 5
 654 1073 583 1037 523 954 c 4
 495 915 473 869 459 820 c 5
 763 820 l 5
 763 700 l 5
 439 700 l 5
 438 688 438 677 438 665 c 0
 438 647 439 628 441 610 c 5
 763 610 l 5
 763 490 l 5
 465 490 l 5
 482 437 506 389 539 350 c 4
 601 276 670 248 736 248 c 2
 743 248 l 5
 811 250 882 283 944 363 c 5
 1141 212 l 5
 1040 81 898 4 750 0 c 5
 737 -0 l 2
 594 0 452 69 349 191 c 4
 276 278 227 381 202 490 c 5
 47 490 l 5
 47 610 l 5
 185 610 l 5
 184 627 183 645 183 662 c 0
 183 675 183 687 184 700 c 5
 47 700 l 5
 47 820 l 5
 199 820 l 5
 220 919 260 1015 321 1099 c 4
 422 1238 567 1326 733 1326 c 4
EndSplineSet
Validated: 1
EndChar

StartChar: thorn
Encoding: 254 254 100
Width: 1009
VWidth: 0
Flags: HW
LayerCount: 2
UndoRedoHistory
Layer: 1
Undoes
UndoOperation
Index: 0
Type: 1
WasModified: 0
WasOrder2: 0
Layer: 2
Width: 1009
VWidth: 0
LBearingChange: 0
UnicodeEnc: 0
InstructionsLength: 0
SplineSet
511 887 m 4
 755 887 956 686 956 442 c 4
 956 198 755 -3 511 -3 c 4
 442 -3 377 13 319 41 c 5
 319 -423 l 5
 72 -423 l 5
 72 1293 l 5
 319 1293 l 5
 319 844 l 5
 377 872 442 887 511 887 c 4
511 640 m 4
 417 640 340 578 319 492 c 5
 319 393 l 5
 340 307 417 245 511 245 c 4
 622 245 709 331 709 442 c 4
 709 553 622 640 511 640 c 4
EndSplineSet
EndUndoOperation
EndUndoes
Redoes
EndRedoes
EndUndoRedoHistory
Fore
SplineSet
511 887 m 4
 755 887 956 686 956 442 c 4
 956 198 755 -3 511 -3 c 4
 442 -3 377 13 319 41 c 5
 319 -423 l 5
 72 -423 l 5
 72 1293 l 5
 319 1293 l 5
 319 844 l 5
 377 872 442 887 511 887 c 4
511 640 m 4
 417 640 340 578 319 492 c 5
 319 393 l 5
 340 307 417 245 511 245 c 4
 622 245 709 331 709 442 c 4
 709 553 622 640 511 640 c 4
EndSplineSet
Validated: 1
EndChar

StartChar: Oslash
Encoding: 216 216 101
Width: 1254
VWidth: 0
Flags: HW
LayerCount: 2
UndoRedoHistory
Layer: 1
Undoes
UndoOperation
Index: 0
Type: 1
WasModified: 0
WasOrder2: 0
Layer: 2
Width: 1254
VWidth: 0
LBearingChange: 0
UnicodeEnc: 0
InstructionsLength: 0
SplineSet
916 1412 m 5
 1197 1412 l 5
 1035 1107 l 5
 1137 986 1198 820 1198 643 c 4
 1198 289 952 -20 622 -20 c 4
 562 -20 505 -10 452 9 c 5
 365 -155 l 5
 86 -151 l 5
 242 144 l 5
 120 268 46 448 46 643 c 4
 46 997 292 1307 622 1307 c 4
 698 1307 770 1290 835 1260 c 5
 916 1412 l 5
622 1059 m 4
 452 1059 294 885 294 643 c 4
 294 541 322 451 368 381 c 5
 718 1040 l 5
 687 1052 655 1059 622 1059 c 4
903 858 m 5
 571 233 l 5
 588 230 605 228 622 228 c 4
 792 228 950 401 950 643 c 4
 950 724 933 796 903 858 c 5
EndSplineSet
EndUndoOperation
EndUndoes
Redoes
EndRedoes
EndUndoRedoHistory
Fore
SplineSet
916 1412 m 5
 1197 1412 l 5
 1035 1107 l 5
 1137 986 1198 820 1198 643 c 4
 1198 289 952 -20 622 -20 c 4
 562 -20 505 -10 452 9 c 5
 365 -155 l 5
 86 -151 l 5
 242 144 l 5
 120 268 46 448 46 643 c 4
 46 997 292 1307 622 1307 c 4
 698 1307 770 1290 835 1260 c 5
 916 1412 l 5
622 1059 m 4
 452 1059 294 885 294 643 c 4
 294 541 322 451 368 381 c 5
 718 1040 l 5
 687 1052 655 1059 622 1059 c 4
903 858 m 5
 571 233 l 5
 588 230 605 228 622 228 c 4
 792 228 950 401 950 643 c 4
 950 724 933 796 903 858 c 5
EndSplineSet
Validated: 1
EndChar

StartChar: eth
Encoding: 240 240 102
Width: 994
VWidth: 0
Flags: HW
LayerCount: 2
UndoRedoHistory
Layer: 1
Undoes
UndoOperation
Index: 0
Type: 1
WasModified: 0
WasOrder2: 0
Layer: 2
Width: 994
VWidth: 0
LBearingChange: 0
UnicodeEnc: 0
InstructionsLength: 0
SplineSet
748 1303 m 5
 816 1182 l 5
 816 1182 780 1177 701 1132 c 5
 829 964 938 711 938 450 c 0
 938 368 911 292 868 210 c 5
 789 84 649 0 491 0 c 4
 247 0 46 201 46 445 c 4
 46 689 247 890 491 890 c 4
 517 890 543 887 568 883 c 5
 546 924 526 970 495 1015 c 5
 458 994 416 970 377 947 c 5
 300 1062 l 5
 334 1084 375 1105 411 1127 c 5
 356 1191 292 1248 220 1299 c 5
 501 1299 l 5
 537 1280 571 1260 601 1235 c 5
 695 1288 748 1303 748 1303 c 5
491 643 m 4
 380 643 293 556 293 445 c 4
 293 334 380 247 491 247 c 4
 602 247 689 334 689 445 c 4
 689 556 602 643 491 643 c 4
EndSplineSet
EndUndoOperation
EndUndoes
Redoes
EndRedoes
EndUndoRedoHistory
Fore
SplineSet
748 1303 m 5
 816 1182 l 5
 816 1182 780 1177 701 1132 c 5
 829 964 938 711 938 450 c 0
 938 368 911 292 868 210 c 5
 789 84 649 0 491 0 c 4
 247 0 46 201 46 445 c 4
 46 689 247 890 491 890 c 4
 517 890 543 887 568 883 c 5
 546 924 526 970 495 1015 c 5
 458 994 416 970 377 947 c 5
 300 1062 l 5
 334 1084 375 1105 411 1127 c 5
 356 1191 292 1248 220 1299 c 5
 501 1299 l 5
 537 1280 571 1260 601 1235 c 5
 695 1288 748 1303 748 1303 c 5
491 643 m 4
 380 643 293 556 293 445 c 4
 293 334 380 247 491 247 c 4
 602 247 689 334 689 445 c 4
 689 556 602 643 491 643 c 4
EndSplineSet
Validated: 1
EndChar

StartChar: ordmasculine
Encoding: 186 186 103
Width: 661
VWidth: 0
Flags: HW
LayerCount: 2
UndoRedoHistory
Layer: 1
Undoes
UndoOperation
Index: 0
Type: 1
WasModified: 0
WasOrder2: 0
Layer: 2
Width: 661
VWidth: 0
LBearingChange: 0
UnicodeEnc: 0
InstructionsLength: 0
SplineSet
339 1293 m 4
 476 1293 588 1180 588 1043 c 4
 588 906 476 794 339 794 c 4
 202 794 89 906 89 1043 c 4
 89 1180 202 1293 339 1293 c 4
339 1154 m 4
 277 1154 228 1105 228 1043 c 4
 228 981 277 932 339 932 c 4
 401 932 450 981 450 1043 c 4
 450 1105 401 1154 339 1154 c 4
55 696 m 5
 600 696 l 5
 600 543 l 5
 55 543 l 5
 55 696 l 5
EndSplineSet
EndUndoOperation
EndUndoes
Redoes
EndRedoes
EndUndoRedoHistory
Fore
SplineSet
339 1293 m 4
 476 1293 588 1180 588 1043 c 4
 588 906 476 794 339 794 c 4
 202 794 89 906 89 1043 c 4
 89 1180 202 1293 339 1293 c 4
339 1154 m 4
 277 1154 228 1105 228 1043 c 4
 228 981 277 932 339 932 c 4
 401 932 450 981 450 1043 c 4
 450 1105 401 1154 339 1154 c 4
55 696 m 5
 600 696 l 5
 600 543 l 5
 55 543 l 5
 55 696 l 5
EndSplineSet
Validated: 1
EndChar

StartChar: ordfeminine
Encoding: 170 170 104
Width: 659
VWidth: 0
Flags: HW
LayerCount: 2
UndoRedoHistory
Layer: 1
Undoes
UndoOperation
Index: 0
Type: 1
WasModified: 0
WasOrder2: 0
Layer: 2
Width: 659
VWidth: 0
LBearingChange: 0
UnicodeEnc: 0
InstructionsLength: 0
SplineSet
113 1160 m 5
 131.366738541 1247.24200807 214.496304623 1293 315 1293 c 4
 392.759022614 1293 468.429889771 1271.64137401 509 1226 c 4
 550 1180 559 1108 559 1041 c 2
 559 926 l 2
 559 894 566 838 576 820 c 5
 576 820 468 819 455 819 c 4
 452 820 452 831 449 833 c 4
 438.399115871 840.067256086 427 828.566886434 427 819 c 5
 384 815 337 809 290 809 c 0
 192.606614271 809 89 835.739458792 89 939 c 0
 89 1039.18228405 180.341623699 1100.0963554 258 1122 c 4
 298 1133 337 1137 382 1137 c 0
 391 1137 400 1136 410 1136 c 5
 391.465447115 1170.4213125 365.55798747 1181 316 1181 c 0
 281 1181 246 1172 227 1141 c 5
 113 1160 l 5
409 1028 m 5
 341.362029836 1022.36350249 233 1026.61692562 233 949 c 0
 233 914 262 908 291 908 c 0
 305 908 320 909 334 909 c 6
 335 909 l 2
 367 909 409 921 409 921 c 5
 409 1028 l 5
56 708 m 5
 601 708 l 5
 601 555 l 5
 56 555 l 5
 56 708 l 5
EndSplineSet
EndUndoOperation
EndUndoes
Redoes
EndRedoes
EndUndoRedoHistory
Fore
SplineSet
113 1160 m 5
 131 1247 214 1293 315 1293 c 4
 393 1293 468 1272 509 1226 c 4
 550 1180 559 1108 559 1041 c 2
 559 926 l 2
 559 894 566 838 576 820 c 5
 576 820 468 819 455 819 c 4
 452 820 452 831 449 833 c 4
 438 840 427 829 427 819 c 5
 384 815 337 809 290 809 c 0
 193 809 89 836 89 939 c 0
 89 1039 180 1100 258 1122 c 4
 298 1133 337 1137 382 1137 c 0
 391 1137 400 1136 410 1136 c 5
 391 1170 366 1181 316 1181 c 0
 281 1181 246 1172 227 1141 c 5
 113 1160 l 5
409 1028 m 5
 341 1022 233 1027 233 949 c 0
 233 914 262 908 291 908 c 0
 305 908 320 909 334 909 c 6
 335 909 l 2
 367 909 409 921 409 921 c 5
 409 1028 l 5
56 708 m 5
 601 708 l 5
 601 555 l 5
 56 555 l 5
 56 708 l 5
EndSplineSet
Validated: 1
EndChar

StartChar: OE
Encoding: 140 338 105
Width: 1788
VWidth: 0
Flags: HW
LayerCount: 2
UndoRedoHistory
Layer: 1
Undoes
UndoOperation
Index: 0
Type: 1
WasModified: 0
WasOrder2: 0
Layer: 2
Width: 1788
VWidth: 0
LBearingChange: 0
UnicodeEnc: 0
InstructionsLength: 0
SplineSet
888 1229 m 1
 888 1289 l 1
 1733 1289 l 1
 1733 1041 l 1
 1137 1041 l 1
 1137 767 l 1
 1570 767 l 1
 1570 519 l 1
 1137 519 l 1
 1137 248 l 1
 1732 248 l 1
 1732 0 l 1
 888 0 l 1
 888 65 l 1
 809 19 720 -6 623 -6 c 0
 296 -6 47 291 47 636 c 0
 47 981 296 1301 623 1301 c 0
 720 1301 809 1275 888 1229 c 1
623 242 m 0
 807.584062875 242 951 424.131217571 951 636 c 0
 951 724 928 803 889 867 c 0
 828 967 729 1053 623 1053 c 0
 450 1053 295 864 295 636 c 0
 295 408 450 242 623 242 c 0
EndSplineSet
EndUndoOperation
EndUndoes
Redoes
EndRedoes
EndUndoRedoHistory
Fore
SplineSet
888 1229 m 1
 888 1289 l 1
 1733 1289 l 1
 1733 1041 l 1
 1137 1041 l 1
 1137 767 l 1
 1570 767 l 1
 1570 519 l 1
 1137 519 l 1
 1137 248 l 1
 1732 248 l 1
 1732 0 l 1
 888 0 l 1
 888 65 l 1
 809 19 720 -6 623 -6 c 0
 296 -6 47 291 47 636 c 0
 47 981 296 1301 623 1301 c 0
 720 1301 809 1275 888 1229 c 1
623 242 m 0
 808 242 951 424 951 636 c 0
 951 724 928 803 889 867 c 0
 828 967 729 1053 623 1053 c 0
 450 1053 295 864 295 636 c 0
 295 408 450 242 623 242 c 0
EndSplineSet
Validated: 1
EndChar

StartChar: mu
Encoding: 181 181 106
Width: 980
VWidth: 0
Flags: HW
LayerCount: 2
UndoRedoHistory
Layer: 1
Undoes
UndoOperation
Index: 0
Type: 1
WasModified: 0
WasOrder2: 0
Layer: 2
Width: 980
VWidth: 0
LBearingChange: 0
UnicodeEnc: 0
InstructionsLength: 0
SplineSet
651 813 m 5
 898 813 l 5
 898 73 l 2
 898 53 900 36 930 5 c 5
 798 -179 l 5
 752 -144 651 3 651 32 c 5
 606 -6 534 -26 460 -26 c 0
 413 -26 365 -18 322 0 c 5
 322 -423 l 5
 75 -423 l 5
 75 -12 75 399 75 810 c 5
 322 810 l 5
 322 383 l 6
 322 316 379 208 488 208 c 2
 489 208 l 6
 599 209 651 306 651 364 c 6
 651 813 l 5
EndSplineSet
EndUndoOperation
EndUndoes
Redoes
EndRedoes
EndUndoRedoHistory
Fore
SplineSet
651 813 m 5
 898 813 l 5
 898 73 l 2
 898 53 900 36 930 5 c 5
 798 -179 l 5
 752 -144 651 3 651 32 c 5
 606 -6 534 -26 460 -26 c 0
 413 -26 365 -18 322 0 c 5
 322 -423 l 5
 75 -423 l 5
 75 -12 75 399 75 810 c 5
 322 810 l 5
 322 383 l 6
 322 316 379 208 488 208 c 2
 489 208 l 6
 599 209 651 306 651 364 c 6
 651 813 l 5
EndSplineSet
Validated: 1
EndChar

StartChar: copyright
Encoding: 169 169 107
Width: 1193
VWidth: 0
Flags: HW
LayerCount: 2
UndoRedoHistory
Layer: 1
Undoes
UndoOperation
Index: 0
Type: 1
WasModified: 0
WasOrder2: 0
Layer: 2
Width: 1193
VWidth: 0
LBearingChange: 0
UnicodeEnc: 0
InstructionsLength: 0
SplineSet
596 1200 m 4
 897 1200 1143 954 1143 653 c 4
 1143 352 897 107 596 107 c 4
 295 107 50 352 50 653 c 4
 50 954 295 1200 596 1200 c 4
596 1020 m 4
 393 1020 230 856 230 653 c 4
 230 450 393 287 596 287 c 4
 799 287 963 450 963 653 c 4
 963 856 799 1020 596 1020 c 4
330 666 m 4
 335.787435108 802.583468541 442.211026342 931 602 931 c 6
 612 931 l 5
 697 928 778 884 828 811 c 5
 704 727 l 5
 680 762 642 781 603 781 c 0
 530.461645518 781 482.300758859 723.42124805 480 659 c 5
 480 654 l 2
 480 589.28658704 528.64945464 526 603 526 c 0
 638 526 673 543 697 573 c 5
 814 478 l 5
 761 413 683 377 602 377 c 0
 437.416311694 377 330 513.114666086 330 654 c 0
 330 658 330 662 330 666 c 4
EndSplineSet
EndUndoOperation
EndUndoes
Redoes
EndRedoes
EndUndoRedoHistory
Fore
SplineSet
596 1200 m 4
 897 1200 1143 954 1143 653 c 4
 1143 352 897 107 596 107 c 4
 295 107 50 352 50 653 c 4
 50 954 295 1200 596 1200 c 4
596 1020 m 4
 393 1020 230 856 230 653 c 4
 230 450 393 287 596 287 c 4
 799 287 963 450 963 653 c 4
 963 856 799 1020 596 1020 c 4
330 666 m 4
 336 803 442 931 602 931 c 6
 612 931 l 5
 697 928 778 884 828 811 c 5
 704 727 l 5
 680 762 642 781 603 781 c 0
 530 781 482 723 480 659 c 5
 480 654 l 2
 480 589 529 526 603 526 c 0
 638 526 673 543 697 573 c 5
 814 478 l 5
 761 413 683 377 602 377 c 0
 437 377 330 513 330 654 c 0
 330 658 330 662 330 666 c 4
EndSplineSet
Validated: 1
EndChar

StartChar: registered
Encoding: 174 174 108
Width: 1193
VWidth: 0
Flags: HW
LayerCount: 2
UndoRedoHistory
Layer: 1
Undoes
UndoOperation
Index: 0
Type: 1
WasModified: 0
WasOrder2: 0
Layer: 2
Width: 1193
VWidth: 0
LBearingChange: 0
UnicodeEnc: 0
InstructionsLength: 0
SplineSet
596 1183 m 4
 897 1183 1143 938 1143 637 c 4
 1143 336 897 90 596 90 c 4
 295 90 50 336 50 637 c 4
 50 938 295 1183 596 1183 c 4
596 1003 m 4
 393 1003 230 840 230 637 c 4
 230 434 393 270 596 270 c 4
 799 270 963 434 963 637 c 4
 963 840 799 1003 596 1003 c 4
414 932 m 5
 615 932 l 6
 713 932 794 851 794 753 c 4
 794 688 758 630 705 599 c 5
 840 370 l 5
 700 370 l 5
 579 573 l 5
 535 573 l 5
 535 370 l 5
 414 370 l 5
 414 932 l 5
535 811 m 5
 535 694 l 5
 615 694 l 6
 648 694 673 720 673 753 c 4
 673 786 648 811 615 811 c 6
 535 811 l 5
EndSplineSet
EndUndoOperation
EndUndoes
Redoes
EndRedoes
EndUndoRedoHistory
Fore
SplineSet
596 1183 m 4
 897 1183 1143 938 1143 637 c 4
 1143 336 897 90 596 90 c 4
 295 90 50 336 50 637 c 4
 50 938 295 1183 596 1183 c 4
596 1003 m 4
 393 1003 230 840 230 637 c 4
 230 434 393 270 596 270 c 4
 799 270 963 434 963 637 c 4
 963 840 799 1003 596 1003 c 4
414 932 m 5
 615 932 l 6
 713 932 794 851 794 753 c 4
 794 688 758 630 705 599 c 5
 840 370 l 5
 700 370 l 5
 579 573 l 5
 535 573 l 5
 535 370 l 5
 414 370 l 5
 414 932 l 5
535 811 m 5
 535 694 l 5
 615 694 l 6
 648 694 673 720 673 753 c 4
 673 786 648 811 615 811 c 6
 535 811 l 5
EndSplineSet
Validated: 1
EndChar

StartChar: oe
Encoding: 156 339 109
Width: 1610
VWidth: 0
Flags: HW
LayerCount: 2
UndoRedoHistory
Layer: 1
Undoes
UndoOperation
Index: 0
Type: 1
WasModified: 1
WasOrder2: 0
Layer: 2
Width: 1610
VWidth: 0
LBearingChange: 0
UnicodeEnc: 0
InstructionsLength: 0
SplineSet
918 353 m 5
 941 250 1022 180 1146 180 c 4
 1216 180 1287 207 1320 273 c 5
 1544 175 l 5
 1472 31 1303 -48 1134 -48 c 4
 1071 -48 1009 -37 951 -15 c 4
 890 9 837 30 794 73 c 5
 714 -1 608 -46 492 -46 c 4
 248 -46 47 155 47 399 c 4
 47 643 248 844 492 844 c 4
 614 844 726 794 807 713 c 5
 888 788 995 848 1112 848 c 4
 1376 848 1555 633 1555 402 c 4
 1555 386 1556 369 1556 353 c 5
 918 353 l 5
1110 648 m 4
 1005 648 940 542 939 511 c 5
 1281 511 l 5
 1281 543 1237 647 1110 648 c 4
492 597 m 4
 381 597 294 510 294 399 c 4
 294 288 381 201 492 201 c 4
 603 201 690 288 690 399 c 4
 690 508.295898438 601.295898438 597 492 597 c 4
EndSplineSet
EndUndoOperation
EndUndoes
Redoes
EndRedoes
EndUndoRedoHistory
Fore
SplineSet
918 353 m 5
 941 250 1022 180 1146 180 c 4
 1216 180 1287 207 1320 273 c 5
 1544 175 l 5
 1472 31 1303 -48 1134 -48 c 4
 1071 -48 1009 -37 951 -15 c 4
 890 9 837 30 794 73 c 5
 714 -1 608 -46 492 -46 c 4
 248 -46 47 155 47 399 c 4
 47 643 248 844 492 844 c 4
 614 844 726 794 807 713 c 5
 888 788 995 848 1112 848 c 4
 1376 848 1555 633 1555 402 c 4
 1555 386 1556 369 1556 353 c 5
 918 353 l 5
1110 648 m 4
 1005 648 940 542 939 511 c 5
 1281 511 l 5
 1281 543 1237 647 1110 648 c 4
492 597 m 4
 381 597 294 510 294 399 c 4
 294 288 381 201 492 201 c 4
 603 201 690 288 690 399 c 4
 690 508 601 597 492 597 c 4
EndSplineSet
Validated: 1
EndChar

StartChar: oslash
Encoding: 248 248 110
Width: 968
VWidth: 0
Flags: HW
LayerCount: 2
UndoRedoHistory
Layer: 1
Undoes
UndoOperation
Index: 0
Type: 1
WasModified: 0
WasOrder2: 0
Layer: 2
Width: 968
VWidth: 0
LBearingChange: 0
UnicodeEnc: 0
InstructionsLength: 0
SplineSet
799 885 m 5
 894 806 l 5
 802 693 l 5
 871 616 913 515 913 404 c 4
 913 167 719 -27 482 -27 c 4
 401 -27 325 -4 260 35 c 5
 137 -116 l 5
 41 -37 l 5
 165 113 l 5
 94 190 50 292 50 404 c 4
 50 641 245 836 482 836 c 4
 564 836 641 812 707 772 c 5
 799 885 l 5
482 616 m 4
 364 616 270 522 270 404 c 4
 270 360 283 319 306 285 c 5
 565 600 l 5
 540 611 511 616 482 616 c 4
659 520 m 5
 403 208 l 5
 427 198 454 193 482 193 c 4
 600 193 693 286 693 404 c 4
 693 447 680 487 659 520 c 5
EndSplineSet
EndUndoOperation
EndUndoes
Redoes
EndRedoes
EndUndoRedoHistory
Fore
SplineSet
799 885 m 5
 894 806 l 5
 802 693 l 5
 871 616 913 515 913 404 c 4
 913 167 719 -27 482 -27 c 4
 401 -27 325 -4 260 35 c 5
 137 -116 l 5
 41 -37 l 5
 165 113 l 5
 94 190 50 292 50 404 c 4
 50 641 245 836 482 836 c 4
 564 836 641 812 707 772 c 5
 799 885 l 5
482 616 m 4
 364 616 270 522 270 404 c 4
 270 360 283 319 306 285 c 5
 565 600 l 5
 540 611 511 616 482 616 c 4
659 520 m 5
 403 208 l 5
 427 198 454 193 482 193 c 4
 600 193 693 286 693 404 c 4
 693 447 680 487 659 520 c 5
EndSplineSet
Validated: 1
EndChar

StartChar: ae
Encoding: 230 230 111
Width: 1543
VWidth: 0
Flags: HW
LayerCount: 2
UndoRedoHistory
Layer: 1
Undoes
UndoOperation
Index: 0
Type: 1
WasModified: 0
WasOrder2: 0
Layer: 2
Width: 1543
VWidth: 0
LBearingChange: 0
UnicodeEnc: 0
InstructionsLength: 0
SplineSet
83 617 m 5
 115.181077945 773.308092877 264.002166037 854 443 854 c 6
 445 854 l 2
 574.449880875 854 692.168968831 822.750744199 770 754 c 5
 847 814 942 850 1045 850 c 4
 1308.34693534 850 1488 633.725130171 1488 403 c 4
 1488 387 1489 371 1489 355 c 5
 851 355 l 5
 874.358490107 251.346700149 953.976399558 182 1079 182 c 0
 1149 182 1220 209 1253 275 c 5
 1477 177 l 5
 1406 35 1241 -43 1075 -46 c 5
 1071 -46 l 2
 976 -46 861 -17 770 38 c 5
 694 -3 555 -36 416 -36 c 0
 293 -36 168 -10 88 57 c 5
 59 91 43 139 41 184 c 4
 41 187 41 190 41 193 c 0
 41 280 83 344 140 393 c 4
 199 444 274 469 343 489 c 4
 410 508 476 513 552 513 c 0
 572 513 592 513 613 512 c 5
 613 544 l 2
 613 638.026411512 537.456437508 654 446 654 c 0
 384 654 321 639 286 584 c 5
 83 617 l 5
1043 649 m 0
 938 649 873 543 872 512 c 5
 1214 512 l 5
 1214 544 1170 648 1043 649 c 0
298 210 m 0
 298 136.752502356 376.791320706 126 444 126 c 0
 500 126 560 137 612 146 c 5
 612 355 l 5
 611 355 610 355 609 355 c 0
 544 355 452 342 389 324 c 4
 340 309 298 279 298 210 c 0
EndSplineSet
EndUndoOperation
EndUndoes
Redoes
EndRedoes
EndUndoRedoHistory
Fore
SplineSet
83 617 m 5
 115 773 264 854 443 854 c 6
 445 854 l 2
 574 854 692 823 770 754 c 5
 847 814 942 850 1045 850 c 4
 1308 850 1488 634 1488 403 c 4
 1488 387 1489 371 1489 355 c 5
 851 355 l 5
 874 251 954 182 1079 182 c 0
 1149 182 1220 209 1253 275 c 5
 1477 177 l 5
 1406 35 1241 -43 1075 -46 c 5
 1071 -46 l 2
 976 -46 861 -17 770 38 c 5
 694 -3 555 -36 416 -36 c 0
 293 -36 168 -10 88 57 c 5
 59 91 43 139 41 184 c 4
 41 187 41 190 41 193 c 0
 41 280 83 344 140 393 c 4
 199 444 274 469 343 489 c 4
 410 508 476 513 552 513 c 0
 572 513 592 513 613 512 c 5
 613 544 l 2
 613 638 537 654 446 654 c 0
 384 654 321 639 286 584 c 5
 83 617 l 5
1043 649 m 0
 938 649 873 543 872 512 c 5
 1214 512 l 5
 1214 544 1170 648 1043 649 c 0
298 210 m 0
 298 137 377 126 444 126 c 0
 500 126 560 137 612 146 c 5
 612 355 l 5
 611 355 610 355 609 355 c 0
 544 355 452 342 389 324 c 4
 340 309 298 279 298 210 c 0
EndSplineSet
Validated: 1
EndChar

StartChar: ccedilla
Encoding: 231 231 112
Width: 896
VWidth: 0
Flags: HW
LayerCount: 2
UndoRedoHistory
Layer: 1
Undoes
UndoOperation
Index: 0
Type: 1
WasModified: 1
WasOrder2: 0
Layer: 2
Width: 896
VWidth: 0
LBearingChange: 0
UnicodeEnc: 0
InstructionsLength: 0
SplineSet
395 8 m 5
 190 57 48 238 48 443 c 2
 48 462 l 5
 56 653 187 817 370 870 c 4
 410 882 451 888 491 888 c 4
 497 888 503 887 509 887 c 4
 647 882 779 813 860 695 c 5
 656 555 l 5
 618 610 558 641 494 641 c 0
 377 641 300 550 295 451 c 4
 295 448 295 445 295 442 c 0
 295 340 374 245 494 245 c 0
 552 245 607 270 646 317 c 5
 837 160 l 5
 761 67 652 12 537 0 c 5
 537 -2 l 5
 538 -2 544 -11 557 -24 c 4
 577 -44 602 -65 605 -110 c 4
 605 -113 606 -115 606 -118 c 0
 606 -218 514 -304 410 -304 c 2
 403 -304 l 5
 408 -165 l 5
 408.607299416 -165.025304142 409.214598831 -165.037802292 409.821622809 -165.037802292 c 0
 433.203713738 -165.037802292 456.177128996 -146.493917154 463 -127 c 5
 445 -109 420 -92 405 -47 c 4
 398 -27 395 -9 395 8 c 5
EndSplineSet
EndUndoOperation
EndUndoes
Redoes
EndRedoes
EndUndoRedoHistory
Fore
SplineSet
395 8 m 5
 190 57 48 238 48 443 c 2
 48 462 l 5
 56 653 187 817 370 870 c 4
 410 882 451 888 491 888 c 4
 497 888 503 887 509 887 c 4
 647 882 779 813 860 695 c 5
 656 555 l 5
 618 610 558 641 494 641 c 0
 377 641 300 550 295 451 c 4
 295 448 295 445 295 442 c 0
 295 340 374 245 494 245 c 0
 552 245 607 270 646 317 c 5
 837 160 l 5
 761 67 652 12 537 0 c 5
 537 -2 l 5
 538 -2 544 -11 557 -24 c 4
 577 -44 602 -65 605 -110 c 4
 605 -113 606 -115 606 -118 c 0
 606 -218 514 -304 410 -304 c 2
 403 -304 l 5
 408 -165 l 5
 409 -165 409 -165 410 -165 c 0
 433 -165 456 -146 463 -127 c 5
 445 -109 420 -92 405 -47 c 4
 398 -27 395 -9 395 8 c 5
EndSplineSet
Validated: 1
EndChar

StartChar: logicalnot
Encoding: 172 172 113
Width: 1252
VWidth: 0
Flags: HW
LayerCount: 2
UndoRedoHistory
Layer: 1
Undoes
UndoOperation
Index: 0
Type: 1
WasModified: 0
WasOrder2: 0
Layer: 2
Width: 1252
VWidth: 0
LBearingChange: 0
UnicodeEnc: 0
InstructionsLength: 0
SplineSet
63 811 m 5
 1183 811 l 5
 1183 268 l 5
 922 268 l 5
 922 564 l 5
 63 564 l 5
 63 811 l 5
EndSplineSet
EndUndoOperation
EndUndoes
Redoes
EndRedoes
EndUndoRedoHistory
Fore
SplineSet
63 811 m 5
 1183 811 l 5
 1183 268 l 5
 922 268 l 5
 922 564 l 5
 63 564 l 5
 63 811 l 5
EndSplineSet
Validated: 1
EndChar

StartChar: sterling
Encoding: 163 163 114
Width: 1016
VWidth: 0
Flags: HW
LayerCount: 2
UndoRedoHistory
Layer: 1
Undoes
UndoOperation
Index: 0
Type: 1
WasModified: 0
WasOrder2: 0
Layer: 2
Width: 1016
VWidth: 0
LBearingChange: 0
UnicodeEnc: 0
InstructionsLength: 0
SplineSet
557 1376 m 5
 570 1376 l 2
 776 1376 969 1243 980 1038 c 5
 733 1025 l 5
 731 1069 670 1129 570 1129 c 2
 563 1129 l 5
 465 1126 412 1071 407 1027 c 5
 407 943.666666667 407 860.333333333 407 777 c 5
 584 777 l 5
 584 577 l 5
 407 577 l 5
 407 247 l 5
 939 247 l 5
 939 0 l 5
 112 0 l 5
 112 247 l 5
 159 247 l 5
 159 577 l 5
 43 577 l 5
 43 778 l 5
 159 778 l 5
 159 1011 l 5
 159 1022 l 2
 159 1226 349 1370 557 1376 c 5
EndSplineSet
EndUndoOperation
EndUndoes
Redoes
EndRedoes
EndUndoRedoHistory
Fore
SplineSet
557 1376 m 5
 570 1376 l 2
 776 1376 969 1243 980 1038 c 5
 733 1025 l 5
 731 1069 670 1129 570 1129 c 2
 563 1129 l 5
 465 1126 412 1071 407 1027 c 5
 407 944 407 860 407 777 c 5
 584 777 l 5
 584 577 l 5
 407 577 l 5
 407 247 l 5
 939 247 l 5
 939 0 l 5
 112 0 l 5
 112 247 l 5
 159 247 l 5
 159 577 l 5
 43 577 l 5
 43 778 l 5
 159 778 l 5
 159 1011 l 5
 159 1022 l 2
 159 1226 349 1370 557 1376 c 5
EndSplineSet
Validated: 1
EndChar

StartChar: currency
Encoding: 164 164 115
Width: 1094
VWidth: 0
Flags: HW
LayerCount: 2
UndoRedoHistory
Layer: 1
Undoes
UndoOperation
Index: 0
Type: 1
WasModified: 0
WasOrder2: 0
Layer: 2
Width: 1094
VWidth: 0
LBearingChange: 0
UnicodeEnc: 0
InstructionsLength: 0
SplineSet
44 1106 m 5
 351 1106 l 5
 396 1045 l 5
 444 1063 495 1073 549 1073 c 4
 602 1073 653 1063 700 1046 c 5
 745 1106 l 5
 1052 1106 l 5
 900 901 l 5
 959 825 994 731 994 628 c 4
 994 527 960 433 902 358 c 5
 1056 142 l 5
 759 142 l 5
 712 214 l 5
 662 194 606 183 549 183 c 4
 491 183 435 194 384 215 c 5
 337 142 l 5
 40 142 l 5
 195 360 l 5
 138 435 104 528 104 628 c 4
 104 730 139 824 197 899 c 5
 44 1106 l 5
549 826 m 4
 438 826 351 739 351 628 c 4
 351 517 438 430 549 430 c 4
 660 430 747 517 747 628 c 4
 747 739 660 826 549 826 c 4
EndSplineSet
EndUndoOperation
EndUndoes
Redoes
EndRedoes
EndUndoRedoHistory
Fore
SplineSet
44 1106 m 5
 351 1106 l 5
 396 1045 l 5
 444 1063 495 1073 549 1073 c 4
 602 1073 653 1063 700 1046 c 5
 745 1106 l 5
 1052 1106 l 5
 900 901 l 5
 959 825 994 731 994 628 c 4
 994 527 960 433 902 358 c 5
 1056 142 l 5
 759 142 l 5
 712 214 l 5
 662 194 606 183 549 183 c 4
 491 183 435 194 384 215 c 5
 337 142 l 5
 40 142 l 5
 195 360 l 5
 138 435 104 528 104 628 c 4
 104 730 139 824 197 899 c 5
 44 1106 l 5
549 826 m 4
 438 826 351 739 351 628 c 4
 351 517 438 430 549 430 c 4
 660 430 747 517 747 628 c 4
 747 739 660 826 549 826 c 4
EndSplineSet
Validated: 1
EndChar

StartChar: cent
Encoding: 162 162 116
Width: 896
VWidth: 0
Flags: W
HStem: 16 429<383.717 590.074> 841 436<385.4 590.914>
VStem: 49 247<525.296 767.662> 382 210<16 220.889 1066.58 1277>
LayerCount: 2
UndoRedoHistory
Layer: 1
Undoes
UndoOperation
Index: 0
Type: 1
WasModified: 0
WasOrder2: 0
Layer: 2
Width: 896
VWidth: 0
LBearingChange: 0
UnicodeEnc: 0
InstructionsLength: 0
SplineSet
49 662 m 5
 57.0801040708 854.91248469 192.491707934 1026.62292698 382 1074 c 5
 382 1141.66666667 382 1209.33333333 382 1277 c 5
 592 1277 l 5
 592 1077 l 5
 699 1053 796 990 861 896 c 5
 657 756 l 5
 619 811 559 841 495 841 c 0
 377.277959395 841 300.68399885 751.534975556 296 652 c 4
 296 649 296 646 296 643 c 0
 296 541.808974763 376.272369876 445 495 445 c 0
 553 445 608 471 647 518 c 5
 838 361 l 5
 774 283 686 230 592 209 c 5
 592 16 l 5
 382 16 l 5
 382 81.6666666667 382 147.333333333 382 213 c 5
 183.822732631 262.544316842 49 445.464642111 49 643 c 2
 49 662 l 5
EndSplineSet
EndUndoOperation
EndUndoes
Redoes
EndRedoes
EndUndoRedoHistory
Fore
SplineSet
49 662 m 5
 57 855 192 1027 382 1074 c 5
 382 1142 382 1209 382 1277 c 5
 592 1277 l 5
 592 1077 l 5
 699 1053 796 990 861 896 c 5
 657 756 l 5
 619 811 559 841 495 841 c 0
 377 841 301 752 296 652 c 4
 296 649 296 646 296 643 c 0
 296 542 376 445 495 445 c 0
 553 445 608 471 647 518 c 5
 838 361 l 5
 774 283 686 230 592 209 c 5
 592 16 l 5
 382 16 l 5
 382 82 382 147 382 213 c 5
 184 263 49 445 49 643 c 2
 49 662 l 5
EndSplineSet
Validated: 1
EndChar

StartChar: section
Encoding: 167 167 117
Width: 792
VWidth: 0
Flags: HW
LayerCount: 2
UndoRedoHistory
Layer: 1
Undoes
UndoOperation
Index: 0
Type: 1
WasModified: 1
WasOrder2: 0
Layer: 2
Width: 792
VWidth: 0
LBearingChange: 0
UnicodeEnc: 0
InstructionsLength: 0
SplineSet
401 1287 m 1
 525 1286 643 1235 699 1120 c 1
 505 1025 l 1
 487 1055 429 1075 378 1075 c 0
 330 1075 288 1058 288 1017 c 0
 288 902 740 937 740 693 c 0
 740 606 706 529 648 473 c 1
 702 439 740 392 740 321 c 0
 740 143 590 6 392 0 c 1
 255 3 107 82 39 238 c 1
 250 287 l 1
 256 260 320 217 408 217 c 0
 446 217 524 235 524 297 c 0
 524 331 469 352 397 375 c 0
 389 376 382 378 374 382 c 0
 242 424 70 481 70 636 c 0
 70 653 73 671 77 691 c 0
 90 742 126 794 178 836 c 1
 116 875 70 928 70 1008 c 0
 70 1025 73 1043 77 1063 c 0
 104 1170 237 1287 399 1287 c 2
 401 1287 l 1
506 641 m 0
 506 684 452 712 395 712 c 0
 351.007234961 712 287.899769913 695.752504993 287.899769913 647.37368764 c 0
 287.899769913 646.266031957 287.932851003 645.141532955 288 644 c 0
 290 595 365 577 419 577 c 0
 470 577 506 597 506 641 c 0
EndSplineSet
EndUndoOperation
EndUndoes
Redoes
EndRedoes
EndUndoRedoHistory
Fore
SplineSet
401 1287 m 1
 525 1286 643 1235 699 1120 c 1
 505 1025 l 1
 487 1055 429 1075 378 1075 c 0
 330 1075 288 1058 288 1017 c 0
 288 902 740 937 740 693 c 0
 740 606 706 529 648 473 c 1
 702 439 740 392 740 321 c 0
 740 143 590 6 392 0 c 1
 255 3 107 82 39 238 c 1
 250 287 l 1
 256 260 320 217 408 217 c 0
 446 217 524 235 524 297 c 0
 524 331 469 352 397 375 c 0
 389 376 382 378 374 382 c 0
 242 424 70 481 70 636 c 0
 70 653 73 671 77 691 c 0
 90 742 126 794 178 836 c 1
 116 875 70 928 70 1008 c 0
 70 1025 73 1043 77 1063 c 0
 104 1170 237 1287 399 1287 c 2
 401 1287 l 1
506 641 m 0
 506 684 452 712 395 712 c 0
 351 712 288 695 288 647 c 0
 288 646 288 645 288 644 c 0
 290 595 365 577 419 577 c 0
 470 577 506 597 506 641 c 0
EndSplineSet
Validated: 1
EndChar

StartChar: germandbls
Encoding: 223 223 118
Width: 960
VWidth: 0
Flags: HW
LayerCount: 2
UndoRedoHistory
Layer: 1
Undoes
UndoOperation
Index: 0
Type: 1
WasModified: 0
WasOrder2: 0
Layer: 2
Width: 960
VWidth: 0
LBearingChange: 0
UnicodeEnc: 0
InstructionsLength: 0
SplineSet
491 1265 m 4
 658 1265 798 1140 823 980 c 4
 825 966 826 953 826 941 c 0
 826 836.462757064 759.203382887 755.929017178 702 688 c 4
 687 670 671 651 671 630 c 0
 671 619 675 607 686 594 c 4
 743 529 914 516 915 314 c 4
 912 202 807 2 618 2 c 2
 616 2 l 6
 569 2 484 1 483 1 c 5
 483 220 l 5
 492 220 l 2
 513 220 566 221 604 221 c 4
 646 221 700 230 700 291 c 0
 700 381 446 381 446 604 c 0
 446 629 449 657 456 688 c 4
 477 762 587 809 603 898 c 4
 603 903 604 907 604 912 c 0
 604 974 569 1023 491 1040 c 5
 428 1040 380 992 380 929 c 6
 380 0 l 5
 156 0 l 5
 156 579 l 5
 40 579 l 5
 40 781 l 5
 155 781 l 5
 155 929 l 6
 155 1113 307 1265 491 1265 c 4
EndSplineSet
EndUndoOperation
EndUndoes
Redoes
EndRedoes
EndUndoRedoHistory
Fore
SplineSet
491 1265 m 4
 658 1265 798 1140 823 980 c 4
 825 966 826 953 826 941 c 0
 826 836 759 756 702 688 c 4
 687 670 671 651 671 630 c 0
 671 619 675 607 686 594 c 4
 743 529 914 516 915 314 c 4
 912 202 807 2 618 2 c 2
 616 2 l 6
 569 2 484 1 483 1 c 5
 483 220 l 5
 492 220 l 2
 513 220 566 221 604 221 c 4
 646 221 700 230 700 291 c 0
 700 381 446 381 446 604 c 0
 446 629 449 657 456 688 c 4
 477 762 587 809 603 898 c 4
 603 903 604 907 604 912 c 0
 604 974 569 1023 491 1040 c 5
 428 1040 380 992 380 929 c 6
 380 0 l 5
 156 0 l 5
 156 579 l 5
 40 579 l 5
 40 781 l 5
 155 781 l 5
 155 929 l 6
 155 1113 307 1265 491 1265 c 4
EndSplineSet
Validated: 1
EndChar

StartChar: dagger
Encoding: 134 8224 119
Width: 729
VWidth: 0
Flags: HW
LayerCount: 2
UndoRedoHistory
Layer: 1
Undoes
UndoOperation
Index: 0
Type: 1
WasModified: 0
WasOrder2: 0
Layer: 2
Width: 729
VWidth: 0
LBearingChange: 0
UnicodeEnc: 0
InstructionsLength: 0
SplineSet
286 1293 m 5
 446 1293 l 5
 446 1063 l 5
 688 1063 l 5
 688 903 l 5
 446 903 l 5
 446 27 l 5
 286 27 l 5
 286 903 l 5
 43 903 l 5
 43 1063 l 5
 286 1063 l 5
 286 1293 l 5
EndSplineSet
EndUndoOperation
EndUndoes
Redoes
EndRedoes
EndUndoRedoHistory
Fore
SplineSet
286 1293 m 5
 446 1293 l 5
 446 1063 l 5
 688 1063 l 5
 688 903 l 5
 446 903 l 5
 446 27 l 5
 286 27 l 5
 286 903 l 5
 43 903 l 5
 43 1063 l 5
 286 1063 l 5
 286 1293 l 5
EndSplineSet
Validated: 1
EndChar

StartChar: daggerdbl
Encoding: 135 8225 120
Width: 756
VWidth: 0
Flags: HW
LayerCount: 2
UndoRedoHistory
Layer: 1
Undoes
UndoOperation
Index: 0
Type: 1
WasModified: 0
WasOrder2: 0
Layer: 2
Width: 756
VWidth: 0
LBearingChange: 0
UnicodeEnc: 0
InstructionsLength: 0
SplineSet
298 1293 m 5
 458 1293 l 5
 458 1063 l 5
 700 1063 l 5
 700 903 l 5
 458 903 l 5
 458 666 l 5
 700 666 l 5
 700 506 l 5
 458 506 l 5
 458 27 l 5
 298 27 l 5
 298 506 l 5
 55 506 l 5
 55 666 l 5
 298 666 l 5
 298 903 l 5
 55 903 l 5
 55 1063 l 5
 298 1063 l 5
 298 1293 l 5
EndSplineSet
EndUndoOperation
EndUndoes
Redoes
EndRedoes
EndUndoRedoHistory
Fore
SplineSet
298 1293 m 5
 458 1293 l 5
 458 1063 l 5
 700 1063 l 5
 700 903 l 5
 458 903 l 5
 458 666 l 5
 700 666 l 5
 700 506 l 5
 458 506 l 5
 458 27 l 5
 298 27 l 5
 298 506 l 5
 55 506 l 5
 55 666 l 5
 298 666 l 5
 298 903 l 5
 55 903 l 5
 55 1063 l 5
 298 1063 l 5
 298 1293 l 5
EndSplineSet
Validated: 1
EndChar

StartChar: Ccedilla
Encoding: 199 199 121
Width: 1035
VWidth: 0
Flags: HW
LayerCount: 2
UndoRedoHistory
Layer: 1
Undoes
UndoOperation
Index: 0
Type: 1
WasModified: 0
WasOrder2: 0
Layer: 2
Width: 1035
VWidth: 0
LBearingChange: 0
UnicodeEnc: 0
InstructionsLength: 0
SplineSet
733 -210 m 0
 733 -329.922328345 621.350370858 -439 495 -439 c 2
 488 -439 l 5
 492 -319 l 5
 496 -319 l 2
 553.869434197 -319 608.840587442 -262.550600932 612 -212 c 5
 583.378791027 -176.223488784 544.17936455 -154.538093649 524 -94 c 4
 517 -72 514 -51 514 -30 c 0
 514 -20 515 -10 516 0 c 5
 403 21 295 85 212 183 c 4
 101 315 46 484 46 654 c 0
 46 808 92 964 184 1092 c 4
 284.67588748 1231.07803013 429.981223312 1319 596 1319 c 4
 745.034132916 1319 872.257048009 1255.40099857 974 1142 c 5
 789 977 l 5
 729 1044 665 1071 601 1071 c 0
 596 1071 590 1070 585 1070 c 4
 517 1065 445 1030 385 947 c 4
 328 868 301 762 301 657 c 0
 301 540 335 423 402 343 c 4
 464 269 533 240 599 240 c 2
 606 240 l 5
 674 242 745 275 807 355 c 5
 1004 204 l 5
 909 81 776 6 638 -6 c 5
 636 -30 636 -51 638 -56 c 4
 654.728641376 -100.609710336 729.616510038 -131.878791113 732 -201 c 4
 732 -204 733 -207 733 -210 c 0
EndSplineSet
EndUndoOperation
EndUndoes
Redoes
EndRedoes
EndUndoRedoHistory
Fore
SplineSet
733 -210 m 0
 733 -330 621 -439 495 -439 c 2
 488 -439 l 5
 492 -319 l 5
 496 -319 l 2
 554 -319 609 -263 612 -212 c 5
 583 -176 544 -155 524 -94 c 4
 517 -72 514 -51 514 -30 c 0
 514 -20 515 -10 516 0 c 5
 403 21 295 85 212 183 c 4
 101 315 46 484 46 654 c 0
 46 808 92 964 184 1092 c 4
 285 1231 430 1319 596 1319 c 4
 745 1319 872 1255 974 1142 c 5
 789 977 l 5
 729 1044 665 1071 601 1071 c 0
 596 1071 590 1070 585 1070 c 4
 517 1065 445 1030 385 947 c 4
 328 868 301 762 301 657 c 0
 301 540 335 423 402 343 c 4
 464 269 533 240 599 240 c 2
 606 240 l 5
 674 242 745 275 807 355 c 5
 1004 204 l 5
 909 81 776 6 638 -6 c 5
 636 -30 636 -51 638 -56 c 4
 655 -101 730 -132 732 -201 c 4
 732 -204 733 -207 733 -210 c 0
EndSplineSet
Validated: 1
EndChar

StartChar: trademark
Encoding: 153 8482 122
Width: 1054
VWidth: 0
Flags: HW
LayerCount: 2
UndoRedoHistory
Layer: 1
Undoes
UndoOperation
Index: 0
Type: 1
WasModified: 0
WasOrder2: 0
Layer: 2
Width: 1054
VWidth: 0
LBearingChange: 0
UnicodeEnc: 0
InstructionsLength: 0
SplineSet
485 1293 m 5
 590 1293 l 5
 639 1228 687 1164 736 1099 c 5
 782 1164 828 1228 874 1293 c 5
 979 1293 l 6
 983 1293 985 1233 985 1154 c 0
 985 995 979 756 979 756 c 5
 874 756 l 5
 874 1111 l 5
 829 1047 783 983 738 919 c 5
 689 985 639 1052 590 1118 c 5
 590 756 l 5
 485 756 l 5
 485 1293 l 5
48 1293 m 5
 438 1293 l 5
 438 1188 l 5
 295 1188 l 5
 295 756 l 5
 190 756 l 5
 190 1188 l 5
 48 1188 l 5
 48 1293 l 5
EndSplineSet
EndUndoOperation
EndUndoes
Redoes
EndRedoes
EndUndoRedoHistory
Fore
SplineSet
485 1293 m 5
 590 1293 l 5
 639 1228 687 1164 736 1099 c 5
 782 1164 828 1228 874 1293 c 5
 979 1293 l 6
 983 1293 985 1233 985 1154 c 0
 985 995 979 756 979 756 c 5
 874 756 l 5
 874 1111 l 5
 829 1047 783 983 738 919 c 5
 689 985 639 1052 590 1118 c 5
 590 756 l 5
 485 756 l 5
 485 1293 l 5
48 1293 m 5
 438 1293 l 5
 438 1188 l 5
 295 1188 l 5
 295 756 l 5
 190 756 l 5
 190 1188 l 5
 48 1188 l 5
 48 1293 l 5
EndSplineSet
Validated: 1
EndChar

StartChar: onehalf
Encoding: 189 189 123
Width: 1015
VWidth: 0
Flags: HW
LayerCount: 2
UndoRedoHistory
Layer: 1
Undoes
UndoOperation
Index: 0
Type: 1
WasModified: 0
WasOrder2: 0
Layer: 2
Width: 1015
VWidth: 0
LBearingChange: 0
UnicodeEnc: 0
InstructionsLength: 0
SplineSet
155 1274 m 5
 160 1270 l 5
 269 1270 l 5
 269 702 l 5
 158 702 l 5
 158 1110 l 5
 118 1066 l 5
 35 1140 l 5
 155 1274 l 5
731 1270 m 5
 884 1270 l 5
 248 4 l 5
 98 4 l 5
 731 1270 l 5
794 585 m 4
 797 585 800 585 803 585 c 4
 862 584 915 544 943 493 c 5
 956 473 963 449 963 425 c 0
 963 394 952 362 933 338 c 4
 877.378296637 261.520157876 825.71114739 185.985977926 772 109 c 5
 973 109 l 5
 973 0 l 5
 638 0 l 5
 638 107 l 5
 692 183 750 256 808 329 c 4
 824 352 847 372 857 399 c 5
 857 402 858 404 858 407 c 0
 858 438 827 462 798 467 c 5
 794 467 l 2
 757 467 731 429 729 395 c 5
 617 395 l 5
 617 434 635 470 658 501 c 4
 691 543 738 583 794 585 c 4
EndSplineSet
EndUndoOperation
EndUndoes
Redoes
EndRedoes
EndUndoRedoHistory
Fore
SplineSet
155 1274 m 5
 160 1270 l 5
 269 1270 l 5
 269 702 l 5
 158 702 l 5
 158 1110 l 5
 118 1066 l 5
 35 1140 l 5
 155 1274 l 5
731 1270 m 5
 884 1270 l 5
 248 4 l 5
 98 4 l 5
 731 1270 l 5
794 585 m 4
 797 585 800 585 803 585 c 4
 862 584 915 544 943 493 c 5
 956 473 963 449 963 425 c 0
 963 394 952 362 933 338 c 4
 877 262 826 186 772 109 c 5
 973 109 l 5
 973 0 l 5
 638 0 l 5
 638 107 l 5
 692 183 750 256 808 329 c 4
 824 352 847 372 857 399 c 5
 857 402 858 404 858 407 c 0
 858 438 827 462 798 467 c 5
 794 467 l 2
 757 467 731 429 729 395 c 5
 617 395 l 5
 617 434 635 470 658 501 c 4
 691 543 738 583 794 585 c 4
EndSplineSet
Validated: 1
EndChar

StartChar: onequarter
Encoding: 188 188 124
Width: 1015
VWidth: 0
Flags: HW
LayerCount: 2
UndoRedoHistory
Layer: 1
Undoes
UndoOperation
Index: 0
Type: 1
WasModified: 0
WasOrder2: 0
Layer: 2
Width: 1015
VWidth: 0
LBearingChange: 0
UnicodeEnc: 0
InstructionsLength: 0
SplineSet
155 1275 m 5
 160 1271 l 5
 269 1271 l 5
 269 703 l 5
 158 703 l 5
 158 1111 l 5
 118 1067 l 5
 35 1141 l 5
 155 1275 l 5
731 1271 m 5
 884 1271 l 5
 248 5 l 5
 98 5 l 5
 731 1271 l 5
848 570 m 5
 960 570 l 5
 960 0 l 5
 848 0 l 5
 848 156 l 5
 591 156 l 5
 591 272 l 5
 848 570 l 5
848 396 m 5
 733 268 l 5
 848 268 l 5
 848 396 l 5
EndSplineSet
EndUndoOperation
EndUndoes
Redoes
EndRedoes
EndUndoRedoHistory
Fore
SplineSet
155 1275 m 5
 160 1271 l 5
 269 1271 l 5
 269 703 l 5
 158 703 l 5
 158 1111 l 5
 118 1067 l 5
 35 1141 l 5
 155 1275 l 5
731 1271 m 5
 884 1271 l 5
 248 5 l 5
 98 5 l 5
 731 1271 l 5
848 570 m 5
 960 570 l 5
 960 0 l 5
 848 0 l 5
 848 156 l 5
 591 156 l 5
 591 272 l 5
 848 570 l 5
848 396 m 5
 733 268 l 5
 848 268 l 5
 848 396 l 5
EndSplineSet
Validated: 1
EndChar

StartChar: threequarters
Encoding: 190 190 125
Width: 1045
VWidth: 0
Flags: HW
LayerCount: 2
UndoRedoHistory
Layer: 1
Undoes
UndoOperation
Index: 0
Type: 1
WasModified: 0
WasOrder2: 0
Layer: 2
Width: 1045
VWidth: 0
LBearingChange: 0
UnicodeEnc: 0
InstructionsLength: 0
SplineSet
286 1114 m 0
 286 1151.80011839 253.917254426 1176 223 1176 c 0
 186 1176 156 1144 156 1101 c 1
 42 1101 l 1
 42 1207 122 1296 223 1296 c 0
 299.00070235 1296 356.076930582 1245.84613884 384 1190 c 0
 392 1172 396 1153 396 1133 c 0
 396 1099 385 1065 362 1035 c 0
 348 1013 343 1009 333 997 c 1
 342 986 348 981 362 959 c 0
 385 929 396 895 396 861 c 0
 396 806.253199814 366.96198289 767.317685457 336 741 c 0
 305 714 266 697 223 697 c 0
 122 697 42 787 42 893 c 1
 156 893 l 1
 156 850 186 817 223 817 c 0
 251.370575232 817 286 839.506617699 286 875 c 0
 286 919 232 973 181 973 c 0
 180 973 179 973 178 973 c 1
 178 1033 l 1
 203 1033 286 1057 286 1114 c 0
782 1271 m 1
 934 1271 l 1
 298 5 l 1
 149 5 l 1
 782 1271 l 1
878 570 m 1
 990 570 l 1
 990 0 l 1
 879 0 l 1
 878 156 l 1
 622 156 l 1
 622 272 l 1
 878 570 l 1
878 396 m 1
 764 268 l 1
 878 268 l 1
 878 396 l 1
EndSplineSet
EndUndoOperation
EndUndoes
Redoes
EndRedoes
EndUndoRedoHistory
Fore
SplineSet
286 1114 m 0
 286 1152 254 1176 223 1176 c 0
 186 1176 156 1144 156 1101 c 1
 42 1101 l 1
 42 1207 122 1296 223 1296 c 0
 299 1296 356 1246 384 1190 c 0
 392 1172 396 1153 396 1133 c 0
 396 1099 385 1065 362 1035 c 0
 348 1013 343 1009 333 997 c 1
 342 986 348 981 362 959 c 0
 385 929 396 895 396 861 c 0
 396 806 367 767 336 741 c 0
 305 714 266 697 223 697 c 0
 122 697 42 787 42 893 c 1
 156 893 l 1
 156 850 186 817 223 817 c 0
 251 817 286 840 286 875 c 0
 286 919 232 973 181 973 c 0
 180 973 179 973 178 973 c 1
 178 1033 l 1
 203 1033 286 1057 286 1114 c 0
782 1271 m 1
 934 1271 l 1
 298 5 l 1
 149 5 l 1
 782 1271 l 1
878 570 m 1
 990 570 l 1
 990 0 l 1
 879 0 l 1
 878 156 l 1
 622 156 l 1
 622 272 l 1
 878 570 l 1
878 396 m 1
 764 268 l 1
 878 268 l 1
 878 396 l 1
EndSplineSet
Validated: 1
EndChar

StartChar: Eth
Encoding: 208 208 126
Width: 1269
VWidth: 0
Flags: HW
LayerCount: 2
UndoRedoHistory
Layer: 1
Undoes
UndoOperation
Index: 0
Type: 1
WasModified: 0
WasOrder2: 0
Layer: 2
Width: 1269
VWidth: 0
LBearingChange: 0
UnicodeEnc: 0
InstructionsLength: 0
SplineSet
169 1266 m 5
 326.333333333 1266 483.666666667 1266 641 1266 c 4
 964 1266 1212 970 1212 631 c 4
 1212 296 970 0 652 -0 c 2
 641 0 l 5
 417 5 l 5
 417 0 l 5
 169 0 l 5
 169 608 l 5
 41 608 l 5
 41 856 l 5
 169 856 l 5
 169 1266 l 5
417 1018 m 5
 417 856 l 5
 590 856 l 5
 590 608 l 5
 417 608 l 5
 417 253 l 5
 641 248 l 5
 812 248 964 410 964 631 c 4
 964 852 812 1018 641 1018 c 6
 417 1018 l 5
EndSplineSet
EndUndoOperation
EndUndoes
Redoes
EndRedoes
EndUndoRedoHistory
Fore
SplineSet
169 1266 m 5
 326 1266 484 1266 641 1266 c 4
 964 1266 1212 970 1212 631 c 4
 1212 296 970 0 652 -0 c 2
 641 0 l 5
 417 5 l 5
 417 0 l 5
 169 0 l 5
 169 608 l 5
 41 608 l 5
 41 856 l 5
 169 856 l 5
 169 1266 l 5
417 1018 m 5
 417 856 l 5
 590 856 l 5
 590 608 l 5
 417 608 l 5
 417 253 l 5
 641 248 l 5
 812 248 964 410 964 631 c 4
 964 852 812 1018 641 1018 c 6
 417 1018 l 5
EndSplineSet
Validated: 1
EndChar

StartChar: AE
Encoding: 198 198 127
Width: 1657
VWidth: 0
Flags: HW
LayerCount: 2
UndoRedoHistory
Layer: 1
Undoes
UndoOperation
Index: 0
Type: 1
WasModified: 0
WasOrder2: 0
Layer: 2
Width: 1657
VWidth: 0
LBearingChange: 0
UnicodeEnc: 0
InstructionsLength: 0
SplineSet
758 1266 m 5
 1602 1266 l 5
 1602 1018 l 5
 1006 1018 l 5
 1006 767 l 5
 1527 767 l 5
 1527 519 l 5
 1006 519 l 5
 1006 248 l 5
 1602 248 l 5
 1602 0 l 5
 758 0 l 5
 758 293 l 5
 450 293 l 5
 274 -5 l 5
 26 -5 l 5
 758 1266 l 5
758 850 m 5
 580 541 l 5
 758 541 l 5
 758 850 l 5
EndSplineSet
EndUndoOperation
EndUndoes
Redoes
EndRedoes
EndUndoRedoHistory
Fore
SplineSet
758 1266 m 5
 1602 1266 l 5
 1602 1018 l 5
 1006 1018 l 5
 1006 767 l 5
 1527 767 l 5
 1527 519 l 5
 1006 519 l 5
 1006 248 l 5
 1602 248 l 5
 1602 0 l 5
 758 0 l 5
 758 293 l 5
 450 293 l 5
 274 -5 l 5
 26 -5 l 5
 758 1266 l 5
758 850 m 5
 580 541 l 5
 758 541 l 5
 758 850 l 5
EndSplineSet
Validated: 1
EndChar

StartChar: paragraph
Encoding: 182 182 128
Width: 1114
VWidth: 0
Flags: HW
LayerCount: 2
UndoRedoHistory
Layer: 1
Undoes
UndoOperation
Index: 0
Type: 1
WasModified: 0
WasOrder2: 0
Layer: 2
Width: 1114
VWidth: 0
LBearingChange: 0
UnicodeEnc: 0
InstructionsLength: 0
SplineSet
396 1258 m 0
 619.333333333 1258 842.666666667 1258 1066 1258 c 5
 1066 1072 l 5
 982 1072 l 5
 982 186 l 5
 1063 186 l 5
 1063 0 l 5
 244 0 l 5
 244 186 l 5
 442 186 l 5
 442 572 l 5
 224 572 44 711 44 924 c 4
 44 1136 252 1258 396 1258 c 0
629 1072 m 5
 629 186 l 5
 795 186 l 5
 795 1072 l 5
 629 1072 l 5
EndSplineSet
EndUndoOperation
EndUndoes
Redoes
EndRedoes
EndUndoRedoHistory
Fore
SplineSet
396 1258 m 0
 619 1258 843 1258 1066 1258 c 5
 1066 1072 l 5
 982 1072 l 5
 982 186 l 5
 1063 186 l 5
 1063 0 l 5
 244 0 l 5
 244 186 l 5
 442 186 l 5
 442 572 l 5
 224 572 44 711 44 924 c 4
 44 1136 252 1258 396 1258 c 0
629 1072 m 5
 629 186 l 5
 795 186 l 5
 795 1072 l 5
 629 1072 l 5
EndSplineSet
Validated: 1
EndChar

StartChar: uni00B9
Encoding: 185 185 129
Width: 351
VWidth: 0
Flags: HW
LayerCount: 2
UndoRedoHistory
Layer: 1
Undoes
UndoOperation
Index: 0
Type: 1
WasModified: 0
WasOrder2: 0
Layer: 2
Width: 351
VWidth: 0
LBearingChange: 0
UnicodeEnc: 0
InstructionsLength: 0
SplineSet
165 1297 m 5
 170 1293 l 5
 279 1293 l 5
 279 725 l 5
 168 725 l 5
 168 1133 l 5
 128 1089 l 5
 45 1163 l 5
 165 1297 l 5
EndSplineSet
EndUndoOperation
EndUndoes
Redoes
EndRedoes
EndUndoRedoHistory
Fore
SplineSet
165 1297 m 5
 170 1293 l 5
 279 1293 l 5
 279 725 l 5
 168 725 l 5
 168 1133 l 5
 128 1089 l 5
 45 1163 l 5
 165 1297 l 5
EndSplineSet
Validated: 1
EndChar

StartChar: uni00B2
Encoding: 178 178 130
Width: 465
VWidth: 0
Flags: HW
LayerCount: 2
UndoRedoHistory
Layer: 1
Undoes
UndoOperation
Index: 0
Type: 1
WasModified: 0
WasOrder2: 0
Layer: 2
Width: 465
VWidth: 0
LBearingChange: 0
UnicodeEnc: 0
InstructionsLength: 0
SplineSet
228 1293 m 5
 238 1293 l 5
 297 1292 350 1252 378 1201 c 5
 391 1181 398 1157 398 1133 c 0
 398 1102 387 1070 368 1046 c 4
 312.378296637 969.520157876 260.71114739 893.985977926 207 817 c 5
 273.666666667 817 340.333333333 817 407 817 c 5
 407 708 l 5
 73 708 l 5
 73 815 l 5
 127 891 185 964 243 1037 c 4
 259 1060 281 1080 291 1107 c 5
 291 1110 292 1112 292 1115 c 0
 292 1146 262 1170 233 1175 c 5
 228 1175 l 2
 191 1175 165 1137 163 1103 c 5
 52 1103 l 5
 52 1142 70 1178 93 1209 c 4
 126 1251 172 1291 228 1293 c 5
EndSplineSet
EndUndoOperation
EndUndoes
Redoes
EndRedoes
EndUndoRedoHistory
Fore
SplineSet
228 1293 m 5
 238 1293 l 5
 297 1292 350 1252 378 1201 c 5
 391 1181 398 1157 398 1133 c 0
 398 1102 387 1070 368 1046 c 4
 312 970 261 894 207 817 c 5
 274 817 340 817 407 817 c 5
 407 708 l 5
 73 708 l 5
 73 815 l 5
 127 891 185 964 243 1037 c 4
 259 1060 281 1080 291 1107 c 5
 291 1110 292 1112 292 1115 c 0
 292 1146 262 1170 233 1175 c 5
 228 1175 l 2
 191 1175 165 1137 163 1103 c 5
 52 1103 l 5
 52 1142 70 1178 93 1209 c 4
 126 1251 172 1291 228 1293 c 5
EndSplineSet
Validated: 1
EndChar

StartChar: uni00B3
Encoding: 179 179 131
Width: 470
VWidth: 0
Flags: HW
LayerCount: 2
UndoRedoHistory
Layer: 1
Undoes
UndoOperation
Index: 0
Type: 1
WasModified: 0
WasOrder2: 0
Layer: 2
Width: 470
VWidth: 0
LBearingChange: 0
UnicodeEnc: 0
InstructionsLength: 0
SplineSet
301 1112 m 0
 301 1149.14032656 268.283476886 1173 238 1173 c 4
 201 1173 171 1141 171 1098 c 5
 57 1098 l 5
 57 1204 137 1293 238 1293 c 4
 314.00070235 1293 371.076930582 1242.84613884 399 1187 c 4
 407 1169 411 1150 411 1130 c 0
 411 1096 400 1062 377 1032 c 4
 363 1010 358 1006 348 994 c 5
 357 983 363 978 377 956 c 4
 400 926 411 892 411 858 c 0
 411 803.253199814 381.96198289 764.317685457 351 738 c 4
 320 711 281 695 238 695 c 4
 137 695 57 784 57 890 c 5
 171 890 l 5
 171 847 201 815 238 815 c 4
 266.370575232 815 301 837.506617699 301 873 c 0
 301 917 247 971 196 971 c 0
 195 971 194 971 193 971 c 5
 193 1031 l 5
 218 1031 301 1055 301 1112 c 0
EndSplineSet
EndUndoOperation
EndUndoes
Redoes
EndRedoes
EndUndoRedoHistory
Fore
SplineSet
301 1112 m 0
 301 1149 268 1173 238 1173 c 4
 201 1173 171 1141 171 1098 c 5
 57 1098 l 5
 57 1204 137 1293 238 1293 c 4
 314 1293 371 1243 399 1187 c 4
 407 1169 411 1150 411 1130 c 0
 411 1096 400 1062 377 1032 c 4
 363 1010 358 1006 348 994 c 5
 357 983 363 978 377 956 c 4
 400 926 411 892 411 858 c 0
 411 803 382 764 351 738 c 4
 320 711 281 695 238 695 c 4
 137 695 57 784 57 890 c 5
 171 890 l 5
 171 847 201 815 238 815 c 4
 266 815 301 838 301 873 c 0
 301 917 247 971 196 971 c 0
 195 971 194 971 193 971 c 5
 193 1031 l 5
 218 1031 301 1055 301 1112 c 0
EndSplineSet
Validated: 1
EndChar

StartChar: quoteleft
Encoding: 145 8216 132
Width: 412
VWidth: 0
Flags: HW
LayerCount: 2
UndoRedoHistory
Layer: 1
Undoes
UndoOperation
Index: 0
Type: 1
WasModified: 0
WasOrder2: 0
Layer: 2
Width: 412
VWidth: 0
LBearingChange: 0
UnicodeEnc: 0
InstructionsLength: 0
SplineSet
207 793 m 0
 124 793 57 860 57 943 c 2
 57 969 l 1
 61 1061 92 1186 207 1293 c 5
 360 1293 l 5
 309 1246 267 1162 239 1089 c 1
 308 1074 357 1013 357 943 c 0
 357 860 290 793 207 793 c 0
EndSplineSet
EndUndoOperation
EndUndoes
Redoes
EndRedoes
EndUndoRedoHistory
Fore
SplineSet
207 793 m 0
 124 793 57 860 57 943 c 2
 57 969 l 1
 61 1061 92 1186 207 1293 c 5
 360 1293 l 5
 309 1246 267 1162 239 1089 c 1
 308 1074 357 1013 357 943 c 0
 357 860 290 793 207 793 c 0
EndSplineSet
Validated: 1
EndChar

StartChar: quoteright
Encoding: 146 8217 133
Width: 413
VWidth: 0
Flags: HW
LayerCount: 2
UndoRedoHistory
Layer: 1
Undoes
UndoOperation
Index: 0
Type: 1
WasModified: 0
WasOrder2: 0
Layer: 2
Width: 413
VWidth: 0
LBearingChange: 0
UnicodeEnc: 0
InstructionsLength: 0
SplineSet
208 1293 m 4
 291 1293 358 1226 358 1143 c 6
 358 1116 l 5
 354 1024 323 899 208 792 c 5
 55 793 l 5
 106 840 148 924 176 997 c 5
 107 1012 58 1073 58 1143 c 4
 58 1226 125 1293 208 1293 c 4
EndSplineSet
EndUndoOperation
EndUndoes
Redoes
EndRedoes
EndUndoRedoHistory
Fore
SplineSet
208 1293 m 4
 291 1293 358 1226 358 1143 c 6
 358 1116 l 5
 354 1024 323 899 208 792 c 5
 55 793 l 5
 106 840 148 924 176 997 c 5
 107 1012 58 1073 58 1143 c 4
 58 1226 125 1293 208 1293 c 4
EndSplineSet
Validated: 1
EndChar

StartChar: quotedblleft
Encoding: 147 8220 134
Width: 789
VWidth: 0
Flags: HW
LayerCount: 2
UndoRedoHistory
Layer: 1
Undoes
UndoOperation
Index: 0
Type: 1
WasModified: 0
WasOrder2: 0
Layer: 2
Width: 789
VWidth: 0
LBearingChange: 0
UnicodeEnc: 0
InstructionsLength: 0
SplineSet
207 1293 m 5
 360 1293 l 5
 309 1246 267 1162 239 1089 c 5
 308 1074 357 1013 357 943 c 4
 357 860 290 793 207 793 c 4
 124 793 57 860 57 943 c 6
 57 969 l 5
 61 1061 92 1186 207 1293 c 5
583 1293 m 5
 737 1293 l 5
 686 1246 643 1162 615 1089 c 5
 684 1074 733 1013 733 943 c 4
 733 860 666 793 583 793 c 4
 500 793 433 860 433 943 c 6
 433 969 l 5
 437 1061 468 1186 583 1293 c 5
EndSplineSet
EndUndoOperation
EndUndoes
Redoes
EndRedoes
EndUndoRedoHistory
Fore
SplineSet
207 1293 m 5
 360 1293 l 5
 309 1246 267 1162 239 1089 c 5
 308 1074 357 1013 357 943 c 4
 357 860 290 793 207 793 c 4
 124 793 57 860 57 943 c 6
 57 969 l 5
 61 1061 92 1186 207 1293 c 5
583 1293 m 5
 737 1293 l 5
 686 1246 643 1162 615 1089 c 5
 684 1074 733 1013 733 943 c 4
 733 860 666 793 583 793 c 4
 500 793 433 860 433 943 c 6
 433 969 l 5
 437 1061 468 1186 583 1293 c 5
EndSplineSet
Validated: 1
EndChar

StartChar: quotedblright
Encoding: 148 8221 135
Width: 790
VWidth: 0
Flags: HW
LayerCount: 2
UndoRedoHistory
Layer: 1
Undoes
UndoOperation
Index: 0
Type: 1
WasModified: 0
WasOrder2: 0
Layer: 2
Width: 790
VWidth: 0
LBearingChange: 0
UnicodeEnc: 0
InstructionsLength: 0
SplineSet
358 1143 m 6
 358 1116 l 5
 354 1024 323 899 208 792 c 5
 55 793 l 5
 106 840 148 924 176 997 c 5
 107 1012 58 1073 58 1143 c 4
 58 1226 125 1293 208 1293 c 4
 291 1293 358 1226 358 1143 c 6
735 1143 m 6
 735 1116 l 5
 731 1024 700 899 585 792 c 5
 431 793 l 5
 482 840 525 924 553 997 c 5
 484 1012 435 1073 435 1143 c 4
 435 1226 502 1293 585 1293 c 4
 668 1293 735 1226 735 1143 c 6
EndSplineSet
EndUndoOperation
EndUndoes
Redoes
EndRedoes
EndUndoRedoHistory
Fore
SplineSet
358 1143 m 6
 358 1116 l 5
 354 1024 323 899 208 792 c 5
 55 793 l 5
 106 840 148 924 176 997 c 5
 107 1012 58 1073 58 1143 c 4
 58 1226 125 1293 208 1293 c 4
 291 1293 358 1226 358 1143 c 6
735 1143 m 6
 735 1116 l 5
 731 1024 700 899 585 792 c 5
 431 793 l 5
 482 840 525 924 553 997 c 5
 484 1012 435 1073 435 1143 c 4
 435 1226 502 1293 585 1293 c 4
 668 1293 735 1226 735 1143 c 6
EndSplineSet
Validated: 1
EndChar

StartChar: NameMe.257
Encoding: 258 -1 136
Width: 670
VWidth: 0
Flags: HW
LayerCount: 2
UndoRedoHistory
Layer: 1
Undoes
UndoOperation
Index: 0
Type: 1
WasModified: 0
WasOrder2: 0
Layer: 2
Width: 670
VWidth: 0
LBearingChange: 0
UnicodeEnc: 0
InstructionsLength: 0
SplineSet
305 1598 m 5
 581 1598 l 5
 312 1318 l 5
 89 1318 l 5
 305 1598 l 5
EndSplineSet
EndUndoOperation
EndUndoes
Redoes
EndRedoes
EndUndoRedoHistory
Fore
SplineSet
305 1598 m 5
 581 1598 l 5
 312 1318 l 5
 89 1318 l 5
 305 1598 l 5
EndSplineSet
Validated: 1
EndChar

StartChar: acute
Encoding: 180 180 137
Width: 671
VWidth: 0
Flags: W
HStem: 1314 280<305 312>
VStem: 89 492
LayerCount: 2
UndoRedoHistory
Layer: 1
Undoes
UndoOperation
Index: 0
Type: 1
WasModified: 0
WasOrder2: 0
Layer: 2
Width: 671
VWidth: 0
LBearingChange: 0
UnicodeEnc: 0
InstructionsLength: 0
SplineSet
305 1594 m 5
 581 1594 l 5
 312 1314 l 5
 89 1314 l 5
 305 1594 l 5
EndSplineSet
EndUndoOperation
EndUndoes
Redoes
EndRedoes
EndUndoRedoHistory
Fore
SplineSet
305 1594 m 5
 581 1594 l 5
 312 1314 l 5
 89 1314 l 5
 305 1594 l 5
EndSplineSet
Validated: 1
EndChar

StartChar: dotlessi
Encoding: 259 305 142
Width: 395
VWidth: 0
Flags: HW
HStem: 0 21G<70 317.279> 0 21G<70 317.279> 790 20G<70 317.279>
VStem: 70 247<0 809.963>
LayerCount: 2
UndoRedoHistory
Layer: 1
Undoes
UndoOperation
Index: 0
Type: 1
WasModified: 0
WasOrder2: 0
Layer: 2
Width: 395
VWidth: 0
LBearingChange: 0
UnicodeEnc: 0
InstructionsLength: 0
SplineSet
70 810 m 5xb0
 317 810 l 5
 317 0 l 5
 70 0 l 5
 70 810 l 5xb0
EndSplineSet
EndUndoOperation
EndUndoes
Redoes
EndRedoes
EndUndoRedoHistory
Fore
SplineSet
70 810 m 5xb0
 317 810 l 5
 317 0 l 5
 70 0 l 5
 70 810 l 5xb0
EndSplineSet
Validated: 1
EndChar

StartChar: circumflex
Encoding: 136 710 146
Width: 707
VWidth: 0
Flags: HW
LayerCount: 2
UndoRedoHistory
Layer: 1
Undoes
UndoOperation
Index: 0
Type: 1
WasModified: 0
WasOrder2: 0
Layer: 2
Width: 707
VWidth: 0
LBearingChange: 0
UnicodeEnc: 0
InstructionsLength: 0
SplineSet
262 1600 m 5
 443 1600 l 5
 614 1324 l 5
 454 1324 l 5
 352 1489 l 5
 250 1324 l 5
 91 1324 l 5
 262 1600 l 5
EndSplineSet
EndUndoOperation
EndUndoes
Redoes
EndRedoes
EndUndoRedoHistory
Fore
SplineSet
262 1600 m 5
 443 1600 l 5
 614 1324 l 5
 454 1324 l 5
 352 1489 l 5
 250 1324 l 5
 91 1324 l 5
 262 1600 l 5
EndSplineSet
Validated: 1
EndChar

StartChar: uni02CB
Encoding: 260 715 160
Width: 671
VWidth: 0
Flags: HW
LayerCount: 2
UndoRedoHistory
Layer: 1
Undoes
UndoOperation
Index: 0
Type: 1
WasModified: 0
WasOrder2: 0
Layer: 2
Width: 671
VWidth: 0
LBearingChange: 0
UnicodeEnc: 0
InstructionsLength: 0
SplineSet
581 1318 m 1
 358 1318 l 1
 89 1598 l 1
 365 1598 l 1
 581 1318 l 1
EndSplineSet
EndUndoOperation
EndUndoes
Redoes
EndRedoes
EndUndoRedoHistory
Fore
SplineSet
581 1318 m 1
 358 1318 l 1
 89 1598 l 1
 365 1598 l 1
 581 1318 l 1
EndSplineSet
Validated: 1
EndChar

StartChar: dieresis
Encoding: 168 168 172
Width: 642
VWidth: 0
Flags: HW
LayerCount: 2
UndoRedoHistory
Layer: 1
Undoes
UndoOperation
Index: 0
Type: 1
WasModified: 0
WasOrder2: 0
Layer: 2
Width: 642
VWidth: 0
LBearingChange: 0
UnicodeEnc: 0
InstructionsLength: 0
SplineSet
462 1293 m 4
 526 1293 579 1240 579 1176 c 4
 579 1112 526 1060 462 1060 c 4
 398 1060 345 1112 345 1176 c 4
 345 1240 398 1293 462 1293 c 4
181 1293 m 4
 245 1293 297 1240 297 1176 c 4
 297 1112 245 1060 181 1060 c 4
 117 1060 64 1112 64 1176 c 4
 64 1240 117 1293 181 1293 c 4
EndSplineSet
EndUndoOperation
EndUndoes
Redoes
EndRedoes
EndUndoRedoHistory
Fore
SplineSet
462 1293 m 4
 526 1293 579 1240 579 1176 c 4
 579 1112 526 1060 462 1060 c 4
 398 1060 345 1112 345 1176 c 4
 345 1240 398 1293 462 1293 c 4
181 1293 m 4
 245 1293 297 1240 297 1176 c 4
 297 1112 245 1060 181 1060 c 4
 117 1060 64 1112 64 1176 c 4
 64 1240 117 1293 181 1293 c 4
EndSplineSet
Validated: 1
EndChar

StartChar: Thorn
Encoding: 222 222 192
Width: 1011
VWidth: 0
Flags: HW
LayerCount: 2
UndoRedoHistory
Layer: 1
Undoes
UndoOperation
Index: 0
Type: 1
WasModified: 0
WasOrder2: 0
Layer: 2
Width: 1011
VWidth: 0
LBearingChange: 0
UnicodeEnc: 0
InstructionsLength: 0
SplineSet
511 1089 m 6
 755 1089 956 890 956 646 c 4
 956 402 755 201 511 201 c 4
 447 201 383 201 319 201 c 5
 319 5 l 1
 72 5 l 1
 72 1290 l 1
 319 1290 l 1
 319 1089 l 5
 511 1089 l 6
511 844 m 6
 319 844 l 5
 319 448 l 5
 511 448 l 6
 622 448 709 535 709 646 c 4
 709 757 622 844 511 844 c 6
EndSplineSet
EndUndoOperation
EndUndoes
Redoes
EndRedoes
EndUndoRedoHistory
Fore
SplineSet
511 1089 m 6
 755 1089 956 890 956 646 c 4
 956 402 755 201 511 201 c 4
 447 201 383 201 319 201 c 5
 319 5 l 1
 72 5 l 1
 72 1290 l 1
 319 1290 l 1
 319 1089 l 5
 511 1089 l 6
511 844 m 6
 319 844 l 5
 319 448 l 5
 511 448 l 6
 622 448 709 535 709 646 c 4
 709 757 622 844 511 844 c 6
EndSplineSet
Validated: 1
EndChar

StartChar: multiply
Encoding: 215 215 193
Width: 768
VWidth: 0
Flags: W
LayerCount: 2
UndoRedoHistory
Layer: 1
Undoes
UndoOperation
Index: 0
Type: 1
WasModified: 0
WasOrder2: 0
Layer: 2
Width: 768
VWidth: 0
LBearingChange: 0
UnicodeEnc: 0
InstructionsLength: 0
SplineSet
547 1016 m 5
 723 840 l 5
 556 673 l 5
 723 507 l 5
 547 331 l 5
 380 498 l 5
 214 331 l 5
 38 507 l 5
 205 673 l 5
 38 840 l 5
 214 1016 l 5
 380 849 l 5
 547 1016 l 5
EndSplineSet
EndUndoOperation
EndUndoes
Redoes
EndRedoes
EndUndoRedoHistory
Fore
SplineSet
547 1016 m 5
 723 840 l 5
 556 673 l 5
 723 507 l 5
 547 331 l 5
 380 498 l 5
 214 331 l 5
 38 507 l 5
 205 673 l 5
 38 840 l 5
 214 1016 l 5
 380 849 l 5
 547 1016 l 5
EndSplineSet
Validated: 1
EndChar

StartChar: degree
Encoding: 176 176 194
Width: 414
VWidth: 0
Flags: HW
LayerCount: 2
UndoRedoHistory
Layer: 1
Undoes
UndoOperation
Index: 0
Type: 1
WasModified: 0
WasOrder2: 0
Layer: 2
Width: 414
VWidth: 0
LBearingChange: 0
UnicodeEnc: 0
InstructionsLength: 0
SplineSet
208 1291 m 4
 288 1291 354 1225 354 1145 c 4
 354 1065 288 998 208 998 c 4
 128 998 61 1065 61 1145 c 4
 61 1225 128 1291 208 1291 c 4
208 1201 m 4
 176 1201 151 1177 151 1145 c 4
 151 1113 176 1088 208 1088 c 4
 240 1088 264 1113 264 1145 c 4
 264 1177 240 1201 208 1201 c 4
EndSplineSet
EndUndoOperation
EndUndoes
Redoes
EndRedoes
EndUndoRedoHistory
Fore
SplineSet
208 1291 m 4
 288 1291 354 1225 354 1145 c 4
 354 1065 288 998 208 998 c 4
 128 998 61 1065 61 1145 c 4
 61 1225 128 1291 208 1291 c 4
208 1201 m 4
 176 1201 151 1177 151 1145 c 4
 151 1113 176 1088 208 1088 c 4
 240 1088 264 1113 264 1145 c 4
 264 1177 240 1201 208 1201 c 4
EndSplineSet
Validated: 1
EndChar

StartChar: cedilla
Encoding: 184 184 198
Width: 367
VWidth: 0
Flags: HW
LayerCount: 2
UndoRedoHistory
Layer: 1
Undoes
UndoOperation
Index: 0
Type: 1
WasModified: 0
WasOrder2: 0
Layer: 2
Width: 367
VWidth: 0
LBearingChange: 0
UnicodeEnc: 0
InstructionsLength: 0
SplineSet
308 -206 m 0
 308 -325.423082457 196.883167699 -435 71 -435 c 2
 63 -435 l 1
 67 -315 l 1
 71 -315 l 2
 128.268106167 -315 183.874322368 -259.010842117 187 -209 c 1
 158.695424848 -173.61928106 118.81980195 -149.459405851 99 -90 c 0
 92 -68 89 -47 89 -26 c 0
 89 27.452898346 125.880013324 140.506709107 132 160 c 1
 244 117 l 1
 244 117 232 85 222 45 c 0
 215 17 212 -16 212 -36 c 0
 212 -73.1110536073 259.127098169 -106.616306761 283 -137 c 0
 294 -151 307 -168 308 -197 c 0
 308 -200 308 -203 308 -206 c 0
EndSplineSet
EndUndoOperation
EndUndoes
Redoes
EndRedoes
EndUndoRedoHistory
Fore
SplineSet
308 -206 m 0
 308 -325 197 -435 71 -435 c 2
 63 -435 l 1
 67 -315 l 1
 71 -315 l 2
 128 -315 184 -259 187 -209 c 1
 159 -174 119 -149 99 -90 c 0
 92 -68 89 -47 89 -26 c 0
 89 27 126 141 132 160 c 1
 244 117 l 1
 244 117 232 85 222 45 c 0
 215 17 212 -16 212 -36 c 0
 212 -73 259 -107 283 -137 c 0
 294 -151 307 -168 308 -197 c 0
 308 -200 308 -203 308 -206 c 0
EndSplineSet
Validated: 1
EndChar

StartChar: florin
Encoding: 131 402 201
Width: 931
VWidth: 0
Flags: HW
LayerCount: 2
UndoRedoHistory
Layer: 1
Undoes
UndoOperation
Index: 0
Type: 1
WasModified: 0
WasOrder2: 0
Layer: 2
Width: 931
VWidth: 0
LBearingChange: 0
UnicodeEnc: 0
InstructionsLength: 0
SplineSet
620 1293 m 5
 721 1292 836 1236 905 1115 c 5
 718 1007 l 5
 694 1066 655 1077 627 1077 c 0
 599 1077 591 1060 589 1029 c 5
 589 955.666666667 589 882.333333333 589 809 c 5
 766 809 l 5
 766 608 l 5
 589 608 l 5
 588 -116 l 6
 588 -162 577 -201 558 -238 c 4
 518 -311 414 -391 310 -394 c 4
 209 -393 93 -337 24 -216 c 5
 212 -108 l 5
 236 -167 274 -178 302 -178 c 0
 330 -178 339 -161 341 -130 c 5
 341 608 l 5
 225 608 l 5
 225 809 l 5
 341 809 l 5
 341 877.666666667 341 946.333333333 341 1015 c 4
 341 1061 353 1100 372 1137 c 4
 412 1210 516 1290 620 1293 c 5
EndSplineSet
EndUndoOperation
EndUndoes
Redoes
EndRedoes
EndUndoRedoHistory
Fore
SplineSet
620 1293 m 5
 721 1292 836 1236 905 1115 c 5
 718 1007 l 5
 694 1066 655 1077 627 1077 c 0
 599 1077 591 1060 589 1029 c 5
 589 956 589 882 589 809 c 5
 766 809 l 5
 766 608 l 5
 589 608 l 5
 588 -116 l 6
 588 -162 577 -201 558 -238 c 4
 518 -311 414 -391 310 -394 c 4
 209 -393 93 -337 24 -216 c 5
 212 -108 l 5
 236 -167 274 -178 302 -178 c 0
 330 -178 339 -161 341 -130 c 5
 341 608 l 5
 225 608 l 5
 225 809 l 5
 341 809 l 5
 341 878 341 946 341 1015 c 4
 341 1061 353 1100 372 1137 c 4
 412 1210 516 1290 620 1293 c 5
EndSplineSet
Validated: 1
EndChar

StartChar: perthousand
Encoding: 137 8240 205
Width: 1554
VWidth: 0
Flags: HW
LayerCount: 2
UndoRedoHistory
Layer: 1
Undoes
UndoOperation
Index: 0
Type: 1
WasModified: 1
WasOrder2: 0
Layer: 2
Width: 1554
VWidth: 0
LBearingChange: 0
UnicodeEnc: 0
InstructionsLength: 0
SplineSet
1353 473 m 4
 1442 473 1514 401 1514 312 c 4
 1514 223 1442 151 1353 151 c 4
 1264 151 1191 223 1191 312 c 4
 1191 401 1264 473 1353 473 c 4
877 1208 m 5
 1215 1208 l 5
 367 71 l 5
 34 71 l 5
 877 1208 l 5
334 1145 m 4
 423 1145 496 1073 496 984 c 4
 496 895 423 822 334 822 c 4
 245 822 173 895 173 984 c 4
 173 1073 245 1145 334 1145 c 4
957 473 m 4
 1046 473 1118 401 1118 312 c 4
 1118 223 1046 151 957 151 c 5
 957 151 l 5
 868 151 795 223 795 312 c 4
 795 401 868 473 957 473 c 4
EndSplineSet
EndUndoOperation
EndUndoes
Redoes
EndRedoes
EndUndoRedoHistory
Fore
SplineSet
1353 473 m 0
 1442 473 1514 401 1514 312 c 0
 1514 223 1442 151 1353 151 c 0
 1264 151 1191 223 1191 312 c 0
 1191 401 1264 473 1353 473 c 0
877 1208 m 1
 1215 1208 l 1
 367 71 l 1
 34 71 l 1
 877 1208 l 1
334 1145 m 0
 423 1145 496 1073 496 984 c 0
 496 895 423 822 334 822 c 0
 245 822 173 895 173 984 c 0
 173 1073 245 1145 334 1145 c 0
957 473 m 0
 1046 473 1118 401 1118 312 c 0
 1118 223 1046 151 957 151 c 0
 868 151 795 223 795 312 c 0
 795 401 868 473 957 473 c 0
EndSplineSet
Validated: 1
EndChar

StartChar: emdash
Encoding: 151 8212 209
Width: 2050
VWidth: 0
Flags: HW
LayerCount: 2
UndoRedoHistory
Layer: 1
Undoes
UndoOperation
Index: 0
Type: 1
WasModified: 0
WasOrder2: 0
Layer: 2
Width: 2050
VWidth: 0
LBearingChange: 0
UnicodeEnc: 0
InstructionsLength: 0
SplineSet
72 424 m 1
 72 672 l 1
 1977 672 l 1
 1977 424 l 1
 72 424 l 1
EndSplineSet
EndUndoOperation
EndUndoes
Redoes
EndRedoes
EndUndoRedoHistory
Fore
SplineSet
72 424 m 1
 72 672 l 1
 1977 672 l 1
 1977 424 l 1
 72 424 l 1
EndSplineSet
Validated: 1
EndChar

StartChar: endash
Encoding: 150 8211 210
Width: 1026
VWidth: 0
Flags: HW
LayerCount: 2
UndoRedoHistory
Layer: 1
Undoes
UndoOperation
Index: 0
Type: 1
WasModified: 0
WasOrder2: 0
Layer: 2
Width: 1026
VWidth: 0
LBearingChange: 0
UnicodeEnc: 0
InstructionsLength: 0
SplineSet
72 424 m 1
 72 672 l 1
 953 672 l 1
 953 424 l 1
 72 424 l 1
EndSplineSet
EndUndoOperation
EndUndoes
Redoes
EndRedoes
EndUndoRedoHistory
Fore
SplineSet
72 424 m 1
 72 672 l 1
 953 672 l 1
 953 424 l 1
 72 424 l 1
EndSplineSet
Validated: 1
EndChar

StartChar: macron
Encoding: 175 175 213
Width: 711
VWidth: 0
Flags: HW
LayerCount: 2
UndoRedoHistory
Layer: 1
Undoes
UndoOperation
Index: 0
Type: 1
WasModified: 0
WasOrder2: 0
Layer: 2
Width: 711
VWidth: 0
LBearingChange: 0
UnicodeEnc: 0
InstructionsLength: 0
SplineSet
93 1530 m 1
 617 1530 l 1
 617 1361 l 1
 93 1361 l 1
 93 1530 l 1
EndSplineSet
EndUndoOperation
EndUndoes
Redoes
EndRedoes
EndUndoRedoHistory
Fore
SplineSet
93 1530 m 1
 617 1530 l 1
 617 1361 l 1
 93 1361 l 1
 93 1530 l 1
EndSplineSet
Validated: 1
EndChar

StartChar: periodcentered
Encoding: 183 183 218
Width: 420
VWidth: 0
Flags: HW
LayerCount: 2
UndoRedoHistory
Layer: 1
Undoes
UndoOperation
Index: 0
Type: 1
WasModified: 0
WasOrder2: 0
Layer: 2
Width: 420
VWidth: 0
LBearingChange: 0
UnicodeEnc: 0
InstructionsLength: 0
SplineSet
210 784 m 4
 295 784 360 717 360 634 c 4
 360 551 293 484 210 484 c 4
 127 484 60 551 60 634 c 4
 60 717 129 784 210 784 c 4
EndSplineSet
EndUndoOperation
EndUndoes
Redoes
EndRedoes
EndUndoRedoHistory
Fore
SplineSet
210 784 m 4
 295 784 360 717 360 634 c 4
 360 551 293 484 210 484 c 4
 127 484 60 551 60 634 c 4
 60 717 129 784 210 784 c 4
EndSplineSet
Validated: 1
EndChar

StartChar: divide
Encoding: 247 247 221
Width: 888
VWidth: 0
Flags: W
HStem: 21 300<321.875 534.125> 424 248<53 824> 776 300<321.875 534.125>
VStem: 278 300<64.875 277.125 819.875 1032.12>
LayerCount: 2
UndoRedoHistory
Layer: 1
Undoes
UndoOperation
Index: 0
Type: 1
WasModified: 0
WasOrder2: 0
Layer: 2
Width: 888
VWidth: 0
LBearingChange: 0
UnicodeEnc: 0
InstructionsLength: 0
SplineSet
428 1076 m 4
 511 1076 578 1009 578 926 c 4
 578 843 511 776 428 776 c 4
 345 776 278 843 278 926 c 4
 278 1009 345 1076 428 1076 c 4
428 321 m 4
 511 321 578 254 578 171 c 4
 578 88 511 21 428 21 c 4
 345 21 278 88 278 171 c 4
 278 254 345 321 428 321 c 4
53 672 m 5
 824 672 l 5
 824 424 l 5
 53 424 l 5
 53 672 l 5
EndSplineSet
EndUndoOperation
EndUndoes
Redoes
EndRedoes
EndUndoRedoHistory
Fore
SplineSet
428 1076 m 4
 511 1076 578 1009 578 926 c 4
 578 843 511 776 428 776 c 4
 345 776 278 843 278 926 c 4
 278 1009 345 1076 428 1076 c 4
428 321 m 4
 511 321 578 254 578 171 c 4
 578 88 511 21 428 21 c 4
 345 21 278 88 278 171 c 4
 278 254 345 321 428 321 c 4
53 672 m 5
 824 672 l 5
 824 424 l 5
 53 424 l 5
 53 672 l 5
EndSplineSet
Validated: 1
EndChar

StartChar: caron
Encoding: 261 711 222
Width: 560
VWidth: 0
Flags: HW
LayerCount: 2
UndoRedoHistory
Layer: 1
Undoes
UndoOperation
Index: 0
Type: 1
WasModified: 0
WasOrder2: 0
Layer: 2
Width: 560
VWidth: 0
LBearingChange: 0
UnicodeEnc: 0
InstructionsLength: 0
SplineSet
180 1318 m 5
 361 1318 l 5
 532 1594 l 5
 372 1594 l 5
 270 1429 l 5
 168 1594 l 5
 9 1594 l 5
 180 1318 l 5
EndSplineSet
EndUndoOperation
EndUndoes
Redoes
EndRedoes
EndUndoRedoHistory
Fore
SplineSet
180 1318 m 5
 9 1594 l 5
 168 1594 l 5
 270 1429 l 5
 372 1594 l 5
 532 1594 l 5
 361 1318 l 5
 180 1318 l 5
EndSplineSet
Validated: 1
EndChar
